ETBook-Roman.ufo
<glyph name="exclam" format="2">
	<advance width="272"/>
	<unicode hex="0021"/>
	<outline>
		<contour>
			<point x="189" y="647" type="line" smooth="yes"/>
			<point x="192" y="681"/>
			<point x="189" y="688"/>
			<point x="149" y="689" type="curve" smooth="yes"/>
			<point x="116" y="690" type="line" smooth="yes"/>
			<point x="81" y="691"/>
			<point x="83" y="668"/>
			<point x="85" y="647" type="curve" smooth="yes"/>
			<point x="123" y="183" type="line"/>
			<point x="129" y="170"/>
			<point x="147" y="175"/>
			<point x="151" y="183" type="curve"/>
		</contour>
		<contour>
			<point x="193" y="38" type="curve" smooth="yes"/>
			<point x="193" y="70"/>
			<point x="168" y="91"/>
			<point x="137" y="91" type="curve" smooth="yes"/>
			<point x="105" y="91"/>
			<point x="82" y="70"/>
			<point x="82" y="38" type="curve" smooth="yes"/>
			<point x="82" y="7"/>
			<point x="105" y="-15"/>
			<point x="137" y="-15" type="curve" smooth="yes"/>
			<point x="169" y="-15"/>
			<point x="193" y="7"/>
		</contour>
	</outline>
</glyph>
<glyph name="quotedbl" format="2">
	<advance width="425"/>
	<unicode hex="0022"/>
	<outline>
		<contour>
			<point x="363" y="611" type="curve" smooth="yes"/>
			<point x="363" y="649"/>
			<point x="341" y="674"/>
			<point x="306" y="674" type="curve" smooth="yes"/>
			<point x="266" y="674"/>
			<point x="249" y="649"/>
			<point x="249" y="600" type="curve" smooth="yes"/>
			<point x="249" y="572"/>
			<point x="257" y="546"/>
			<point x="262" y="519" type="curve" smooth="yes"/>
			<point x="289" y="367" type="line"/>
			<point x="289" y="361"/>
			<point x="303" y="356"/>
			<point x="312" y="358" type="curve"/>
			<point x="319" y="359"/>
			<point x="322" y="364"/>
			<point x="323" y="367" type="curve"/>
			<point x="352" y="520" type="line" smooth="yes"/>
			<point x="357" y="546"/>
			<point x="363" y="584"/>
		</contour>
		<contour>
			<point x="177" y="611" type="curve" smooth="yes"/>
			<point x="177" y="649"/>
			<point x="155" y="674"/>
			<point x="120" y="674" type="curve" smooth="yes"/>
			<point x="83" y="674"/>
			<point x="66" y="650"/>
			<point x="66" y="606" type="curve" smooth="yes"/>
			<point x="66" y="578"/>
			<point x="72" y="550"/>
			<point x="77" y="522" type="curve" smooth="yes"/>
			<point x="102" y="379" type="line" smooth="yes"/>
			<point x="104" y="368"/>
			<point x="113" y="361"/>
			<point x="120" y="361" type="curve"/>
			<point x="129" y="360"/>
			<point x="134" y="364"/>
			<point x="136" y="367" type="curve"/>
			<point x="165" y="521" type="line" smooth="yes"/>
			<point x="168" y="536"/>
			<point x="171" y="551"/>
			<point x="173" y="566" type="curve" smooth="yes"/>
			<point x="175" y="581"/>
			<point x="177" y="596"/>
		</contour>
	</outline>
</glyph>
<glyph name="numbersign" format="2">
  <advance width="699"/>
  <unicode hex="0023"/>
  <outline>
    <contour>
      <point x="658" y="229" type="line" smooth="yes"/>
      <point x="659" y="250"/>
      <point x="646" y="247"/>
      <point x="630" y="246" type="curve" smooth="yes"/>
      <point x="594" y="245"/>
      <point x="548" y="245"/>
      <point x="520" y="246" type="curve" smooth="yes"/>
      <point x="514" y="246"/>
      <point x="502" y="249"/>
      <point x="505" y="264" type="curve" smooth="yes"/>
      <point x="534" y="404" type="line" smooth="yes"/>
      <point x="538" y="423"/>
      <point x="538" y="435"/>
      <point x="559" y="434" type="curve" smooth="yes"/>
      <point x="578" y="434"/>
      <point x="614" y="433"/>
      <point x="633" y="434" type="curve"/>
      <point x="646" y="434"/>
      <point x="656" y="438"/>
      <point x="656" y="447" type="curve"/>
      <point x="657" y="458"/>
      <point x="661" y="473"/>
      <point x="658" y="484" type="curve"/>
      <point x="659" y="503"/>
      <point x="650" y="499"/>
      <point x="636" y="499" type="curve"/>
      <point x="621" y="498"/>
      <point x="589" y="497"/>
      <point x="569" y="499" type="curve"/>
      <point x="560" y="499"/>
      <point x="554" y="501"/>
      <point x="557" y="515" type="curve" smooth="yes"/>
      <point x="592" y="684" type="line" smooth="yes"/>
      <point x="595" y="697"/>
      <point x="592" y="711"/>
      <point x="575" y="710" type="curve" smooth="yes"/>
      <point x="551" y="708" type="line" smooth="yes"/>
      <point x="530" y="706"/>
      <point x="531" y="696"/>
      <point x="527" y="678" type="curve" smooth="yes"/>
      <point x="520" y="646"/>
      <point x="494" y="517"/>
      <point x="494" y="517" type="curve"/>
      <point x="491" y="504"/>
      <point x="490" y="500"/>
      <point x="475" y="499" type="curve" smooth="yes"/>
      <point x="429" y="497"/>
      <point x="341" y="502"/>
      <point x="294" y="499" type="curve"/>
      <point x="285" y="499"/>
      <point x="280" y="507"/>
      <point x="282" y="515" type="curve" smooth="yes"/>
      <point x="316" y="685" type="line" smooth="yes"/>
      <point x="320" y="705"/>
      <point x="320" y="705"/>
      <point x="298" y="707" type="curve" smooth="yes"/>
      <point x="267" y="710"/>
      <point x="261" y="718"/>
      <point x="255" y="691" type="curve" smooth="yes"/>
      <point x="218" y="513" type="line" smooth="yes"/>
      <point x="215" y="499"/>
      <point x="213" y="498"/>
      <point x="200" y="499" type="curve" smooth="yes"/>
      <point x="167" y="500"/>
      <point x="108" y="500"/>
      <point x="69" y="499" type="curve" smooth="yes"/>
      <point x="52" y="498"/>
      <point x="48" y="491"/>
      <point x="48" y="487" type="curve"/>
      <point x="46" y="476"/>
      <point x="44" y="461"/>
      <point x="46" y="450" type="curve"/>
      <point x="45" y="438"/>
      <point x="51" y="434"/>
      <point x="71" y="434" type="curve" smooth="yes"/>
      <point x="100" y="435"/>
      <point x="158" y="434"/>
      <point x="186" y="434" type="curve"/>
      <point x="197" y="433"/>
      <point x="199" y="424"/>
      <point x="198" y="418" type="curve" smooth="yes"/>
      <point x="166" y="264" type="line" smooth="yes"/>
      <point x="163" y="248"/>
      <point x="158" y="246"/>
      <point x="143" y="246" type="curve" smooth="yes"/>
      <point x="68" y="246" type="line" smooth="yes"/>
      <point x="50" y="246"/>
      <point x="46" y="241"/>
      <point x="46" y="230" type="curve"/>
      <point x="44" y="220"/>
      <point x="44" y="208"/>
      <point x="46" y="199" type="curve"/>
      <point x="46" y="180"/>
      <point x="51" y="181"/>
      <point x="67" y="181" type="curve" smooth="yes"/>
      <point x="130" y="181" type="line" smooth="yes"/>
      <point x="148" y="181"/>
      <point x="148" y="177"/>
      <point x="145" y="161" type="curve" smooth="yes"/>
      <point x="112" y="1" type="line" smooth="yes"/>
      <point x="110" y="-10"/>
      <point x="102" y="-30"/>
      <point x="119" y="-29" type="curve" smooth="yes"/>
      <point x="135" y="-28" type="line" smooth="yes"/>
      <point x="158" y="-27"/>
      <point x="170" y="-31"/>
      <point x="175" y="-5" type="curve" smooth="yes"/>
      <point x="208" y="158" type="line" smooth="yes"/>
      <point x="213" y="181"/>
      <point x="215" y="180"/>
      <point x="238" y="181" type="curve" smooth="yes"/>
      <point x="280" y="183"/>
      <point x="352" y="183"/>
      <point x="405" y="181" type="curve" smooth="yes"/>
      <point x="422" y="180"/>
      <point x="423" y="173"/>
      <point x="419" y="155" type="curve" smooth="yes"/>
      <point x="386" y="-3" type="line" smooth="yes"/>
      <point x="383" y="-19"/>
      <point x="388" y="-29"/>
      <point x="399" y="-29" type="curve" smooth="yes"/>
      <point x="428" y="-29" type="line" smooth="yes"/>
      <point x="445" y="-29"/>
      <point x="448" y="-22"/>
      <point x="451" y="-6" type="curve" smooth="yes"/>
      <point x="484" y="156" type="line"/>
      <point x="495" y="171"/>
      <point x="482" y="182"/>
      <point x="515" y="181" type="curve" smooth="yes"/>
      <point x="542" y="180"/>
      <point x="598" y="180"/>
      <point x="628" y="181" type="curve" smooth="yes"/>
      <point x="642" y="182"/>
      <point x="655" y="180"/>
      <point x="656" y="199" type="curve" smooth="yes"/>
    </contour>
    <contour>
      <point x="472" y="410" type="curve" smooth="yes"/>
      <point x="442" y="265" type="line" smooth="yes"/>
      <point x="438" y="247"/>
      <point x="427" y="247"/>
      <point x="415" y="247" type="curve" smooth="yes"/>
      <point x="373" y="249"/>
      <point x="284" y="249"/>
      <point x="237" y="247" type="curve"/>
      <point x="232" y="254"/>
      <point x="226" y="252"/>
      <point x="229" y="264" type="curve" smooth="yes"/>
      <point x="261" y="415" type="line" smooth="yes"/>
      <point x="265" y="435"/>
      <point x="269" y="433"/>
      <point x="286" y="434" type="curve" smooth="yes"/>
      <point x="317" y="435"/>
      <point x="419" y="435"/>
      <point x="459" y="434" type="curve" smooth="yes"/>
      <point x="473" y="434"/>
      <point x="476" y="431"/>
    </contour>
  </outline>
</glyph>
<glyph name="dollar" format="2">
  <advance width="479"/>
  <unicode hex="0024"/>
  <outline>
    <contour>
      <point x="434" y="149" type="curve" smooth="yes"/>
      <point x="434" y="234"/>
      <point x="366" y="281"/>
      <point x="300" y="322" type="curve"/>
      <point x="294" y="327"/>
      <point x="295" y="336"/>
      <point x="294" y="343" type="curve"/>
      <point x="294" y="525" type="line"/>
      <point x="293" y="533"/>
      <point x="302" y="529"/>
      <point x="302" y="529" type="curve"/>
      <point x="314" y="516"/>
      <point x="317" y="511"/>
      <point x="328" y="494" type="curve" smooth="yes"/>
      <point x="344" y="470"/>
      <point x="356" y="461"/>
      <point x="374" y="461" type="curve" smooth="yes"/>
      <point x="394" y="461"/>
      <point x="409" y="477"/>
      <point x="409" y="498" type="curve" smooth="yes"/>
      <point x="409" y="535"/>
      <point x="364" y="569"/>
      <point x="299" y="588" type="curve"/>
      <point x="298" y="589"/>
      <point x="294" y="591"/>
      <point x="294" y="599" type="curve" smooth="yes"/>
      <point x="295" y="646" type="line" smooth="yes"/>
      <point x="295" y="653"/>
      <point x="290" y="657"/>
      <point x="286" y="657" type="curve" smooth="yes"/>
      <point x="274" y="657" type="line"/>
      <point x="270" y="656"/>
      <point x="263" y="653"/>
      <point x="262" y="649" type="curve"/>
      <point x="262" y="609" type="line" smooth="yes"/>
      <point x="262" y="606"/>
      <point x="258" y="597"/>
      <point x="255" y="598" type="curve"/>
      <point x="240" y="599"/>
      <point x="221" y="599"/>
      <point x="206" y="598" type="curve"/>
      <point x="198" y="597"/>
      <point x="199" y="604"/>
      <point x="196" y="607" type="curve"/>
      <point x="196" y="649" type="line"/>
      <point x="194" y="653"/>
      <point x="189" y="657"/>
      <point x="184" y="658" type="curve"/>
      <point x="173" y="657" type="line"/>
      <point x="167" y="656"/>
      <point x="165" y="654"/>
      <point x="164" y="651" type="curve"/>
      <point x="164" y="597" type="line" smooth="yes"/>
      <point x="164" y="591"/>
      <point x="161" y="588"/>
      <point x="160" y="588" type="curve"/>
      <point x="96" y="567"/>
      <point x="53" y="516"/>
      <point x="53" y="455" type="curve" smooth="yes"/>
      <point x="53" y="380"/>
      <point x="104" y="347"/>
      <point x="157" y="307" type="curve" smooth="yes"/>
      <point x="161" y="304"/>
      <point x="162" y="302"/>
      <point x="164" y="297" type="curve"/>
      <point x="164" y="52" type="line" smooth="yes"/>
      <point x="164" y="38"/>
      <point x="160" y="38"/>
      <point x="156" y="38" type="curve"/>
      <point x="128" y="59"/>
      <point x="129" y="71"/>
      <point x="118" y="101" type="curve" smooth="yes"/>
      <point x="107" y="129"/>
      <point x="96" y="144"/>
      <point x="75" y="144" type="curve" smooth="yes"/>
      <point x="54" y="144"/>
      <point x="36" y="125"/>
      <point x="36" y="104" type="curve" smooth="yes"/>
      <point x="36" y="85"/>
      <point x="47" y="61"/>
      <point x="66" y="41" type="curve" smooth="yes"/>
      <point x="90" y="16"/>
      <point x="126" y="3"/>
      <point x="158" y="-7" type="curve"/>
      <point x="160" y="-8"/>
      <point x="163" y="-11"/>
      <point x="164" y="-17" type="curve"/>
      <point x="164" y="-92" type="line"/>
      <point x="164" y="-96" type="line"/>
      <point x="163" y="-100"/>
      <point x="163" y="-105"/>
      <point x="168" y="-107" type="curve"/>
      <point x="193" y="-107" type="line"/>
      <point x="202" y="-103"/>
      <point x="198" y="-97"/>
      <point x="198" y="-90" type="curve" smooth="yes"/>
      <point x="197" y="-26" type="line" smooth="yes"/>
      <point x="197" y="-19"/>
      <point x="204" y="-16"/>
      <point x="206" y="-16" type="curve"/>
      <point x="224" y="-19"/>
      <point x="235" y="-20"/>
      <point x="253" y="-17" type="curve"/>
      <point x="258" y="-17"/>
      <point x="262" y="-22"/>
      <point x="262" y="-27" type="curve"/>
      <point x="261" y="-95" type="line"/>
      <point x="260" y="-100"/>
      <point x="264" y="-106"/>
      <point x="269" y="-107" type="curve"/>
      <point x="284" y="-107" type="line" smooth="yes"/>
      <point x="291" y="-107"/>
      <point x="295" y="-106"/>
      <point x="295" y="-98" type="curve" smooth="yes"/>
      <point x="294" y="-70"/>
      <point x="294" y="-46"/>
      <point x="294" y="-19" type="curve" smooth="yes"/>
      <point x="294" y="-13"/>
      <point x="298" y="-10"/>
      <point x="299" y="-10" type="curve"/>
      <point x="381" y="14"/>
      <point x="434" y="74"/>
    </contour>
    <contour>
      <point x="262" y="360" type="line" smooth="yes"/>
      <point x="262" y="354"/>
      <point x="258" y="352"/>
      <point x="254" y="350" type="curve"/>
      <point x="234" y="363"/>
      <point x="219" y="371"/>
      <point x="200" y="386" type="curve"/>
      <point x="199" y="387"/>
      <point x="196" y="392"/>
      <point x="196" y="400" type="curve" smooth="yes"/>
      <point x="196" y="552" type="line" smooth="yes"/>
      <point x="196" y="556"/>
      <point x="198" y="565"/>
      <point x="203" y="566" type="curve" smooth="yes"/>
      <point x="222" y="569"/>
      <point x="239" y="566"/>
      <point x="257" y="561" type="curve"/>
      <point x="259" y="561"/>
      <point x="262" y="556"/>
      <point x="262" y="551" type="curve" smooth="yes"/>
    </contour>
    <contour>
      <point x="164" y="429" type="line"/>
      <point x="163" y="425"/>
      <point x="162" y="415"/>
      <point x="156" y="420" type="curve" smooth="yes"/>
      <point x="128" y="444"/>
      <point x="119" y="463"/>
      <point x="119" y="490" type="curve" smooth="yes"/>
      <point x="119" y="516"/>
      <point x="134" y="540"/>
      <point x="160" y="554" type="curve" smooth="yes"/>
      <point x="164" y="556"/>
      <point x="165" y="548"/>
      <point x="164" y="547" type="curve"/>
    </contour>
    <contour>
      <point x="361" y="126" type="curve" smooth="yes"/>
      <point x="361" y="82"/>
      <point x="344" y="53"/>
      <point x="302" y="30" type="curve"/>
      <point x="301" y="29"/>
      <point x="295" y="31"/>
      <point x="294" y="37" type="curve"/>
      <point x="294" y="205" type="line"/>
      <point x="293" y="210"/>
      <point x="296" y="218"/>
      <point x="301" y="215" type="curve" smooth="yes"/>
      <point x="313" y="207" type="line" smooth="yes"/>
      <point x="346" y="185"/>
      <point x="361" y="157"/>
    </contour>
    <contour>
      <point x="262" y="24" type="line" smooth="yes"/>
      <point x="262" y="16"/>
      <point x="258" y="14"/>
      <point x="257" y="14" type="curve"/>
      <point x="242" y="11"/>
      <point x="216" y="13"/>
      <point x="202" y="16" type="curve"/>
      <point x="200" y="16"/>
      <point x="197" y="19"/>
      <point x="196" y="25" type="curve"/>
      <point x="196" y="264" type="line" smooth="yes"/>
      <point x="196" y="276"/>
      <point x="199" y="280"/>
      <point x="204" y="278" type="curve"/>
      <point x="216" y="270"/>
      <point x="218" y="269"/>
      <point x="223" y="266" type="curve" smooth="yes"/>
      <point x="253" y="247" type="line"/>
      <point x="256" y="246"/>
      <point x="262" y="235"/>
      <point x="262" y="228" type="curve" smooth="yes"/>
    </contour>
  </outline>
</glyph>
<glyph name="percent" format="2">
	<advance width="696"/>
	<unicode hex="0025"/>
	<outline>
		<contour>
			<point x="328" y="461" type="curve" smooth="yes"/>
			<point x="330" y="547"/>
			<point x="263" y="605"/>
			<point x="185" y="605" type="curve" smooth="yes"/>
			<point x="107" y="605"/>
			<point x="44" y="545"/>
			<point x="44" y="458" type="curve" smooth="yes"/>
			<point x="44" y="375"/>
			<point x="110" y="314"/>
			<point x="186" y="314" type="curve" smooth="yes"/>
			<point x="265" y="314"/>
			<point x="327" y="375"/>
		</contour>
		<contour>
			<point x="554" y="616" type="line"/>
			<point x="556" y="621"/>
			<point x="558" y="631"/>
			<point x="551" y="633" type="curve"/>
			<point x="539" y="638" type="line" smooth="yes"/>
			<point x="534" y="640"/>
			<point x="523" y="639"/>
			<point x="517" y="631" type="curve"/>
			<point x="126" y="-48" type="line" smooth="yes"/>
			<point x="120" y="-59"/>
			<point x="123" y="-68"/>
			<point x="139" y="-68" type="curve" smooth="yes"/>
			<point x="146" y="-68"/>
			<point x="153" y="-70"/>
			<point x="159" y="-67" type="curve" smooth="yes"/>
			<point x="161" y="-66"/>
			<point x="163" y="-64"/>
			<point x="165" y="-59" type="curve"/>
		</contour>
		<contour>
			<point x="641" y="105" type="curve" smooth="yes"/>
			<point x="643" y="191"/>
			<point x="575" y="249"/>
			<point x="498" y="249" type="curve" smooth="yes"/>
			<point x="420" y="249"/>
			<point x="357" y="189"/>
			<point x="357" y="102" type="curve" smooth="yes"/>
			<point x="357" y="18"/>
			<point x="423" y="-42"/>
			<point x="499" y="-42" type="curve" smooth="yes"/>
			<point x="578" y="-42"/>
			<point x="640" y="19"/>
		</contour>
		<contour>
			<point x="272" y="461" type="curve" smooth="yes"/>
			<point x="272" y="388"/>
			<point x="239" y="347"/>
			<point x="186" y="347" type="curve" smooth="yes"/>
			<point x="135" y="347"/>
			<point x="101" y="387"/>
			<point x="101" y="460" type="curve" smooth="yes"/>
			<point x="101" y="531"/>
			<point x="133" y="573"/>
			<point x="183" y="573" type="curve" smooth="yes"/>
			<point x="238" y="573"/>
			<point x="272" y="534"/>
		</contour>
		<contour>
			<point x="585" y="105" type="curve" smooth="yes"/>
			<point x="585" y="32"/>
			<point x="552" y="-9"/>
			<point x="499" y="-9" type="curve" smooth="yes"/>
			<point x="448" y="-9"/>
			<point x="414" y="31"/>
			<point x="414" y="104" type="curve" smooth="yes"/>
			<point x="414" y="175"/>
			<point x="446" y="217"/>
			<point x="496" y="217" type="curve" smooth="yes"/>
			<point x="551" y="217"/>
			<point x="585" y="178"/>
		</contour>
	</outline>
</glyph>
<glyph name="ampersand" format="2">
  <advance width="763"/>
  <unicode hex="0026"/>
  <outline>
    <contour>
      <point x="755" y="435" type="curve" smooth="yes"/>
      <point x="755" y="448" type="line"/>
      <point x="754" y="454"/>
      <point x="749" y="457"/>
      <point x="743" y="456" type="curve"/>
      <point x="693" y="454"/>
      <point x="607" y="453"/>
      <point x="568" y="455" type="curve"/>
      <point x="563" y="455"/>
      <point x="557" y="456"/>
      <point x="556" y="449" type="curve"/>
      <point x="554" y="443"/>
      <point x="554" y="430"/>
      <point x="560" y="427" type="curve"/>
      <point x="570" y="425"/>
      <point x="617" y="426"/>
      <point x="617" y="411" type="curve" smooth="yes"/>
      <point x="617" y="400"/>
      <point x="600" y="356"/>
      <point x="567" y="305" type="curve" smooth="yes"/>
      <point x="546" y="272"/>
      <point x="520" y="237"/>
      <point x="502" y="214" type="curve" smooth="yes"/>
      <point x="499" y="210"/>
      <point x="493" y="203"/>
      <point x="489" y="209" type="curve" smooth="yes"/>
      <point x="462" y="249"/>
      <point x="448" y="266"/>
      <point x="412" y="301" type="curve" smooth="yes"/>
      <point x="386" y="326"/>
      <point x="357" y="352"/>
      <point x="333" y="370" type="curve"/>
      <point x="330" y="372"/>
      <point x="329" y="380"/>
      <point x="333" y="382" type="curve" smooth="yes"/>
      <point x="400" y="419"/>
      <point x="436" y="462"/>
      <point x="436" y="511" type="curve" smooth="yes"/>
      <point x="436" y="575"/>
      <point x="376" y="618"/>
      <point x="297" y="618" type="curve" smooth="yes"/>
      <point x="210" y="618"/>
      <point x="150" y="568"/>
      <point x="150" y="491" type="curve" smooth="yes"/>
      <point x="150" y="447"/>
      <point x="174" y="401"/>
      <point x="214" y="363" type="curve"/>
      <point x="220" y="358"/>
      <point x="205" y="350"/>
      <point x="202" y="348" type="curve"/>
      <point x="166" y="331"/>
      <point x="132" y="317"/>
      <point x="101" y="290" type="curve" smooth="yes"/>
      <point x="64" y="258"/>
      <point x="42" y="210"/>
      <point x="42" y="160" type="curve" smooth="yes"/>
      <point x="42" y="59"/>
      <point x="119" y="-19"/>
      <point x="217" y="-19" type="curve" smooth="yes"/>
      <point x="289" y="-19"/>
      <point x="370" y="24"/>
      <point x="444" y="98" type="curve" smooth="yes"/>
      <point x="450" y="104"/>
      <point x="455" y="103"/>
      <point x="459" y="96" type="curve" smooth="yes"/>
      <point x="463" y="89"/>
      <point x="465" y="86"/>
      <point x="472" y="72" type="curve" smooth="yes"/>
      <point x="510" y="2"/>
      <point x="535" y="-19"/>
      <point x="592" y="-19" type="curve" smooth="yes"/>
      <point x="633" y="-19"/>
      <point x="678" y="1"/>
      <point x="725" y="39" type="curve"/>
      <point x="730" y="41"/>
      <point x="729" y="48"/>
      <point x="725" y="55" type="curve" smooth="yes"/>
      <point x="721" y="62"/>
      <point x="715" y="67"/>
      <point x="711" y="66" type="curve"/>
      <point x="672" y="39"/>
      <point x="648" y="28"/>
      <point x="630" y="28" type="curve" smooth="yes"/>
      <point x="603" y="28"/>
      <point x="588" y="41"/>
      <point x="551" y="108" type="curve" smooth="yes"/>
      <point x="532" y="143"/>
      <point x="526" y="152"/>
      <point x="516" y="168" type="curve" smooth="yes"/>
      <point x="514" y="171"/>
      <point x="514" y="176"/>
      <point x="517" y="179" type="curve"/>
      <point x="541" y="206"/>
      <point x="574" y="249"/>
      <point x="597" y="291" type="curve" smooth="yes"/>
      <point x="601" y="298"/>
      <point x="612" y="322"/>
      <point x="625" y="346" type="curve" smooth="yes"/>
      <point x="638" y="370"/>
      <point x="653" y="395"/>
      <point x="664" y="406" type="curve" smooth="yes"/>
      <point x="683" y="424"/>
      <point x="716" y="422"/>
      <point x="741" y="425" type="curve" smooth="yes"/>
      <point x="748" y="426"/>
      <point x="755" y="427"/>
    </contour>
    <contour>
      <point x="361" y="503" type="curve" smooth="yes"/>
      <point x="361" y="454"/>
      <point x="342" y="424"/>
      <point x="299" y="397" type="curve"/>
      <point x="252" y="434"/>
      <point x="228" y="476"/>
      <point x="228" y="517" type="curve" smooth="yes"/>
      <point x="228" y="560"/>
      <point x="252" y="585"/>
      <point x="290" y="585" type="curve" smooth="yes"/>
      <point x="333" y="585"/>
      <point x="361" y="554"/>
    </contour>
    <contour>
      <point x="431" y="130" type="curve"/>
      <point x="386" y="80"/>
      <point x="314" y="45"/>
      <point x="259" y="45" type="curve" smooth="yes"/>
      <point x="188" y="45"/>
      <point x="139" y="95"/>
      <point x="139" y="172" type="curve" smooth="yes"/>
      <point x="139" y="230"/>
      <point x="166" y="276"/>
      <point x="232" y="326" type="curve" smooth="yes"/>
      <point x="242" y="333"/>
      <point x="246" y="334"/>
      <point x="252" y="330" type="curve" smooth="yes"/>
      <point x="285" y="308"/>
      <point x="319" y="276"/>
      <point x="346" y="249" type="curve" smooth="yes"/>
      <point x="378" y="216"/>
      <point x="406" y="182"/>
      <point x="431" y="143" type="curve" smooth="yes"/>
      <point x="434" y="138"/>
      <point x="434" y="133"/>
    </contour>
  </outline>
</glyph>
<glyph name="quotesingle" format="2">
  <advance width="185"/>
  <unicode hex="0027"/>
  <outline>
    <contour>
      <point x="149" y="611" type="curve" smooth="yes"/>
      <point x="149" y="650"/>
      <point x="127" y="674"/>
      <point x="92" y="674" type="curve" smooth="yes"/>
      <point x="55" y="674"/>
      <point x="38" y="649"/>
      <point x="38" y="601" type="curve" smooth="yes"/>
      <point x="38" y="574"/>
      <point x="45" y="547"/>
      <point x="50" y="521" type="curve" smooth="yes"/>
      <point x="74" y="382" type="line" smooth="yes"/>
      <point x="77" y="366"/>
      <point x="74" y="365"/>
      <point x="92" y="363" type="curve" smooth="yes"/>
      <point x="105" y="362"/>
      <point x="110" y="373"/>
      <point x="112" y="384" type="curve" smooth="yes"/>
      <point x="136" y="521" type="line" smooth="yes"/>
      <point x="138" y="533"/>
      <point x="141" y="549"/>
      <point x="144" y="565" type="curve" smooth="yes"/>
      <point x="147" y="581"/>
      <point x="149" y="597"/>
    </contour>
  </outline>
</glyph>
<glyph name="parenleft.csc" format="2">
  <advance width="298"/>
  <unicode hex="0028"/>
  <outline>
    <contour>
      <point x="254" y="-191" type="curve" smooth="yes"/>
      <point x="268" y="-184"/>
      <point x="282" y="-173"/>
      <point x="276" y="-160" type="curve"/>
      <point x="250" y="-129"/>
      <point x="243" y="-119"/>
      <point x="219" y="-77" type="curve" smooth="yes"/>
      <point x="160" y="27"/>
      <point x="138" y="109"/>
      <point x="138" y="226" type="curve" smooth="yes"/>
      <point x="138" y="305"/>
      <point x="148" y="364"/>
      <point x="172" y="427" type="curve" smooth="yes"/>
      <point x="196" y="492"/>
      <point x="238" y="568"/>
      <point x="276" y="611" type="curve"/>
      <point x="288" y="630"/>
      <point x="261" y="659"/>
      <point x="241" y="644" type="curve"/>
      <point x="139" y="532"/>
      <point x="71" y="380"/>
      <point x="71" y="226" type="curve" smooth="yes"/>
      <point x="71" y="78"/>
      <point x="136" y="-74"/>
      <point x="233" y="-184" type="curve" smooth="yes"/>
      <point x="238" y="-190"/>
      <point x="245" y="-196"/>
    </contour>
  </outline>
</glyph>
<glyph name="parenleft" format="2">
	<advance width="326"/>
	<unicode hex="0028"/>
	<outline>
		<contour>
			<point x="307" y="-193" type="curve"/>
			<point x="278" y="-159"/>
			<point x="269" y="-147"/>
			<point x="242" y="-100" type="curve" smooth="yes"/>
			<point x="175" y="17"/>
			<point x="150" y="109"/>
			<point x="150" y="240" type="curve" smooth="yes"/>
			<point x="150" y="329"/>
			<point x="161" y="395"/>
			<point x="188" y="466" type="curve" smooth="yes"/>
			<point x="216" y="539"/>
			<point x="264" y="624"/>
			<point x="307" y="672" type="curve"/>
			<point x="319" y="691"/>
			<point x="291" y="720"/>
			<point x="271" y="705" type="curve"/>
			<point x="156" y="580"/>
			<point x="79" y="411"/>
			<point x="79" y="240" type="curve" smooth="yes"/>
			<point x="79" y="75"/>
			<point x="152" y="-94"/>
			<point x="262" y="-216" type="curve" smooth="yes"/>
			<point x="268" y="-223"/>
			<point x="275" y="-228"/>
			<point x="283" y="-224" type="curve" smooth="yes"/>
			<point x="298" y="-217"/>
			<point x="313" y="-206"/>
		</contour>
	</outline>
</glyph>
<glyph name="parenright.csc" format="2">
  <advance width="284"/>
  <unicode hex="0029"/>
  <outline>
    <contour>
      <point x="46" y="-191" type="curve"/>
      <point x="151" y="-79"/>
      <point x="215" y="74"/>
      <point x="215" y="228" type="curve" smooth="yes"/>
      <point x="215" y="378"/>
      <point x="154" y="527"/>
      <point x="54" y="638" type="curve" smooth="yes"/>
      <point x="46" y="647"/>
      <point x="32" y="649"/>
      <point x="20" y="639" type="curve" smooth="yes"/>
      <point x="10" y="630"/>
      <point x="10" y="615"/>
      <point x="17" y="606" type="curve"/>
      <point x="39" y="582"/>
      <point x="47" y="569"/>
      <point x="68" y="531" type="curve" smooth="yes"/>
      <point x="127" y="425"/>
      <point x="150" y="344"/>
      <point x="150" y="228" type="curve" smooth="yes"/>
      <point x="150" y="147"/>
      <point x="140" y="89"/>
      <point x="116" y="26" type="curve" smooth="yes"/>
      <point x="92" y="-40"/>
      <point x="50" y="-114"/>
      <point x="11" y="-158" type="curve"/>
      <point x="-5" y="-184"/>
      <point x="27" y="-206"/>
    </contour>
  </outline>
</glyph>
<glyph name="parenright" format="2">
	<advance width="316"/>
	<unicode hex="0029"/>
	<outline>
		<contour>
			<point x="239" y="242" type="curve" smooth="yes"/>
			<point x="239" y="409"/>
			<point x="169" y="575"/>
			<point x="56" y="699" type="curve" smooth="yes"/>
			<point x="48" y="707"/>
			<point x="34" y="710"/>
			<point x="22" y="700" type="curve" smooth="yes"/>
			<point x="11" y="691"/>
			<point x="11" y="675"/>
			<point x="19" y="667" type="curve"/>
			<point x="43" y="639"/>
			<point x="53" y="625"/>
			<point x="77" y="582" type="curve" smooth="yes"/>
			<point x="144" y="464"/>
			<point x="170" y="372"/>
			<point x="170" y="242" type="curve" smooth="yes"/>
			<point x="170" y="152"/>
			<point x="159" y="86"/>
			<point x="132" y="15" type="curve" smooth="yes"/>
			<point x="104" y="-58"/>
			<point x="56" y="-142"/>
			<point x="12" y="-191" type="curve"/>
			<point x="-4" y="-216"/>
			<point x="28" y="-239"/>
			<point x="48" y="-224" type="curve"/>
			<point x="166" y="-100"/>
			<point x="239" y="71"/>
		</contour>
	</outline>
</glyph>
<glyph name="asterisk" format="2">
	<advance width="534"/>
	<unicode hex="002A"/>
	<outline>
		<contour>
			<point x="467" y="355" type="curve" smooth="yes"/>
			<point x="467" y="382"/>
			<point x="450" y="395"/>
			<point x="429" y="402" type="curve" smooth="yes"/>
			<point x="407" y="410"/>
			<point x="380" y="412"/>
			<point x="361" y="418" type="curve" smooth="yes"/>
			<point x="344" y="423"/>
			<point x="326" y="432"/>
			<point x="304" y="444" type="curve" smooth="yes"/>
			<point x="292" y="451"/>
			<point x="292" y="451"/>
			<point x="303" y="457" type="curve"/>
			<point x="326" y="468"/>
			<point x="345" y="476"/>
			<point x="362" y="481" type="curve" smooth="yes"/>
			<point x="380" y="487"/>
			<point x="407" y="490"/>
			<point x="428" y="498" type="curve" smooth="yes"/>
			<point x="450" y="506"/>
			<point x="467" y="519"/>
			<point x="467" y="545" type="curve" smooth="yes"/>
			<point x="467" y="554"/>
			<point x="461" y="582"/>
			<point x="426" y="582" type="curve" smooth="yes"/>
			<point x="404" y="582"/>
			<point x="387" y="560"/>
			<point x="374" y="545" type="curve" smooth="yes"/>
			<point x="358" y="525"/>
			<point x="336" y="501"/>
			<point x="297" y="476" type="curve"/>
			<point x="290" y="473"/>
			<point x="284" y="471"/>
			<point x="284" y="482" type="curve" smooth="yes"/>
			<point x="285" y="524"/>
			<point x="292" y="549"/>
			<point x="298" y="570" type="curve" smooth="yes"/>
			<point x="304" y="590"/>
			<point x="311" y="609"/>
			<point x="311" y="631" type="curve" smooth="yes"/>
			<point x="311" y="652"/>
			<point x="298" y="674"/>
			<point x="272" y="674" type="curve" smooth="yes"/>
			<point x="246" y="674"/>
			<point x="233" y="652"/>
			<point x="233" y="631" type="curve" smooth="yes"/>
			<point x="233" y="609"/>
			<point x="241" y="590"/>
			<point x="247" y="570" type="curve" smooth="yes"/>
			<point x="253" y="549"/>
			<point x="259" y="524"/>
			<point x="261" y="482" type="curve" smooth="yes"/>
			<point x="261" y="474"/>
			<point x="259" y="470"/>
			<point x="250" y="475" type="curve"/>
			<point x="210" y="500"/>
			<point x="187" y="525"/>
			<point x="170" y="545" type="curve" smooth="yes"/>
			<point x="157" y="560"/>
			<point x="141" y="582"/>
			<point x="119" y="582" type="curve" smooth="yes"/>
			<point x="84" y="582"/>
			<point x="77" y="554"/>
			<point x="77" y="545" type="curve" smooth="yes"/>
			<point x="77" y="512"/>
			<point x="96" y="504"/>
			<point x="127" y="495" type="curve" smooth="yes"/>
			<point x="143" y="491"/>
			<point x="161" y="488"/>
			<point x="183" y="481" type="curve" smooth="yes"/>
			<point x="200" y="476"/>
			<point x="220" y="468"/>
			<point x="243" y="456" type="curve" smooth="yes"/>
			<point x="253" y="451"/>
			<point x="246" y="447"/>
			<point x="241" y="444" type="curve" smooth="yes"/>
			<point x="219" y="431"/>
			<point x="200" y="423"/>
			<point x="183" y="418" type="curve" smooth="yes"/>
			<point x="162" y="411"/>
			<point x="143" y="408"/>
			<point x="128" y="404" type="curve" smooth="yes"/>
			<point x="96" y="397"/>
			<point x="77" y="390"/>
			<point x="77" y="355" type="curve" smooth="yes"/>
			<point x="77" y="339"/>
			<point x="92" y="319"/>
			<point x="114" y="319" type="curve" smooth="yes"/>
			<point x="143" y="319"/>
			<point x="156" y="337"/>
			<point x="172" y="357" type="curve" smooth="yes"/>
			<point x="188" y="377"/>
			<point x="209" y="403"/>
			<point x="250" y="427" type="curve" smooth="yes"/>
			<point x="258" y="432"/>
			<point x="260" y="429"/>
			<point x="260" y="421" type="curve"/>
			<point x="259" y="367"/>
			<point x="252" y="342"/>
			<point x="246" y="324" type="curve"/>
			<point x="242" y="314"/>
			<point x="239" y="306"/>
			<point x="236" y="298" type="curve"/>
			<point x="234" y="291"/>
			<point x="232" y="282"/>
			<point x="232" y="270" type="curve" smooth="yes"/>
			<point x="232" y="246"/>
			<point x="247" y="225"/>
			<point x="272" y="225" type="curve" smooth="yes"/>
			<point x="297" y="225"/>
			<point x="312" y="246"/>
			<point x="312" y="270" type="curve" smooth="yes"/>
			<point x="312" y="282"/>
			<point x="311" y="291"/>
			<point x="308" y="298" type="curve"/>
			<point x="306" y="306"/>
			<point x="303" y="314"/>
			<point x="299" y="324" type="curve"/>
			<point x="293" y="342"/>
			<point x="286" y="367"/>
			<point x="285" y="423" type="curve" smooth="yes"/>
			<point x="285" y="428"/>
			<point x="289" y="430"/>
			<point x="295" y="427" type="curve"/>
			<point x="336" y="402"/>
			<point x="357" y="377"/>
			<point x="373" y="357" type="curve" smooth="yes"/>
			<point x="388" y="337"/>
			<point x="402" y="319"/>
			<point x="430" y="319" type="curve" smooth="yes"/>
			<point x="453" y="319"/>
			<point x="467" y="339"/>
		</contour>
	</outline>
</glyph>
<glyph name="plus" format="2">
	<advance width="698"/>
	<unicode hex="002B"/>
	<outline>
		<contour>
			<point x="630" y="323" type="curve" smooth="yes"/>
			<point x="630" y="354" type="line" smooth="yes"/>
			<point x="630" y="366"/>
			<point x="628" y="371"/>
			<point x="609" y="371" type="curve" smooth="yes"/>
			<point x="393" y="371" type="line" smooth="yes"/>
			<point x="385" y="371"/>
			<point x="382" y="376"/>
			<point x="383" y="381" type="curve"/>
			<point x="383" y="382"/>
			<point x="383" y="598"/>
			<point x="383" y="598" type="curve"/>
			<point x="383" y="619"/>
			<point x="381" y="620"/>
			<point x="369" y="620" type="curve" smooth="yes"/>
			<point x="330" y="620" type="line" smooth="yes"/>
			<point x="317" y="620"/>
			<point x="316" y="607"/>
			<point x="316" y="597" type="curve" smooth="yes"/>
			<point x="316" y="593"/>
			<point x="317" y="589"/>
			<point x="317" y="584" type="curve" smooth="yes"/>
			<point x="317" y="385" type="line" smooth="yes"/>
			<point x="317" y="373"/>
			<point x="315" y="371"/>
			<point x="302" y="371" type="curve" smooth="yes"/>
			<point x="88" y="371" type="line" smooth="yes"/>
			<point x="68" y="371"/>
			<point x="71" y="368"/>
			<point x="71" y="350" type="curve" smooth="yes"/>
			<point x="71" y="323" type="line" smooth="yes"/>
			<point x="71" y="306"/>
			<point x="75" y="305"/>
			<point x="92" y="305" type="curve" smooth="yes"/>
			<point x="303" y="305" type="line" smooth="yes"/>
			<point x="314" y="305"/>
			<point x="317" y="302"/>
			<point x="317" y="292" type="curve" smooth="yes"/>
			<point x="317" y="78" type="line" smooth="yes"/>
			<point x="317" y="65"/>
			<point x="314" y="58"/>
			<point x="332" y="58" type="curve"/>
			<point x="340" y="56"/>
			<point x="352" y="55"/>
			<point x="362" y="58" type="curve"/>
			<point x="382" y="58"/>
			<point x="383" y="58"/>
			<point x="383" y="78" type="curve" smooth="yes"/>
			<point x="383" y="294" type="line" smooth="yes"/>
			<point x="383" y="308"/>
			<point x="386" y="305"/>
			<point x="398" y="305" type="curve" smooth="yes"/>
			<point x="606" y="305" type="line" smooth="yes"/>
			<point x="624" y="305"/>
			<point x="630" y="305"/>
		</contour>
	</outline>
</glyph>
<glyph name="comma" format="2">
  <advance width="251"/>
  <unicode hex="002C"/>
  <outline>
    <contour>
      <point x="190" y="4" type="curve" smooth="yes"/>
      <point x="190" y="50"/>
      <point x="164" y="82"/>
      <point x="124" y="82" type="curve" smooth="yes"/>
      <point x="95" y="82"/>
      <point x="70" y="61"/>
      <point x="70" y="31" type="curve" smooth="yes"/>
      <point x="70" y="-1"/>
      <point x="95" y="-23"/>
      <point x="126" y="-16" type="curve"/>
      <point x="129" y="-15"/>
      <point x="136" y="-13"/>
      <point x="139" y="-15" type="curve"/>
      <point x="142" y="-16"/>
      <point x="143" y="-19"/>
      <point x="143" y="-26" type="curve" smooth="yes"/>
      <point x="143" y="-56"/>
      <point x="121" y="-86"/>
      <point x="76" y="-113" type="curve"/>
      <point x="69" y="-115"/>
      <point x="71" y="-124"/>
      <point x="73" y="-130" type="curve"/>
      <point x="75" y="-132"/>
      <point x="76" y="-135"/>
      <point x="78" y="-137" type="curve" smooth="yes"/>
      <point x="82" y="-141"/>
      <point x="92" y="-139"/>
      <point x="98" y="-136" type="curve" smooth="yes"/>
      <point x="154" y="-110"/>
      <point x="190" y="-52"/>
    </contour>
  </outline>
</glyph>
<glyph name="hyphen" format="2">
	<advance width="435"/>
	<unicode hex="002D"/>
	<outline>
		<contour>
			<point x="396" y="252" type="line"/>
			<point x="396" y="259"/>
			<point x="389" y="268"/>
			<point x="382" y="268" type="curve" smooth="yes"/>
			<point x="277" y="271"/>
			<point x="138" y="266"/>
			<point x="63" y="268" type="curve" smooth="yes"/>
			<point x="56" y="268"/>
			<point x="44" y="263"/>
			<point x="44" y="251" type="curve" smooth="yes"/>
			<point x="44" y="211" type="line"/>
			<point x="45" y="207"/>
			<point x="47" y="199"/>
			<point x="54" y="199" type="curve" smooth="yes"/>
			<point x="176" y="197"/>
			<point x="221" y="203"/>
			<point x="377" y="199" type="curve"/>
			<point x="383" y="200"/>
			<point x="392" y="204"/>
			<point x="394" y="213" type="curve"/>
		</contour>
	</outline>
</glyph>
<glyph name="period" format="2">
	<advance width="204"/>
	<unicode hex="002E"/>
	<outline>
		<contour>
			<point x="184" y="40" type="curve" smooth="yes"/>
			<point x="184" y="74"/>
			<point x="161" y="97"/>
			<point x="126" y="97" type="curve" smooth="yes"/>
			<point x="90" y="97"/>
			<point x="65" y="74"/>
			<point x="65" y="39" type="curve" smooth="yes"/>
			<point x="65" y="6"/>
			<point x="91" y="-18"/>
			<point x="126" y="-18" type="curve" smooth="yes"/>
			<point x="161" y="-18"/>
			<point x="184" y="7"/>
		</contour>
	</outline>
</glyph>
<glyph name="slash" format="2">
	<advance width="479"/>
	<unicode hex="002F"/>
	<outline>
		<contour>
			<point x="450" y="648" type="line"/>
			<point x="461" y="664"/>
			<point x="453" y="675"/>
			<point x="446" y="675" type="curve" smooth="yes"/>
			<point x="396" y="677" type="line" smooth="yes"/>
			<point x="388" y="677"/>
			<point x="382" y="666"/>
			<point x="379" y="661" type="curve"/>
			<point x="264" y="440"/>
			<point x="155" y="226"/>
			<point x="40" y="5" type="curve" smooth="yes"/>
			<point x="23" y="-28"/>
			<point x="80" y="-20"/>
			<point x="91" y="-21" type="curve" smooth="yes"/>
			<point x="103" y="-22"/>
			<point x="108" y="-12"/>
			<point x="113" y="-2" type="curve" smooth="yes"/>
		</contour>
	</outline>
</glyph>
<glyph name="zero.den" format="2">
  <advance width="392"/>
  <unicode hex="0030"/>
  <outline>
    <contour>
      <point x="197" y="-9" type="curve" smooth="yes"/>
      <point x="284" y="-9"/>
      <point x="343" y="74"/>
      <point x="343" y="173" type="curve" smooth="yes"/>
      <point x="343" y="271"/>
      <point x="283" y="354"/>
      <point x="197" y="354" type="curve" smooth="yes"/>
      <point x="110" y="354"/>
      <point x="50" y="271"/>
      <point x="50" y="173" type="curve" smooth="yes"/>
      <point x="50" y="74"/>
      <point x="110" y="-9"/>
    </contour>
    <contour>
      <point x="197" y="318" type="curve" smooth="yes"/>
      <point x="266" y="318"/>
      <point x="271" y="221"/>
      <point x="271" y="173" type="curve" smooth="yes"/>
      <point x="271" y="84"/>
      <point x="255" y="31"/>
      <point x="197" y="31" type="curve" smooth="yes"/>
      <point x="144" y="31"/>
      <point x="122" y="94"/>
      <point x="122" y="173" type="curve" smooth="yes"/>
      <point x="122" y="222"/>
      <point x="125" y="318"/>
    </contour>
  </outline>
</glyph>
<glyph name="zero" format="2">
  <advance width="489"/>
  <unicode hex="0030"/>
  <outline>
    <contour>
      <point x="461" y="218" type="curve" smooth="yes"/>
      <point x="461" y="356"/>
      <point x="375" y="455"/>
      <point x="250" y="455" type="curve" smooth="yes"/>
      <point x="127" y="455"/>
      <point x="40" y="355"/>
      <point x="40" y="215" type="curve" smooth="yes"/>
      <point x="40" y="83"/>
      <point x="128" y="-14"/>
      <point x="249" y="-14" type="curve" smooth="yes"/>
      <point x="375" y="-14"/>
      <point x="461" y="82"/>
    </contour>
    <contour>
      <point x="391" y="220" type="curve" smooth="yes"/>
      <point x="391" y="103"/>
      <point x="337" y="35"/>
      <point x="249" y="35" type="curve" smooth="yes"/>
      <point x="164" y="35"/>
      <point x="111" y="104"/>
      <point x="111" y="221" type="curve" smooth="yes"/>
      <point x="111" y="337"/>
      <point x="165" y="408"/>
      <point x="248" y="408" type="curve" smooth="yes"/>
      <point x="338" y="408"/>
      <point x="391" y="340"/>
    </contour>
  </outline>
</glyph>
<glyph name="one" format="2">
  <advance width="386"/>
  <unicode hex="0031"/>
  <outline>
    <contour>
      <point x="333" y="36" type="curve"/>
      <point x="322" y="38"/>
      <point x="312" y="36"/>
      <point x="301" y="37" type="curve" smooth="yes"/>
      <point x="289" y="38"/>
      <point x="280" y="38"/>
      <point x="273" y="40" type="curve"/>
      <point x="265" y="41"/>
      <point x="260" y="42"/>
      <point x="256" y="45" type="curve"/>
      <point x="249" y="51"/>
      <point x="248" y="63"/>
      <point x="248" y="86" type="curve" smooth="yes"/>
      <point x="248" y="438" type="line" smooth="yes"/>
      <point x="248" y="451"/>
      <point x="209" y="445"/>
      <point x="205" y="442" type="curve"/>
      <point x="179" y="406"/>
      <point x="133" y="366"/>
      <point x="97" y="341" type="curve" smooth="yes"/>
      <point x="82" y="331"/>
      <point x="72" y="325"/>
      <point x="54" y="313" type="curve"/>
      <point x="48" y="308"/>
      <point x="58" y="282"/>
      <point x="68" y="287" type="curve" smooth="yes"/>
      <point x="88" y="297"/>
      <point x="104" y="303"/>
      <point x="125" y="314" type="curve" smooth="yes"/>
      <point x="139" y="321"/>
      <point x="152" y="328"/>
      <point x="165" y="338" type="curve"/>
      <point x="168" y="340"/>
      <point x="170" y="338"/>
      <point x="171" y="332" type="curve" smooth="yes"/>
      <point x="172" y="327"/>
      <point x="172" y="320"/>
      <point x="173" y="315" type="curve"/>
      <point x="173" y="83" type="line" smooth="yes"/>
      <point x="173" y="59"/>
      <point x="165" y="48"/>
      <point x="152" y="42" type="curve" smooth="yes"/>
      <point x="146" y="39"/>
      <point x="138" y="38"/>
      <point x="130" y="38" type="curve"/>
      <point x="121" y="36"/>
      <point x="111" y="37"/>
      <point x="101" y="37" type="curve"/>
      <point x="97" y="38"/>
      <point x="89" y="38"/>
      <point x="83" y="35" type="curve" smooth="yes"/>
      <point x="72" y="29"/>
      <point x="74" y="-6"/>
      <point x="86" y="-4" type="curve"/>
      <point x="148" y="-2"/>
      <point x="251" y="-3"/>
      <point x="332" y="-4" type="curve" smooth="yes"/>
      <point x="345" y="-4"/>
      <point x="344" y="33"/>
    </contour>
  </outline>
</glyph>
<glyph name="two" format="2">
	<advance width="489"/>
	<unicode hex="0032"/>
	<outline>
		<contour>
			<point x="439" y="150" type="line"/>
			<point x="440" y="156"/>
			<point x="434" y="159"/>
			<point x="428" y="160" type="curve" smooth="yes"/>
			<point x="422" y="161"/>
			<point x="415" y="160"/>
			<point x="411" y="156" type="curve"/>
			<point x="400" y="127"/>
			<point x="390" y="107"/>
			<point x="382" y="93" type="curve" smooth="yes"/>
			<point x="371" y="73"/>
			<point x="364" y="71"/>
			<point x="339" y="70" type="curve" smooth="yes"/>
			<point x="284" y="68"/>
			<point x="229" y="69"/>
			<point x="175" y="69" type="curve" smooth="yes"/>
			<point x="171" y="69"/>
			<point x="167" y="71"/>
			<point x="166" y="73" type="curve"/>
			<point x="164" y="76"/>
			<point x="164" y="78"/>
			<point x="166" y="80" type="curve"/>
			<point x="247" y="137"/>
			<point x="383" y="234"/>
			<point x="383" y="338" type="curve" smooth="yes"/>
			<point x="383" y="404"/>
			<point x="321" y="455"/>
			<point x="245" y="455" type="curve" smooth="yes"/>
			<point x="178" y="455"/>
			<point x="129" y="428"/>
			<point x="68" y="359" type="curve"/>
			<point x="60" y="342"/>
			<point x="86" y="337"/>
			<point x="90" y="341" type="curve" smooth="yes"/>
			<point x="134" y="381"/>
			<point x="167" y="396"/>
			<point x="206" y="396" type="curve" smooth="yes"/>
			<point x="263" y="396"/>
			<point x="304" y="356"/>
			<point x="304" y="299" type="curve" smooth="yes"/>
			<point x="304" y="257"/>
			<point x="281" y="219"/>
			<point x="219" y="164" type="curve" smooth="yes"/>
			<point x="168" y="119"/>
			<point x="120" y="82"/>
			<point x="36" y="24" type="curve"/>
			<point x="32" y="19"/>
			<point x="30" y="0"/>
			<point x="38" y="-4" type="curve"/>
			<point x="369" y="-4" type="line" smooth="yes"/>
			<point x="372" y="-4"/>
			<point x="375" y="-4"/>
			<point x="378" y="-4" type="curve" smooth="yes"/>
			<point x="388" y="-4"/>
			<point x="402" y="-2"/>
			<point x="405" y="10" type="curve" smooth="yes"/>
		</contour>
	</outline>
</glyph>
<glyph name="three" format="2">
	<advance width="436"/>
	<unicode hex="0033"/>
	<outline>
		<contour>
			<point x="344" y="37" type="curve" smooth="yes"/>
			<point x="344" y="94"/>
			<point x="324" y="142"/>
			<point x="290" y="171" type="curve" smooth="yes"/>
			<point x="281" y="178"/>
			<point x="263" y="187"/>
			<point x="249" y="189" type="curve" smooth="yes"/>
			<point x="240" y="190"/>
			<point x="248" y="198"/>
			<point x="251" y="200" type="curve"/>
			<point x="312" y="246"/>
			<point x="331" y="286"/>
			<point x="331" y="336" type="curve" smooth="yes"/>
			<point x="331" y="405"/>
			<point x="283" y="458"/>
			<point x="218" y="458" type="curve" smooth="yes"/>
			<point x="159" y="458"/>
			<point x="107" y="420"/>
			<point x="74" y="355" type="curve"/>
			<point x="70" y="341"/>
			<point x="87" y="329"/>
			<point x="94" y="337" type="curve" smooth="yes"/>
			<point x="131" y="379"/>
			<point x="156" y="392"/>
			<point x="189" y="392" type="curve" smooth="yes"/>
			<point x="230" y="392"/>
			<point x="256" y="361"/>
			<point x="256" y="312" type="curve" smooth="yes"/>
			<point x="256" y="254"/>
			<point x="217" y="199"/>
			<point x="131" y="146" type="curve" smooth="yes"/>
			<point x="124" y="142"/>
			<point x="126" y="116"/>
			<point x="141" y="120" type="curve" smooth="yes"/>
			<point x="174" y="129"/>
			<point x="200" y="130"/>
			<point x="227" y="106" type="curve" smooth="yes"/>
			<point x="256" y="81"/>
			<point x="268" y="49"/>
			<point x="268" y="-16" type="curve" smooth="yes"/>
			<point x="268" y="-89"/>
			<point x="238" y="-135"/>
			<point x="201" y="-135" type="curve" smooth="yes"/>
			<point x="183" y="-135"/>
			<point x="167" y="-129"/>
			<point x="135" y="-105" type="curve"/>
			<point x="129" y="-101"/>
			<point x="124" y="-96"/>
			<point x="118" y="-92" type="curve"/>
			<point x="94" y="-78"/>
			<point x="60" y="-92"/>
			<point x="60" y="-123" type="curve" smooth="yes"/>
			<point x="60" y="-160"/>
			<point x="96" y="-178"/>
			<point x="153" y="-178" type="curve" smooth="yes"/>
			<point x="262" y="-178"/>
			<point x="344" y="-85"/>
		</contour>
	</outline>
</glyph>
<glyph name="three.lining" format="2">
  <advance width="489"/>
  <unicode hex="0033"/>
  <outline>
    <contour>
      <point x="443" y="220" type="curve" smooth="yes"/>
      <point x="443" y="303"/>
      <point x="399" y="372"/>
      <point x="329" y="387" type="curve" smooth="yes"/>
      <point x="323" y="388"/>
      <point x="319" y="396"/>
      <point x="329" y="405" type="curve" smooth="yes"/>
      <point x="371" y="440"/>
      <point x="394" y="481"/>
      <point x="394" y="523" type="curve" smooth="yes"/>
      <point x="394" y="591"/>
      <point x="335" y="640"/>
      <point x="259" y="640" type="curve" smooth="yes"/>
      <point x="182" y="640"/>
      <point x="111" y="588"/>
      <point x="73" y="501" type="curve" smooth="yes"/>
      <point x="69" y="492"/>
      <point x="73" y="486"/>
      <point x="82" y="482" type="curve"/>
      <point x="89" y="480"/>
      <point x="99" y="478"/>
      <point x="103" y="486" type="curve" smooth="yes"/>
      <point x="134" y="542"/>
      <point x="182" y="575"/>
      <point x="226" y="575" type="curve" smooth="yes"/>
      <point x="275" y="575"/>
      <point x="314" y="537"/>
      <point x="314" y="491" type="curve" smooth="yes"/>
      <point x="314" y="464"/>
      <point x="302" y="437"/>
      <point x="269" y="403" type="curve" smooth="yes"/>
      <point x="243" y="376"/>
      <point x="217" y="355"/>
      <point x="188" y="334" type="curve"/>
      <point x="184" y="330"/>
      <point x="180" y="319"/>
      <point x="185" y="312" type="curve" smooth="yes"/>
      <point x="190" y="305"/>
      <point x="203" y="304"/>
      <point x="210" y="309" type="curve" smooth="yes"/>
      <point x="230" y="323"/>
      <point x="248" y="325"/>
      <point x="265" y="325" type="curve" smooth="yes"/>
      <point x="319" y="325"/>
      <point x="355" y="271"/>
      <point x="355" y="195" type="curve" smooth="yes"/>
      <point x="355" y="100"/>
      <point x="301" y="25"/>
      <point x="230" y="25" type="curve" smooth="yes"/>
      <point x="202" y="25"/>
      <point x="184" y="31"/>
      <point x="143" y="65" type="curve" smooth="yes"/>
      <point x="126" y="79"/>
      <point x="103" y="100"/>
      <point x="80" y="100" type="curve" smooth="yes"/>
      <point x="59" y="100"/>
      <point x="41" y="81"/>
      <point x="41" y="60" type="curve" smooth="yes"/>
      <point x="41" y="14"/>
      <point x="119" y="-18"/>
      <point x="197" y="-18" type="curve" smooth="yes"/>
      <point x="332" y="-18"/>
      <point x="443" y="94"/>
    </contour>
  </outline>
</glyph>
<glyph name="four" format="2">
  <advance width="489"/>
  <unicode hex="0034"/>
  <outline>
    <contour>
      <point x="457" y="12" type="curve" smooth="yes"/>
      <point x="457" y="20"/>
      <point x="457" y="44"/>
      <point x="456" y="50" type="curve"/>
      <point x="453" y="63"/>
      <point x="444" y="59"/>
      <point x="435" y="61" type="curve"/>
      <point x="353" y="59" type="line"/>
      <point x="344" y="63"/>
      <point x="341" y="66"/>
      <point x="339" y="76" type="curve"/>
      <point x="339" y="447" type="line" smooth="yes"/>
      <point x="339" y="453"/>
      <point x="334" y="455"/>
      <point x="329" y="457" type="curve"/>
      <point x="321" y="458"/>
      <point x="312" y="454"/>
      <point x="308" y="449" type="curve"/>
      <point x="29" y="27" type="line" smooth="yes"/>
      <point x="23" y="18"/>
      <point x="27" y="1"/>
      <point x="32" y="0" type="curve"/>
      <point x="86" y="-2"/>
      <point x="193" y="-3"/>
      <point x="247" y="0" type="curve"/>
      <point x="256" y="1"/>
      <point x="256" y="-12"/>
      <point x="257" y="-19" type="curve"/>
      <point x="254" y="-63"/>
      <point x="256" y="-119"/>
      <point x="258" y="-161" type="curve" smooth="yes"/>
      <point x="258" y="-166"/>
      <point x="264" y="-179"/>
      <point x="272" y="-178" type="curve"/>
      <point x="323" y="-178" type="line" smooth="yes"/>
      <point x="337" y="-178"/>
      <point x="339" y="-168"/>
      <point x="339" y="-159" type="curve" smooth="yes"/>
      <point x="340" y="-127"/>
      <point x="341" y="-64"/>
      <point x="339" y="-13" type="curve" smooth="yes"/>
      <point x="339" y="-8"/>
      <point x="349" y="0"/>
      <point x="353" y="0" type="curve" smooth="yes"/>
      <point x="440" y="-1" type="line"/>
      <point x="443" y="-2"/>
      <point x="457" y="4"/>
    </contour>
    <contour>
      <point x="258" y="69" type="curve"/>
      <point x="250" y="58"/>
      <point x="253" y="60"/>
      <point x="239" y="59" type="curve" smooth="yes"/>
      <point x="201" y="58"/>
      <point x="141" y="58"/>
      <point x="108" y="59" type="curve" smooth="yes"/>
      <point x="102" y="59"/>
      <point x="99" y="67"/>
      <point x="103" y="74" type="curve"/>
      <point x="251" y="301" type="line" smooth="yes"/>
      <point x="256" y="309"/>
      <point x="259" y="291"/>
      <point x="258" y="288" type="curve"/>
      <point x="255" y="223"/>
      <point x="257" y="125"/>
    </contour>
  </outline>
</glyph>
<glyph name="four.lining" format="2">
  <advance width="489"/>
  <unicode hex="0034"/>
  <outline>
    <contour>
      <point x="469" y="228" type="curve"/>
      <point x="465" y="243"/>
      <point x="460" y="241"/>
      <point x="451" y="243" type="curve"/>
      <point x="383" y="241" type="line"/>
      <point x="380" y="243"/>
      <point x="369" y="247"/>
      <point x="369" y="259" type="curve" smooth="yes"/>
      <point x="369" y="610" type="line"/>
      <point x="371" y="621"/>
      <point x="370" y="635"/>
      <point x="352" y="640" type="curve"/>
      <point x="349" y="640" type="line" smooth="yes"/>
      <point x="332" y="640"/>
      <point x="329" y="637"/>
      <point x="320" y="625" type="curve" smooth="yes"/>
      <point x="191" y="447"/>
      <point x="74" y="267"/>
      <point x="37" y="208" type="curve"/>
      <point x="37" y="191" type="line" smooth="yes"/>
      <point x="37" y="183"/>
      <point x="40" y="176"/>
      <point x="54" y="175" type="curve" smooth="yes"/>
      <point x="120" y="172"/>
      <point x="224" y="171"/>
      <point x="276" y="175" type="curve"/>
      <point x="284" y="173"/>
      <point x="287" y="172"/>
      <point x="290" y="153" type="curve"/>
      <point x="288" y="114"/>
      <point x="289" y="41"/>
      <point x="290" y="6" type="curve" smooth="yes"/>
      <point x="290" y="-6"/>
      <point x="297" y="-17"/>
      <point x="310" y="-17" type="curve"/>
      <point x="325" y="-16"/>
      <point x="346" y="-17"/>
      <point x="352" y="-18" type="curve"/>
      <point x="367" y="-17"/>
      <point x="371" y="-2"/>
      <point x="371" y="5" type="curve"/>
      <point x="373" y="43"/>
      <point x="371" y="108"/>
      <point x="369" y="155" type="curve" smooth="yes"/>
      <point x="368" y="176"/>
      <point x="385" y="176"/>
      <point x="385" y="176" type="curve"/>
      <point x="453" y="179" type="line"/>
      <point x="459" y="180"/>
      <point x="466" y="183"/>
      <point x="468" y="192" type="curve"/>
      <point x="467" y="198"/>
      <point x="473" y="218"/>
    </contour>
    <contour>
      <point x="290" y="258" type="curve" smooth="yes"/>
      <point x="289" y="244"/>
      <point x="278" y="240"/>
      <point x="274" y="239" type="curve"/>
      <point x="226" y="237"/>
      <point x="168" y="236"/>
      <point x="132" y="239" type="curve" smooth="yes"/>
      <point x="116" y="241"/>
      <point x="111" y="248"/>
      <point x="113" y="253" type="curve"/>
      <point x="132" y="288"/>
      <point x="214" y="414"/>
      <point x="276" y="497" type="curve"/>
      <point x="285" y="504"/>
      <point x="287" y="499"/>
      <point x="290" y="481" type="curve"/>
      <point x="292" y="412"/>
      <point x="292" y="313"/>
    </contour>
  </outline>
</glyph>
<glyph name="five" format="2">
	<advance width="449"/>
	<unicode hex="0035"/>
	<outline>
		<contour>
			<point x="379" y="424" type="curve"/>
			<point x="380" y="432"/>
			<point x="381" y="439"/>
			<point x="362" y="441" type="curve" smooth="yes"/>
			<point x="248" y="454" type="line" smooth="yes"/>
			<point x="241" y="455"/>
			<point x="239" y="454"/>
			<point x="234" y="448" type="curve"/>
			<point x="195" y="406"/>
			<point x="125" y="318"/>
			<point x="92" y="272" type="curve" smooth="yes"/>
			<point x="90" y="269"/>
			<point x="83" y="258"/>
			<point x="92" y="252" type="curve" smooth="yes"/>
			<point x="177" y="199"/>
			<point x="295" y="117"/>
			<point x="295" y="9" type="curve" smooth="yes"/>
			<point x="295" y="-63"/>
			<point x="245" y="-123"/>
			<point x="190" y="-123" type="curve" smooth="yes"/>
			<point x="177" y="-123"/>
			<point x="159" y="-118"/>
			<point x="116" y="-103" type="curve" smooth="yes"/>
			<point x="106" y="-99"/>
			<point x="97" y="-97"/>
			<point x="90" y="-97" type="curve" smooth="yes"/>
			<point x="70" y="-97"/>
			<point x="54" y="-115"/>
			<point x="54" y="-136" type="curve" smooth="yes"/>
			<point x="54" y="-162"/>
			<point x="76" y="-177"/>
			<point x="107" y="-177" type="curve" smooth="yes"/>
			<point x="158" y="-177"/>
			<point x="215" y="-159"/>
			<point x="263" y="-128" type="curve" smooth="yes"/>
			<point x="328" y="-86"/>
			<point x="364" y="-26"/>
			<point x="364" y="41" type="curve" smooth="yes"/>
			<point x="364" y="102"/>
			<point x="331" y="168"/>
			<point x="273" y="223" type="curve" smooth="yes"/>
			<point x="240" y="254"/>
			<point x="229" y="265"/>
			<point x="179" y="296" type="curve" smooth="yes"/>
			<point x="162" y="306"/>
			<point x="168" y="310"/>
			<point x="178" y="323" type="curve" smooth="yes"/>
			<point x="217" y="371" type="line" smooth="yes"/>
			<point x="223" y="379"/>
			<point x="226" y="379"/>
			<point x="235" y="378" type="curve" smooth="yes"/>
			<point x="329" y="366" type="line"/>
			<point x="337" y="366"/>
			<point x="340" y="367"/>
			<point x="346" y="373" type="curve" smooth="yes"/>
			<point x="351" y="378"/>
			<point x="376" y="411"/>
		</contour>
	</outline>
</glyph>
<glyph name="five.lining" format="2">
  <advance width="489"/>
  <unicode hex="0035"/>
  <outline>
    <contour>
      <point x="422" y="204" type="curve" smooth="yes"/>
      <point x="422" y="319"/>
      <point x="338" y="409"/>
      <point x="224" y="409" type="curve" smooth="yes"/>
      <point x="196" y="409"/>
      <point x="179" y="406"/>
      <point x="157" y="398" type="curve"/>
      <point x="149" y="394"/>
      <point x="141" y="397"/>
      <point x="142" y="406" type="curve"/>
      <point x="149" y="531" type="line"/>
      <point x="152" y="542"/>
      <point x="163" y="547"/>
      <point x="170" y="549" type="curve"/>
      <point x="342" y="546" type="line"/>
      <point x="367" y="548"/>
      <point x="371" y="553"/>
      <point x="376" y="565" type="curve"/>
      <point x="384" y="621" type="line" smooth="yes"/>
      <point x="386" y="632"/>
      <point x="383" y="636"/>
      <point x="377" y="640" type="curve"/>
      <point x="366" y="640" type="line" smooth="yes"/>
      <point x="362" y="640"/>
      <point x="356" y="638"/>
      <point x="353" y="634" type="curve"/>
      <point x="343" y="622"/>
      <point x="327" y="625"/>
      <point x="300" y="625" type="curve" smooth="yes"/>
      <point x="157" y="627" type="line" smooth="yes"/>
      <point x="142" y="627"/>
      <point x="114" y="624"/>
      <point x="112" y="603" type="curve" smooth="yes"/>
      <point x="91" y="321" type="line" smooth="yes"/>
      <point x="90" y="307"/>
      <point x="91" y="304"/>
      <point x="100" y="298" type="curve" smooth="yes"/>
      <point x="107" y="293"/>
      <point x="115" y="299"/>
      <point x="120" y="302" type="curve"/>
      <point x="148" y="321"/>
      <point x="176" y="329"/>
      <point x="206" y="329" type="curve" smooth="yes"/>
      <point x="285" y="329"/>
      <point x="334" y="269"/>
      <point x="334" y="181" type="curve" smooth="yes"/>
      <point x="334" y="93"/>
      <point x="285" y="21"/>
      <point x="218" y="21" type="curve" smooth="yes"/>
      <point x="202" y="21"/>
      <point x="193" y="24"/>
      <point x="180" y="35" type="curve" smooth="yes"/>
      <point x="157" y="55"/>
      <point x="128" y="90"/>
      <point x="95" y="90" type="curve" smooth="yes"/>
      <point x="73" y="90"/>
      <point x="55" y="72"/>
      <point x="55" y="50" type="curve" smooth="yes"/>
      <point x="55" y="8"/>
      <point x="118" y="-18"/>
      <point x="196" y="-18" type="curve" smooth="yes"/>
      <point x="329" y="-18"/>
      <point x="422" y="80"/>
    </contour>
  </outline>
</glyph>
<glyph name="five.num" format="2">
  <advance width="349"/>
  <unicode hex="0035"/>
  <outline>
    <contour>
      <point x="141" y="302" type="curve" smooth="yes"/>
      <point x="234" y="302"/>
      <point x="297" y="353"/>
      <point x="297" y="422" type="curve" smooth="yes"/>
      <point x="297" y="487"/>
      <point x="249" y="534"/>
      <point x="168" y="534" type="curve" smooth="yes"/>
      <point x="148" y="534"/>
      <point x="127" y="527"/>
      <point x="112" y="522" type="curve"/>
      <point x="106" y="521"/>
      <point x="105" y="533"/>
      <point x="105" y="534" type="curve" smooth="yes"/>
      <point x="106" y="573" type="line"/>
      <point x="108" y="579"/>
      <point x="113" y="584"/>
      <point x="118" y="585" type="curve"/>
      <point x="258" y="583" type="line" smooth="yes"/>
      <point x="273" y="583"/>
      <point x="273" y="588"/>
      <point x="277" y="596" type="curve"/>
      <point x="283" y="644" type="line" smooth="yes"/>
      <point x="284" y="652"/>
      <point x="284" y="659"/>
      <point x="278" y="662" type="curve"/>
      <point x="268" y="662" type="line" smooth="yes"/>
      <point x="265" y="662"/>
      <point x="262" y="661"/>
      <point x="258" y="658" type="curve"/>
      <point x="255" y="655"/>
      <point x="250" y="650"/>
      <point x="244" y="650" type="curve" smooth="yes"/>
      <point x="238" y="650"/>
      <point x="223" y="651"/>
      <point x="214" y="650" type="curve"/>
      <point x="179" y="649"/>
      <point x="125" y="650"/>
      <point x="103" y="651" type="curve" smooth="yes"/>
      <point x="91" y="652"/>
      <point x="71" y="654"/>
      <point x="67" y="637" type="curve"/>
      <point x="69" y="596"/>
      <point x="66" y="518"/>
      <point x="61" y="469" type="curve"/>
      <point x="61" y="460"/>
      <point x="62" y="458"/>
      <point x="69" y="454" type="curve" smooth="yes"/>
      <point x="74" y="451"/>
      <point x="79" y="452"/>
      <point x="83" y="454" type="curve" smooth="yes"/>
      <point x="106" y="465"/>
      <point x="123" y="472"/>
      <point x="147" y="472" type="curve" smooth="yes"/>
      <point x="202" y="472"/>
      <point x="230" y="454"/>
      <point x="230" y="408" type="curve" smooth="yes"/>
      <point x="230" y="361"/>
      <point x="204" y="335"/>
      <point x="159" y="335" type="curve" smooth="yes"/>
      <point x="148" y="335"/>
      <point x="139" y="338"/>
      <point x="131" y="344" type="curve" smooth="yes"/>
      <point x="113" y="357"/>
      <point x="94" y="386"/>
      <point x="70" y="386" type="curve" smooth="yes"/>
      <point x="54" y="386"/>
      <point x="38" y="368"/>
      <point x="38" y="354" type="curve" smooth="yes"/>
      <point x="38" y="327"/>
      <point x="87" y="302"/>
    </contour>
  </outline>
</glyph>
<glyph name="six.den" format="2">
  <advance width="349"/>
  <unicode hex="0036"/>
  <outline>
    <contour>
      <point x="179" y="-8" type="curve" smooth="yes"/>
      <point x="257" y="-8"/>
      <point x="302" y="44"/>
      <point x="302" y="108" type="curve" smooth="yes"/>
      <point x="302" y="167"/>
      <point x="261" y="219"/>
      <point x="189" y="219" type="curve" smooth="yes"/>
      <point x="176" y="219"/>
      <point x="162" y="219"/>
      <point x="149" y="214" type="curve"/>
      <point x="133" y="209"/>
      <point x="129" y="211"/>
      <point x="133" y="223" type="curve" smooth="yes"/>
      <point x="147" y="268"/>
      <point x="183" y="299"/>
      <point x="241" y="319" type="curve" smooth="yes"/>
      <point x="247" y="321"/>
      <point x="253" y="327"/>
      <point x="249" y="336" type="curve" smooth="yes"/>
      <point x="243" y="349" type="line" smooth="yes"/>
      <point x="240" y="356"/>
      <point x="229" y="355"/>
      <point x="223" y="353" type="curve"/>
      <point x="83" y="320"/>
      <point x="48" y="207"/>
      <point x="48" y="134" type="curve" smooth="yes"/>
      <point x="48" y="50"/>
      <point x="100" y="-8"/>
    </contour>
    <contour>
      <point x="186" y="182" type="curve" smooth="yes"/>
      <point x="219" y="179"/>
      <point x="231" y="144"/>
      <point x="235" y="103" type="curve" smooth="yes"/>
      <point x="240" y="58"/>
      <point x="216" y="29"/>
      <point x="182" y="29" type="curve" smooth="yes"/>
      <point x="140" y="29"/>
      <point x="121" y="78"/>
      <point x="121" y="119" type="curve" smooth="yes"/>
      <point x="121" y="133"/>
      <point x="122" y="150"/>
      <point x="128" y="159" type="curve" smooth="yes"/>
      <point x="139" y="177"/>
      <point x="162" y="185"/>
    </contour>
  </outline>
</glyph>
<glyph name="six" format="2">
	<advance width="502"/>
	<unicode hex="0036"/>
	<outline>
		<contour>
			<point x="452" y="197" type="curve" smooth="yes"/>
			<point x="452" y="314"/>
			<point x="371" y="395"/>
			<point x="255" y="395" type="curve" smooth="yes"/>
			<point x="243" y="395"/>
			<point x="236" y="395"/>
			<point x="228" y="394" type="curve"/>
			<point x="221" y="394"/>
			<point x="213" y="392"/>
			<point x="201" y="389" type="curve" smooth="yes"/>
			<point x="196" y="388"/>
			<point x="189" y="392"/>
			<point x="194" y="399" type="curve" smooth="yes"/>
			<point x="261" y="493"/>
			<point x="334" y="542"/>
			<point x="442" y="590" type="curve"/>
			<point x="456" y="609"/>
			<point x="441" y="621"/>
			<point x="417" y="614" type="curve" smooth="yes"/>
			<point x="243" y="559"/>
			<point x="48" y="430"/>
			<point x="48" y="220" type="curve" smooth="yes"/>
			<point x="48" y="86"/>
			<point x="136" y="-14"/>
			<point x="255" y="-14" type="curve" smooth="yes"/>
			<point x="367" y="-14"/>
			<point x="452" y="77"/>
		</contour>
		<contour>
			<point x="366" y="181" type="curve" smooth="yes"/>
			<point x="366" y="116"/>
			<point x="352" y="72"/>
			<point x="324" y="44" type="curve" smooth="yes"/>
			<point x="305" y="25"/>
			<point x="279" y="15"/>
			<point x="252" y="15" type="curve" smooth="yes"/>
			<point x="181" y="15"/>
			<point x="135" y="82"/>
			<point x="135" y="197" type="curve" smooth="yes"/>
			<point x="135" y="252"/>
			<point x="141" y="282"/>
			<point x="168" y="348" type="curve"/>
			<point x="203" y="364"/>
			<point x="219" y="368"/>
			<point x="242" y="368" type="curve" smooth="yes"/>
			<point x="320" y="368"/>
			<point x="366" y="301"/>
		</contour>
	</outline>
</glyph>
<glyph name="six.num" format="2">
  <advance width="349"/>
  <unicode hex="0036"/>
  <outline>
    <contour>
      <point x="179" y="297" type="curve" smooth="yes"/>
      <point x="257" y="297"/>
      <point x="302" y="349"/>
      <point x="302" y="413" type="curve" smooth="yes"/>
      <point x="302" y="472"/>
      <point x="261" y="525"/>
      <point x="189" y="525" type="curve" smooth="yes"/>
      <point x="176" y="525"/>
      <point x="162" y="524"/>
      <point x="149" y="520" type="curve" smooth="yes"/>
      <point x="133" y="515"/>
      <point x="129" y="516"/>
      <point x="133" y="529" type="curve" smooth="yes"/>
      <point x="147" y="573"/>
      <point x="183" y="605"/>
      <point x="241" y="625" type="curve" smooth="yes"/>
      <point x="247" y="627"/>
      <point x="253" y="633"/>
      <point x="249" y="642" type="curve" smooth="yes"/>
      <point x="243" y="655" type="line" smooth="yes"/>
      <point x="240" y="662"/>
      <point x="229" y="660"/>
      <point x="223" y="659" type="curve"/>
      <point x="83" y="625"/>
      <point x="48" y="512"/>
      <point x="48" y="440" type="curve" smooth="yes"/>
      <point x="48" y="355"/>
      <point x="100" y="297"/>
    </contour>
    <contour>
      <point x="186" y="488" type="curve" smooth="yes"/>
      <point x="219" y="484"/>
      <point x="231" y="449"/>
      <point x="235" y="409" type="curve" smooth="yes"/>
      <point x="240" y="363"/>
      <point x="216" y="335"/>
      <point x="182" y="335" type="curve" smooth="yes"/>
      <point x="140" y="335"/>
      <point x="121" y="383"/>
      <point x="121" y="425" type="curve" smooth="yes"/>
      <point x="121" y="438"/>
      <point x="122" y="455"/>
      <point x="128" y="465" type="curve" smooth="yes"/>
      <point x="139" y="482"/>
      <point x="162" y="491"/>
    </contour>
  </outline>
</glyph>
<glyph name="seven" format="2">
  <advance width="489"/>
  <unicode hex="0037"/>
  <outline>
    <contour>
      <point x="438" y="418" type="curve"/>
      <point x="438" y="434" type="line"/>
      <point x="435" y="440"/>
      <point x="423" y="442"/>
      <point x="416" y="442" type="curve" smooth="yes"/>
      <point x="335" y="445"/>
      <point x="174" y="445"/>
      <point x="93" y="442" type="curve" smooth="yes"/>
      <point x="85" y="442"/>
      <point x="68" y="439"/>
      <point x="62" y="425" type="curve"/>
      <point x="42" y="274" type="line" smooth="yes"/>
      <point x="41" y="264"/>
      <point x="66" y="261"/>
      <point x="70" y="267" type="curve"/>
      <point x="83" y="317" type="line" smooth="yes"/>
      <point x="95" y="364"/>
      <point x="111" y="370"/>
      <point x="136" y="369" type="curve" smooth="yes"/>
      <point x="196" y="368"/>
      <point x="294" y="366"/>
      <point x="343" y="369" type="curve"/>
      <point x="348" y="369"/>
      <point x="366" y="368"/>
      <point x="363" y="360" type="curve"/>
      <point x="133" y="-157" type="line" smooth="yes"/>
      <point x="128" y="-167"/>
      <point x="138" y="-175"/>
      <point x="146" y="-176" type="curve"/>
      <point x="177" y="-177" type="line"/>
      <point x="184" y="-178"/>
      <point x="189" y="-173"/>
      <point x="192" y="-165" type="curve"/>
      <point x="241" y="-65"/>
      <point x="346" y="178"/>
    </contour>
  </outline>
</glyph>
<glyph name="seven.lining" format="2">
  <advance width="489"/>
  <unicode hex="0037"/>
  <outline>
    <contour>
      <point x="423" y="602" type="line" smooth="yes"/>
      <point x="425" y="614"/>
      <point x="411" y="624"/>
      <point x="397" y="624" type="curve" smooth="yes"/>
      <point x="267" y="620"/>
      <point x="158" y="621"/>
      <point x="74" y="624" type="curve"/>
      <point x="60" y="626"/>
      <point x="39" y="605"/>
      <point x="38" y="592" type="curve" smooth="yes"/>
      <point x="33" y="501" type="line"/>
      <point x="33" y="495"/>
      <point x="37" y="489"/>
      <point x="47" y="489" type="curve" smooth="yes"/>
      <point x="56" y="489"/>
      <point x="62" y="493"/>
      <point x="63" y="497" type="curve"/>
      <point x="68" y="526"/>
      <point x="72" y="535"/>
      <point x="77" y="539" type="curve"/>
      <point x="82" y="544"/>
      <point x="86" y="545"/>
      <point x="130" y="544" type="curve" smooth="yes"/>
      <point x="165" y="544"/>
      <point x="224" y="542"/>
      <point x="321" y="546" type="curve" smooth="yes"/>
      <point x="336" y="547"/>
      <point x="344" y="533"/>
      <point x="341" y="526" type="curve" smooth="yes"/>
      <point x="119" y="10" type="line" smooth="yes"/>
      <point x="114" y="-1"/>
      <point x="117" y="-11"/>
      <point x="129" y="-13" type="curve" smooth="yes"/>
      <point x="162" y="-18" type="line" smooth="yes"/>
      <point x="175" y="-20"/>
      <point x="184" y="-11"/>
      <point x="187" y="-3" type="curve" smooth="yes"/>
      <point x="421" y="587" type="line"/>
    </contour>
  </outline>
</glyph>
<glyph name="eight.den" format="2">
  <advance width="332"/>
  <unicode hex="0038"/>
  <outline>
    <contour>
      <point x="240" y="187" type="curve" smooth="yes"/>
      <point x="231" y="192"/>
      <point x="232" y="196"/>
      <point x="237" y="199" type="curve"/>
      <point x="271" y="217"/>
      <point x="286" y="240"/>
      <point x="286" y="271" type="curve" smooth="yes"/>
      <point x="286" y="321"/>
      <point x="235" y="356"/>
      <point x="168" y="356" type="curve" smooth="yes"/>
      <point x="101" y="356"/>
      <point x="36" y="316"/>
      <point x="36" y="261" type="curve" smooth="yes"/>
      <point x="36" y="229"/>
      <point x="50" y="205"/>
      <point x="85" y="185" type="curve"/>
      <point x="91" y="182"/>
      <point x="99" y="176"/>
      <point x="87" y="170" type="curve" smooth="yes"/>
      <point x="48" y="151"/>
      <point x="30" y="126"/>
      <point x="30" y="83" type="curve" smooth="yes"/>
      <point x="30" y="28"/>
      <point x="97" y="-7"/>
      <point x="169" y="-7" type="curve" smooth="yes"/>
      <point x="244" y="-7"/>
      <point x="308" y="39"/>
      <point x="308" y="100" type="curve" smooth="yes"/>
      <point x="308" y="138"/>
      <point x="284" y="165"/>
    </contour>
    <contour>
      <point x="167" y="328" type="curve" smooth="yes"/>
      <point x="204" y="328"/>
      <point x="226" y="304"/>
      <point x="226" y="270" type="curve" smooth="yes"/>
      <point x="226" y="246"/>
      <point x="219" y="233"/>
      <point x="196" y="217" type="curve"/>
      <point x="191" y="214"/>
      <point x="187" y="214"/>
      <point x="181" y="216" type="curve" smooth="yes"/>
      <point x="140" y="230"/>
      <point x="103" y="243"/>
      <point x="103" y="277" type="curve" smooth="yes"/>
      <point x="103" y="304"/>
      <point x="127" y="328"/>
    </contour>
    <contour>
      <point x="223" y="122" type="curve" smooth="yes"/>
      <point x="234" y="113"/>
      <point x="240" y="100"/>
      <point x="240" y="86" type="curve" smooth="yes"/>
      <point x="240" y="50"/>
      <point x="212" y="28"/>
      <point x="170" y="28" type="curve" smooth="yes"/>
      <point x="128" y="28"/>
      <point x="97" y="51"/>
      <point x="97" y="91" type="curve" smooth="yes"/>
      <point x="97" y="117"/>
      <point x="108" y="137"/>
      <point x="141" y="154" type="curve"/>
      <point x="145" y="157"/>
      <point x="148" y="157"/>
      <point x="158" y="154" type="curve" smooth="yes"/>
      <point x="188" y="144"/>
      <point x="210" y="132"/>
    </contour>
  </outline>
</glyph>
<glyph name="eight" format="2">
	<advance width="464"/>
	<unicode hex="0038"/>
	<outline>
		<contour>
			<point x="412" y="146" type="curve" smooth="yes"/>
			<point x="412" y="214"/>
			<point x="383" y="258"/>
			<point x="303" y="324" type="curve"/>
			<point x="297" y="328"/>
			<point x="300" y="332"/>
			<point x="304" y="335" type="curve"/>
			<point x="372" y="379"/>
			<point x="397" y="418"/>
			<point x="397" y="475" type="curve" smooth="yes"/>
			<point x="397" y="556"/>
			<point x="333" y="614"/>
			<point x="245" y="614" type="curve" smooth="yes"/>
			<point x="153" y="614"/>
			<point x="88" y="554"/>
			<point x="88" y="468" type="curve" smooth="yes"/>
			<point x="88" y="406"/>
			<point x="113" y="357"/>
			<point x="179" y="307" type="curve" smooth="yes"/>
			<point x="185" y="302"/>
			<point x="182" y="296"/>
			<point x="175" y="292" type="curve" smooth="yes"/>
			<point x="117" y="255"/>
			<point x="71" y="215"/>
			<point x="71" y="139" type="curve" smooth="yes"/>
			<point x="71" y="49"/>
			<point x="143" y="-14"/>
			<point x="239" y="-14" type="curve" smooth="yes"/>
			<point x="337" y="-14"/>
			<point x="412" y="53"/>
		</contour>
		<contour>
			<point x="335" y="467" type="curve" smooth="yes"/>
			<point x="335" y="435"/>
			<point x="326" y="404"/>
			<point x="312" y="381" type="curve"/>
			<point x="303" y="368"/>
			<point x="294" y="360"/>
			<point x="271" y="347" type="curve"/>
			<point x="185" y="407"/>
			<point x="150" y="454"/>
			<point x="150" y="503" type="curve" smooth="yes"/>
			<point x="150" y="552"/>
			<point x="187" y="587"/>
			<point x="240" y="587" type="curve" smooth="yes"/>
			<point x="297" y="587"/>
			<point x="335" y="541"/>
		</contour>
		<contour>
			<point x="344" y="109" type="curve" smooth="yes"/>
			<point x="344" y="55"/>
			<point x="302" y="16"/>
			<point x="246" y="16" type="curve" smooth="yes"/>
			<point x="181" y="16"/>
			<point x="137" y="63"/>
			<point x="137" y="141" type="curve" smooth="yes"/>
			<point x="137" y="212"/>
			<point x="157" y="248"/>
			<point x="212" y="282" type="curve"/>
			<point x="310" y="215"/>
			<point x="344" y="170"/>
		</contour>
	</outline>
</glyph>
<glyph name="nine" format="2">
	<advance width="510"/>
	<unicode hex="0039"/>
	<outline>
		<contour>
			<point x="452" y="218" type="curve" smooth="yes"/>
			<point x="452" y="355"/>
			<point x="368" y="456"/>
			<point x="246" y="456" type="curve" smooth="yes"/>
			<point x="133" y="456"/>
			<point x="48" y="365"/>
			<point x="48" y="245" type="curve" smooth="yes"/>
			<point x="48" y="133"/>
			<point x="132" y="46"/>
			<point x="242" y="46" type="curve" smooth="yes"/>
			<point x="270" y="46"/>
			<point x="277" y="48"/>
			<point x="309" y="56" type="curve" smooth="yes"/>
			<point x="325" y="60"/>
			<point x="323" y="49"/>
			<point x="318" y="38" type="curve"/>
			<point x="264" y="-56"/>
			<point x="158" y="-109"/>
			<point x="61" y="-144" type="curve" smooth="yes"/>
			<point x="45" y="-150"/>
			<point x="55" y="-181"/>
			<point x="76" y="-176" type="curve" smooth="yes"/>
			<point x="275" y="-128"/>
			<point x="452" y="-13"/>
		</contour>
		<contour>
			<point x="366" y="247" type="curve" smooth="yes"/>
			<point x="366" y="199"/>
			<point x="363" y="167"/>
			<point x="350" y="117" type="curve"/>
			<point x="345" y="102"/>
			<point x="344" y="98"/>
			<point x="330" y="91" type="curve" smooth="yes"/>
			<point x="301" y="77"/>
			<point x="282" y="73"/>
			<point x="258" y="73" type="curve" smooth="yes"/>
			<point x="181" y="73"/>
			<point x="135" y="141"/>
			<point x="135" y="260" type="curve" smooth="yes"/>
			<point x="135" y="332"/>
			<point x="150" y="381"/>
			<point x="182" y="406" type="curve" smooth="yes"/>
			<point x="200" y="421"/>
			<point x="227" y="430"/>
			<point x="250" y="430" type="curve" smooth="yes"/>
			<point x="320" y="430"/>
			<point x="366" y="362"/>
		</contour>
	</outline>
</glyph>
<glyph name="nine.num" format="2">
  <advance width="349"/>
  <unicode hex="0039"/>
  <outline>
    <contour>
      <point x="121" y="276" type="curve" smooth="yes"/>
      <point x="252" y="308"/>
      <point x="307" y="414"/>
      <point x="307" y="503" type="curve" smooth="yes"/>
      <point x="307" y="588"/>
      <point x="258" y="649"/>
      <point x="168" y="649" type="curve" smooth="yes"/>
      <point x="91" y="649"/>
      <point x="38" y="598"/>
      <point x="38" y="533" type="curve" smooth="yes"/>
      <point x="38" y="473"/>
      <point x="86" y="419"/>
      <point x="157" y="419" type="curve" smooth="yes"/>
      <point x="167" y="419"/>
      <point x="193" y="420"/>
      <point x="206" y="425" type="curve" smooth="yes"/>
      <point x="219" y="430"/>
      <point x="217" y="418"/>
      <point x="214" y="412" type="curve"/>
      <point x="205" y="390"/>
      <point x="193" y="371"/>
      <point x="178" y="357" type="curve" smooth="yes"/>
      <point x="169" y="348"/>
      <point x="147" y="325"/>
      <point x="104" y="311" type="curve" smooth="yes"/>
      <point x="82" y="303"/>
      <point x="94" y="269"/>
    </contour>
    <contour>
      <point x="167" y="611" type="curve" smooth="yes"/>
      <point x="226" y="611"/>
      <point x="239" y="529"/>
      <point x="234" y="484" type="curve"/>
      <point x="234" y="480"/>
      <point x="228" y="471"/>
      <point x="219" y="466" type="curve" smooth="yes"/>
      <point x="204" y="457"/>
      <point x="179" y="455"/>
      <point x="166" y="455" type="curve" smooth="yes"/>
      <point x="127" y="455"/>
      <point x="109" y="488"/>
      <point x="109" y="539" type="curve" smooth="yes"/>
      <point x="109" y="576"/>
      <point x="129" y="611"/>
    </contour>
  </outline>
</glyph>
<glyph name="semicolon" format="2">
  <advance width="230"/>
  <unicode hex="003B"/>
  <outline>
    <contour>
      <point x="171" y="348" type="curve" smooth="yes"/>
      <point x="171" y="379"/>
      <point x="147" y="399"/>
      <point x="117" y="399" type="curve" smooth="yes"/>
      <point x="86" y="399"/>
      <point x="64" y="378"/>
      <point x="64" y="348" type="curve" smooth="yes"/>
      <point x="64" y="319"/>
      <point x="86" y="298"/>
      <point x="117" y="298" type="curve" smooth="yes"/>
      <point x="147" y="298"/>
      <point x="171" y="319"/>
    </contour>
    <contour>
      <point x="191" y="6" type="curve" smooth="yes"/>
      <point x="191" y="54"/>
      <point x="160" y="88"/>
      <point x="119" y="88" type="curve" smooth="yes"/>
      <point x="88" y="88"/>
      <point x="63" y="66"/>
      <point x="63" y="36" type="curve" smooth="yes"/>
      <point x="63" y="9"/>
      <point x="83" y="-13"/>
      <point x="109" y="-13" type="curve" smooth="yes"/>
      <point x="117" y="-13"/>
      <point x="125" y="-10"/>
      <point x="133" y="-10" type="curve" smooth="yes"/>
      <point x="136" y="-10"/>
      <point x="140" y="-13"/>
      <point x="140" y="-24" type="curve" smooth="yes"/>
      <point x="140" y="-56"/>
      <point x="117" y="-88"/>
      <point x="69" y="-117" type="curve"/>
      <point x="57" y="-122"/>
      <point x="68" y="-148"/>
      <point x="79" y="-144" type="curve" smooth="yes"/>
      <point x="145" y="-118"/>
      <point x="191" y="-56"/>
    </contour>
  </outline>
</glyph>
<glyph name="less" format="2">
  <advance width="698"/>
  <unicode hex="003C"/>
  <outline>
    <contour>
      <point x="630" y="106" type="curve" smooth="yes"/>
      <point x="630" y="114"/>
      <point x="630" y="121"/>
      <point x="630" y="128" type="curve" smooth="yes"/>
      <point x="630" y="139"/>
      <point x="628" y="146"/>
      <point x="616" y="151" type="curve" smooth="yes"/>
      <point x="510" y="193"/>
      <point x="296" y="282"/>
      <point x="187" y="330" type="curve" smooth="yes"/>
      <point x="177" y="334"/>
      <point x="170" y="341"/>
      <point x="185" y="347" type="curve" smooth="yes"/>
      <point x="293" y="390"/>
      <point x="504" y="480"/>
      <point x="608" y="524" type="curve" smooth="yes"/>
      <point x="617" y="528"/>
      <point x="630" y="539"/>
      <point x="630" y="547" type="curve" smooth="yes"/>
      <point x="630" y="563" type="line" smooth="yes"/>
      <point x="630" y="583"/>
      <point x="629" y="604"/>
      <point x="604" y="594" type="curve" smooth="yes"/>
      <point x="492" y="550"/>
      <point x="211" y="429"/>
      <point x="82" y="372" type="curve" smooth="yes"/>
      <point x="70" y="367"/>
      <point x="70" y="362"/>
      <point x="70" y="353" type="curve"/>
      <point x="69" y="348"/>
      <point x="67" y="336"/>
      <point x="70" y="328" type="curve"/>
      <point x="70" y="316"/>
      <point x="71" y="312"/>
      <point x="81" y="307" type="curve" smooth="yes"/>
      <point x="206" y="250"/>
      <point x="459" y="137"/>
      <point x="599" y="85" type="curve" smooth="yes"/>
      <point x="625" y="76"/>
      <point x="630" y="89"/>
    </contour>
  </outline>
</glyph>
<glyph name="equal" format="2">
  <advance width="698"/>
  <unicode hex="003D"/>
  <outline>
    <contour>
      <point x="631" y="444" type="curve" smooth="yes"/>
      <point x="631" y="452"/>
      <point x="630" y="458"/>
      <point x="630" y="463" type="curve" smooth="yes"/>
      <point x="630" y="471"/>
      <point x="629" y="479"/>
      <point x="625" y="486" type="curve" smooth="yes"/>
      <point x="622" y="491"/>
      <point x="617" y="495"/>
      <point x="605" y="495" type="curve" smooth="yes"/>
      <point x="481" y="492"/>
      <point x="221" y="493"/>
      <point x="92" y="492" type="curve" smooth="yes"/>
      <point x="82" y="492"/>
      <point x="73" y="489"/>
      <point x="71" y="480" type="curve"/>
      <point x="72" y="445" type="line"/>
      <point x="74" y="436"/>
      <point x="82" y="424"/>
      <point x="100" y="426" type="curve"/>
      <point x="605" y="426" type="line" smooth="yes"/>
      <point x="627" y="426"/>
      <point x="631" y="425"/>
    </contour>
    <contour>
      <point x="631" y="237" type="line" smooth="yes"/>
      <point x="631" y="249"/>
      <point x="621" y="255"/>
      <point x="612" y="255" type="curve" smooth="yes"/>
      <point x="474" y="255"/>
      <point x="224" y="254"/>
      <point x="96" y="257" type="curve" smooth="yes"/>
      <point x="83" y="257"/>
      <point x="68" y="256"/>
      <point x="68" y="233" type="curve" smooth="yes"/>
      <point x="68" y="209" type="line" smooth="yes"/>
      <point x="68" y="190"/>
      <point x="77" y="188"/>
      <point x="95" y="188" type="curve" smooth="yes"/>
      <point x="604" y="188" type="line" smooth="yes"/>
      <point x="628" y="188"/>
      <point x="629" y="193"/>
      <point x="630" y="210" type="curve" smooth="yes"/>
    </contour>
  </outline>
</glyph>
<glyph name="greater" format="2">
	<advance width="698"/>
	<unicode hex="003E"/>
	<outline>
		<contour>
			<point x="630" y="328" type="curve"/>
			<point x="632" y="336"/>
			<point x="630" y="348"/>
			<point x="629" y="353" type="curve"/>
			<point x="629" y="363"/>
			<point x="623" y="369"/>
			<point x="612" y="374" type="curve" smooth="yes"/>
			<point x="481" y="431"/>
			<point x="252" y="529"/>
			<point x="95" y="594" type="curve" smooth="yes"/>
			<point x="79" y="601"/>
			<point x="70" y="594"/>
			<point x="70" y="567" type="curve" smooth="yes"/>
			<point x="70" y="549" type="line" smooth="yes"/>
			<point x="70" y="530"/>
			<point x="73" y="531"/>
			<point x="91" y="524" type="curve" smooth="yes"/>
			<point x="191" y="483"/>
			<point x="373" y="408"/>
			<point x="514" y="347" type="curve" smooth="yes"/>
			<point x="528" y="341"/>
			<point x="516" y="331"/>
			<point x="506" y="327" type="curve" smooth="yes"/>
			<point x="398" y="279"/>
			<point x="188" y="193"/>
			<point x="83" y="151" type="curve" smooth="yes"/>
			<point x="72" y="146"/>
			<point x="69" y="139"/>
			<point x="69" y="128" type="curve" smooth="yes"/>
			<point x="69" y="121"/>
			<point x="70" y="114"/>
			<point x="70" y="106" type="curve" smooth="yes"/>
			<point x="70" y="89"/>
			<point x="74" y="74"/>
			<point x="100" y="85" type="curve" smooth="yes"/>
			<point x="228" y="138"/>
			<point x="483" y="246"/>
			<point x="609" y="303" type="curve" smooth="yes"/>
			<point x="628" y="312"/>
			<point x="630" y="316"/>
		</contour>
	</outline>
</glyph>
<glyph name="question.csc" format="2">
  <advance width="362"/>
  <unicode hex="003F"/>
  <outline>
    <contour>
      <point x="251" y="329" type="curve" smooth="yes"/>
      <point x="298" y="362"/>
      <point x="327" y="412"/>
      <point x="327" y="477" type="curve" smooth="yes"/>
      <point x="327" y="591"/>
      <point x="247" y="670"/>
      <point x="138" y="670" type="curve" smooth="yes"/>
      <point x="81" y="670"/>
      <point x="42" y="653"/>
      <point x="42" y="615" type="curve" smooth="yes"/>
      <point x="42" y="585"/>
      <point x="68" y="572"/>
      <point x="108" y="572" type="curve" smooth="yes"/>
      <point x="133" y="572"/>
      <point x="157" y="580"/>
      <point x="186" y="580" type="curve" smooth="yes"/>
      <point x="250" y="580"/>
      <point x="286" y="547"/>
      <point x="286" y="493" type="curve" smooth="yes"/>
      <point x="286" y="440"/>
      <point x="261" y="413"/>
      <point x="172" y="380" type="curve" smooth="yes"/>
      <point x="114" y="358"/>
      <point x="91" y="332"/>
      <point x="91" y="284" type="curve" smooth="yes"/>
      <point x="91" y="250"/>
      <point x="107" y="216"/>
      <point x="144" y="172" type="curve" smooth="yes"/>
      <point x="154" y="160"/>
      <point x="161" y="165"/>
      <point x="173" y="167" type="curve" smooth="yes"/>
      <point x="178" y="168"/>
      <point x="178" y="176"/>
      <point x="173" y="183" type="curve"/>
      <point x="145" y="216"/>
      <point x="137" y="232"/>
      <point x="137" y="251" type="curve" smooth="yes"/>
      <point x="137" y="270"/>
      <point x="147" y="282"/>
      <point x="179" y="294" type="curve" smooth="yes"/>
      <point x="217" y="307"/>
      <point x="228" y="313"/>
    </contour>
    <contour>
      <point x="155" y="-17" type="curve" smooth="yes"/>
      <point x="189" y="-17"/>
      <point x="209" y="4"/>
      <point x="209" y="36" type="curve" smooth="yes"/>
      <point x="209" y="69"/>
      <point x="190" y="92"/>
      <point x="156" y="92" type="curve" smooth="yes"/>
      <point x="123" y="92"/>
      <point x="98" y="71"/>
      <point x="98" y="38" type="curve" smooth="yes"/>
      <point x="98" y="6"/>
      <point x="122" y="-17"/>
    </contour>
  </outline>
</glyph>
<glyph name="at" format="2">
  <advance width="960"/>
  <unicode hex="0040"/>
  <outline>
    <contour>
      <point x="859" y="156" type="curve"/>
      <point x="860" y="160"/>
      <point x="863" y="168"/>
      <point x="854" y="170" type="curve"/>
      <point x="851" y="170"/>
      <point x="847" y="171"/>
      <point x="844" y="171" type="curve" smooth="yes"/>
      <point x="831" y="171"/>
      <point x="830" y="169"/>
      <point x="825" y="158" type="curve" smooth="yes"/>
      <point x="760" y="11"/>
      <point x="642" y="-64"/>
      <point x="493" y="-64" type="curve" smooth="yes"/>
      <point x="303" y="-64"/>
      <point x="169" y="68"/>
      <point x="169" y="265" type="curve" smooth="yes"/>
      <point x="169" y="489"/>
      <point x="327" y="664"/>
      <point x="526" y="664" type="curve" smooth="yes"/>
      <point x="682" y="664"/>
      <point x="798" y="557"/>
      <point x="798" y="407" type="curve" smooth="yes"/>
      <point x="798" y="330"/>
      <point x="765" y="251"/>
      <point x="720" y="196" type="curve" smooth="yes"/>
      <point x="691" y="161"/>
      <point x="649" y="136"/>
      <point x="620" y="136" type="curve" smooth="yes"/>
      <point x="597" y="136"/>
      <point x="592" y="154"/>
      <point x="593" y="175" type="curve" smooth="yes"/>
      <point x="597" y="231"/>
      <point x="662" y="427"/>
      <point x="681" y="491" type="curve"/>
      <point x="681" y="498"/>
      <point x="678" y="502"/>
      <point x="671" y="502" type="curve" smooth="yes"/>
      <point x="664" y="502"/>
      <point x="638" y="502"/>
      <point x="629" y="501" type="curve" smooth="yes"/>
      <point x="606" y="499"/>
      <point x="607" y="493"/>
      <point x="602" y="473" type="curve"/>
      <point x="600" y="468"/>
      <point x="596" y="456"/>
      <point x="590" y="467" type="curve" smooth="yes"/>
      <point x="577" y="490"/>
      <point x="555" y="502"/>
      <point x="524" y="502" type="curve" smooth="yes"/>
      <point x="485" y="502"/>
      <point x="438" y="476"/>
      <point x="395" y="432" type="curve" smooth="yes"/>
      <point x="331" y="366"/>
      <point x="288" y="273"/>
      <point x="288" y="200" type="curve" smooth="yes"/>
      <point x="288" y="142"/>
      <point x="321" y="95"/>
      <point x="368" y="95" type="curve" smooth="yes"/>
      <point x="399" y="95"/>
      <point x="436" y="113"/>
      <point x="469" y="143" type="curve" smooth="yes"/>
      <point x="487" y="160"/>
      <point x="497" y="169"/>
      <point x="513" y="188" type="curve"/>
      <point x="515" y="192"/>
      <point x="525" y="204"/>
      <point x="523" y="191" type="curve"/>
      <point x="522" y="179"/>
      <point x="522" y="171"/>
      <point x="522" y="160" type="curve" smooth="yes"/>
      <point x="522" y="117"/>
      <point x="546" y="95"/>
      <point x="591" y="95" type="curve" smooth="yes"/>
      <point x="722" y="95"/>
      <point x="834" y="234"/>
      <point x="834" y="400" type="curve" smooth="yes"/>
      <point x="834" y="576"/>
      <point x="704" y="697"/>
      <point x="522" y="697" type="curve" smooth="yes"/>
      <point x="297" y="697"/>
      <point x="120" y="512"/>
      <point x="120" y="276" type="curve" smooth="yes"/>
      <point x="120" y="57"/>
      <point x="278" y="-100"/>
      <point x="491" y="-100" type="curve" smooth="yes"/>
      <point x="660" y="-100"/>
      <point x="804" y="-4"/>
    </contour>
    <contour>
      <point x="576" y="414" type="curve" smooth="yes"/>
      <point x="576" y="392"/>
      <point x="570" y="361"/>
      <point x="557" y="320" type="curve" smooth="yes"/>
      <point x="545" y="283"/>
      <point x="537" y="266"/>
      <point x="515" y="237" type="curve" smooth="yes"/>
      <point x="474" y="182"/>
      <point x="439" y="157"/>
      <point x="407" y="157" type="curve" smooth="yes"/>
      <point x="384" y="157"/>
      <point x="364" y="180"/>
      <point x="364" y="213" type="curve" smooth="yes"/>
      <point x="364" y="269"/>
      <point x="410" y="372"/>
      <point x="462" y="434" type="curve" smooth="yes"/>
      <point x="483" y="458"/>
      <point x="508" y="472"/>
      <point x="528" y="472" type="curve" smooth="yes"/>
      <point x="556" y="472"/>
      <point x="576" y="449"/>
    </contour>
  </outline>
</glyph>
<glyph name="B" format="2">
  <advance width="656"/>
  <unicode hex="0042"/>
  <outline>
    <contour>
      <point x="613" y="199" type="curve" smooth="yes"/>
      <point x="613" y="268"/>
      <point x="570" y="324"/>
      <point x="500" y="358" type="curve" smooth="yes"/>
      <point x="494" y="361"/>
      <point x="486" y="365"/>
      <point x="480" y="368" type="curve" smooth="yes"/>
      <point x="474" y="371"/>
      <point x="473" y="374"/>
      <point x="478" y="376" type="curve" smooth="yes"/>
      <point x="536" y="397"/>
      <point x="574" y="446"/>
      <point x="574" y="503" type="curve" smooth="yes"/>
      <point x="574" y="558"/>
      <point x="541" y="607"/>
      <point x="487" y="632" type="curve" smooth="yes"/>
      <point x="440" y="653"/>
      <point x="419" y="660"/>
      <point x="331" y="660" type="curve" smooth="yes"/>
      <point x="235" y="660"/>
      <point x="140" y="662"/>
      <point x="46" y="652" type="curve" smooth="yes"/>
      <point x="37" y="651" type="line" smooth="yes"/>
      <point x="29" y="650"/>
      <point x="26" y="617"/>
      <point x="37" y="617" type="curve" smooth="yes"/>
      <point x="60" y="617" type="line" smooth="yes"/>
      <point x="140" y="617"/>
      <point x="147" y="613"/>
      <point x="147" y="515" type="curve" smooth="yes"/>
      <point x="147" y="133" type="line" smooth="yes"/>
      <point x="147" y="40"/>
      <point x="138" y="33"/>
      <point x="52" y="33" type="curve"/>
      <point x="46" y="35"/>
      <point x="35" y="33"/>
      <point x="28" y="32" type="curve"/>
      <point x="20" y="29"/>
      <point x="17" y="-3"/>
      <point x="29" y="-4" type="curve"/>
      <point x="115" y="-2"/>
      <point x="226" y="-2"/>
      <point x="325" y="-4" type="curve" smooth="yes"/>
      <point x="409" y="-6"/>
      <point x="427" y="0"/>
      <point x="460" y="6" type="curve" smooth="yes"/>
      <point x="546" y="23"/>
      <point x="613" y="107"/>
    </contour>
    <contour>
      <point x="470" y="497" type="curve" smooth="yes"/>
      <point x="470" y="450"/>
      <point x="450" y="414"/>
      <point x="417" y="400" type="curve" smooth="yes"/>
      <point x="371" y="380"/>
      <point x="305" y="385"/>
      <point x="256" y="385" type="curve" smooth="yes"/>
      <point x="255" y="385"/>
      <point x="244" y="390"/>
      <point x="244" y="405" type="curve" smooth="yes"/>
      <point x="244" y="609" type="line" smooth="yes"/>
      <point x="244" y="618"/>
      <point x="253" y="627"/>
      <point x="258" y="628" type="curve"/>
      <point x="316" y="633"/>
      <point x="378" y="638"/>
      <point x="426" y="599" type="curve" smooth="yes"/>
      <point x="454" y="575"/>
      <point x="470" y="539"/>
    </contour>
    <contour>
      <point x="506" y="193" type="curve" smooth="yes"/>
      <point x="506" y="107"/>
      <point x="446" y="37"/>
      <point x="358" y="37" type="curve" smooth="yes"/>
      <point x="288" y="37"/>
      <point x="256" y="57"/>
      <point x="249" y="96" type="curve" smooth="yes"/>
      <point x="246" y="112"/>
      <point x="244" y="141"/>
      <point x="244" y="176" type="curve" smooth="yes"/>
      <point x="244" y="330" type="line" smooth="yes"/>
      <point x="244" y="343"/>
      <point x="255" y="349"/>
      <point x="266" y="351" type="curve"/>
      <point x="325" y="351"/>
      <point x="376" y="359"/>
      <point x="429" y="328" type="curve" smooth="yes"/>
      <point x="476" y="300"/>
      <point x="506" y="249"/>
    </contour>
  </outline>
</glyph>
<glyph name="C" format="2">
	<advance width="762"/>
	<unicode hex="0043"/>
	<outline>
		<contour>
			<point x="699" y="167" type="curve" smooth="yes"/>
			<point x="703" y="179"/>
			<point x="669" y="177"/>
			<point x="667" y="168" type="curve"/>
			<point x="641" y="122"/>
			<point x="633" y="112"/>
			<point x="607" y="88" type="curve" smooth="yes"/>
			<point x="559" y="45"/>
			<point x="512" y="22"/>
			<point x="444" y="22" type="curve" smooth="yes"/>
			<point x="282" y="22"/>
			<point x="167" y="158"/>
			<point x="167" y="338" type="curve" smooth="yes"/>
			<point x="167" y="514"/>
			<point x="268" y="628"/>
			<point x="430" y="628" type="curve" smooth="yes"/>
			<point x="535" y="628"/>
			<point x="606" y="567"/>
			<point x="640" y="469" type="curve"/>
			<point x="645" y="461"/>
			<point x="667" y="464"/>
			<point x="670" y="477" type="curve"/>
			<point x="669" y="496"/>
			<point x="671" y="515"/>
			<point x="671" y="538" type="curve" smooth="yes"/>
			<point x="672" y="561"/>
			<point x="670" y="589"/>
			<point x="661" y="628" type="curve" smooth="yes"/>
			<point x="660" y="633"/>
			<point x="642" y="633"/>
			<point x="637" y="629" type="curve" smooth="yes"/>
			<point x="622" y="617"/>
			<point x="604" y="625"/>
			<point x="588" y="631" type="curve" smooth="yes"/>
			<point x="526" y="654"/>
			<point x="488" y="665"/>
			<point x="424" y="665" type="curve" smooth="yes"/>
			<point x="205" y="665"/>
			<point x="56" y="522"/>
			<point x="56" y="317" type="curve" smooth="yes"/>
			<point x="56" y="123"/>
			<point x="201" y="-19"/>
			<point x="413" y="-19" type="curve" smooth="yes"/>
			<point x="451" y="-19"/>
			<point x="491" y="-17"/>
			<point x="528" y="-5" type="curve" smooth="yes"/>
			<point x="560" y="5"/>
			<point x="571" y="10"/>
			<point x="606" y="10" type="curve" smooth="yes"/>
			<point x="613" y="10"/>
			<point x="616" y="10"/>
			<point x="629" y="7" type="curve"/>
			<point x="656" y="52"/>
			<point x="684" y="115"/>
		</contour>
	</outline>
</glyph>
<glyph name="F" format="2">
	<advance width="543"/>
	<unicode hex="0046"/>
	<outline>
		<contour>
			<point x="499" y="633" type="line"/>
			<point x="500" y="639"/>
			<point x="491" y="650"/>
			<point x="483" y="650" type="curve" smooth="yes"/>
			<point x="52" y="650" type="line"/>
			<point x="38" y="652"/>
			<point x="40" y="621"/>
			<point x="48" y="619" type="curve"/>
			<point x="102" y="617"/>
			<point x="120" y="603"/>
			<point x="120" y="549" type="curve" smooth="yes"/>
			<point x="120" y="99" type="line" smooth="yes"/>
			<point x="120" y="46"/>
			<point x="106" y="33"/>
			<point x="49" y="30" type="curve"/>
			<point x="39" y="28"/>
			<point x="34" y="-3"/>
			<point x="51" y="-3" type="curve" smooth="yes"/>
			<point x="128" y="-1"/>
			<point x="228" y="-2"/>
			<point x="303" y="-3" type="curve"/>
			<point x="308" y="-4"/>
			<point x="311" y="4"/>
			<point x="311" y="13" type="curve" smooth="yes"/>
			<point x="311" y="21"/>
			<point x="308" y="30"/>
			<point x="303" y="31" type="curve"/>
			<point x="293" y="31" type="line" smooth="yes"/>
			<point x="235" y="31"/>
			<point x="218" y="45"/>
			<point x="218" y="99" type="curve" smooth="yes"/>
			<point x="218" y="140"/>
			<point x="218" y="102"/>
			<point x="218" y="303" type="curve" smooth="yes"/>
			<point x="218" y="315"/>
			<point x="227" y="322"/>
			<point x="240" y="323" type="curve"/>
			<point x="269" y="322"/>
			<point x="326" y="322"/>
			<point x="355" y="323" type="curve" smooth="yes"/>
			<point x="433" y="325"/>
			<point x="444" y="315"/>
			<point x="450" y="250" type="curve" smooth="yes"/>
			<point x="451" y="242"/>
			<point x="476" y="242"/>
			<point x="478" y="250" type="curve"/>
			<point x="480" y="302"/>
			<point x="478" y="420"/>
			<point x="478" y="429" type="curve"/>
			<point x="477" y="436"/>
			<point x="469" y="438"/>
			<point x="462" y="437" type="curve" smooth="yes"/>
			<point x="455" y="436"/>
			<point x="450" y="432"/>
			<point x="449" y="425" type="curve" smooth="yes"/>
			<point x="444" y="376"/>
			<point x="431" y="373"/>
			<point x="359" y="372" type="curve" smooth="yes"/>
			<point x="317" y="372"/>
			<point x="273" y="369"/>
			<point x="231" y="372" type="curve"/>
			<point x="226" y="373"/>
			<point x="217" y="382"/>
			<point x="217" y="390" type="curve" smooth="yes"/>
			<point x="218" y="586" type="line"/>
			<point x="220" y="595"/>
			<point x="228" y="602"/>
			<point x="235" y="602" type="curve" smooth="yes"/>
			<point x="356" y="602" type="line" smooth="yes"/>
			<point x="450" y="602"/>
			<point x="463" y="590"/>
			<point x="466" y="523" type="curve"/>
			<point x="474" y="520"/>
			<point x="487" y="517"/>
			<point x="496" y="523" type="curve"/>
		</contour>
	</outline>
</glyph>
<glyph name="G" format="2">
  <advance width="763"/>
  <unicode hex="0047"/>
  <outline>
    <contour>
      <point x="730" y="270" type="curve"/>
      <point x="732" y="278"/>
      <point x="730" y="287"/>
      <point x="720" y="287" type="curve" smooth="yes"/>
      <point x="653" y="286"/>
      <point x="519" y="285"/>
      <point x="444" y="287" type="curve"/>
      <point x="429" y="285"/>
      <point x="434" y="252"/>
      <point x="444" y="252" type="curve" smooth="yes"/>
      <point x="483" y="251" type="line" smooth="yes"/>
      <point x="542" y="249"/>
      <point x="560" y="238"/>
      <point x="560" y="184" type="curve"/>
      <point x="557" y="159"/>
      <point x="560" y="108"/>
      <point x="560" y="83" type="curve" smooth="yes"/>
      <point x="560" y="72"/>
      <point x="559" y="55"/>
      <point x="548" y="50" type="curve" smooth="yes"/>
      <point x="506" y="31"/>
      <point x="462" y="19"/>
      <point x="418" y="19" type="curve" smooth="yes"/>
      <point x="265" y="19"/>
      <point x="166" y="142"/>
      <point x="166" y="319" type="curve" smooth="yes"/>
      <point x="166" y="511"/>
      <point x="263" y="631"/>
      <point x="430" y="631" type="curve" smooth="yes"/>
      <point x="538" y="631"/>
      <point x="599" y="574"/>
      <point x="621" y="464" type="curve" smooth="yes"/>
      <point x="623" y="453"/>
      <point x="652" y="454"/>
      <point x="653" y="466" type="curve" smooth="yes"/>
      <point x="655" y="517"/>
      <point x="660" y="637"/>
      <point x="653" y="639" type="curve"/>
      <point x="645" y="640"/>
      <point x="638" y="641"/>
      <point x="630" y="639" type="curve"/>
      <point x="624" y="633"/>
      <point x="620" y="631"/>
      <point x="610" y="631" type="curve" smooth="yes"/>
      <point x="603" y="631"/>
      <point x="597" y="632"/>
      <point x="579" y="637" type="curve" smooth="yes"/>
      <point x="505" y="659"/>
      <point x="468" y="667"/>
      <point x="414" y="667" type="curve" smooth="yes"/>
      <point x="308" y="667"/>
      <point x="239" y="638"/>
      <point x="171" y="574" type="curve" smooth="yes"/>
      <point x="100" y="508"/>
      <point x="57" y="412"/>
      <point x="57" y="312" type="curve" smooth="yes"/>
      <point x="57" y="121"/>
      <point x="191" y="-19"/>
      <point x="386" y="-19" type="curve" smooth="yes"/>
      <point x="471" y="-19"/>
      <point x="580" y="9"/>
      <point x="648" y="44" type="curve"/>
      <point x="657" y="48"/>
      <point x="657" y="62"/>
      <point x="657" y="71" type="curve" smooth="yes"/>
      <point x="656" y="101"/>
      <point x="656" y="158"/>
      <point x="657" y="185" type="curve" smooth="yes"/>
      <point x="658" y="236"/>
      <point x="672" y="252"/>
      <point x="720" y="254" type="curve"/>
      <point x="724" y="253"/>
      <point x="729" y="262"/>
    </contour>
  </outline>
</glyph>
<glyph name="H" format="2">
	<advance width="788"/>
	<unicode hex="0048"/>
	<outline>
		<contour>
			<point x="768" y="25" type="curve"/>
			<point x="765" y="33"/>
			<point x="753" y="33"/>
			<point x="746" y="33" type="curve" smooth="yes"/>
			<point x="687" y="33"/>
			<point x="670" y="52"/>
			<point x="670" y="99" type="curve" smooth="yes"/>
			<point x="670" y="196"/>
			<point x="666" y="397"/>
			<point x="670" y="549" type="curve" smooth="yes"/>
			<point x="671" y="597"/>
			<point x="687" y="613"/>
			<point x="736" y="617" type="curve"/>
			<point x="740" y="617"/>
			<point x="748" y="617"/>
			<point x="750" y="622" type="curve"/>
			<point x="755" y="632"/>
			<point x="752" y="651"/>
			<point x="737" y="650" type="curve" smooth="yes"/>
			<point x="677" y="648"/>
			<point x="559" y="655"/>
			<point x="486" y="653" type="curve" smooth="yes"/>
			<point x="472" y="653"/>
			<point x="470" y="648"/>
			<point x="468" y="644" type="curve"/>
			<point x="465" y="635"/>
			<point x="465" y="620"/>
			<point x="475" y="618" type="curve"/>
			<point x="495" y="618" type="line" smooth="yes"/>
			<point x="556" y="618"/>
			<point x="572" y="596"/>
			<point x="572" y="549" type="curve" smooth="yes"/>
			<point x="572" y="489"/>
			<point x="573" y="428"/>
			<point x="572" y="367" type="curve"/>
			<point x="572" y="358"/>
			<point x="550" y="351"/>
			<point x="542" y="351" type="curve" smooth="yes"/>
			<point x="431" y="349"/>
			<point x="315" y="349"/>
			<point x="233" y="351" type="curve" smooth="yes"/>
			<point x="220" y="351"/>
			<point x="215" y="361"/>
			<point x="215" y="366" type="curve" smooth="yes"/>
			<point x="215" y="430"/>
			<point x="215" y="486"/>
			<point x="215" y="549" type="curve" smooth="yes"/>
			<point x="215" y="597"/>
			<point x="232" y="618"/>
			<point x="291" y="618" type="curve"/>
			<point x="299" y="619"/>
			<point x="302" y="619"/>
			<point x="303" y="624" type="curve" smooth="yes"/>
			<point x="305" y="632"/>
			<point x="307" y="641"/>
			<point x="302" y="646" type="curve"/>
			<point x="299" y="648"/>
			<point x="296" y="650"/>
			<point x="292" y="650" type="curve"/>
			<point x="235" y="647"/>
			<point x="116" y="647"/>
			<point x="51" y="650" type="curve"/>
			<point x="41" y="651"/>
			<point x="41" y="622"/>
			<point x="49" y="618" type="curve"/>
			<point x="100" y="615"/>
			<point x="117" y="603"/>
			<point x="117" y="549" type="curve" smooth="yes"/>
			<point x="117" y="99" type="line" smooth="yes"/>
			<point x="117" y="50"/>
			<point x="102" y="36"/>
			<point x="56" y="33" type="curve"/>
			<point x="47" y="33"/>
			<point x="41" y="34"/>
			<point x="31" y="32" type="curve"/>
			<point x="22" y="26"/>
			<point x="23" y="13"/>
			<point x="26" y="4" type="curve"/>
			<point x="29" y="-3"/>
			<point x="36" y="-3"/>
			<point x="42" y="-3" type="curve" smooth="yes"/>
			<point x="105" y="-3"/>
			<point x="232" y="-1"/>
			<point x="296" y="-3" type="curve"/>
			<point x="316" y="0"/>
			<point x="310" y="35"/>
			<point x="296" y="33" type="curve"/>
			<point x="291" y="33" type="line"/>
			<point x="286" y="33" type="line" smooth="yes"/>
			<point x="231" y="33"/>
			<point x="215" y="46"/>
			<point x="215" y="99" type="curve" smooth="yes"/>
			<point x="215" y="279" type="line" smooth="yes"/>
			<point x="215" y="295"/>
			<point x="228" y="304"/>
			<point x="233" y="304" type="curve" smooth="yes"/>
			<point x="326" y="301"/>
			<point x="455" y="300"/>
			<point x="553" y="304" type="curve" smooth="yes"/>
			<point x="564" y="304"/>
			<point x="571" y="296"/>
			<point x="572" y="286" type="curve"/>
			<point x="572" y="110"/>
			<point x="572" y="145"/>
			<point x="572" y="99" type="curve" smooth="yes"/>
			<point x="572" y="48"/>
			<point x="548" y="32"/>
			<point x="495" y="32" type="curve" smooth="yes"/>
			<point x="471" y="32" type="line" smooth="yes"/>
			<point x="460" y="32"/>
			<point x="455" y="18"/>
			<point x="459" y="6" type="curve"/>
			<point x="460" y="0"/>
			<point x="464" y="-3"/>
			<point x="472" y="-3" type="curve" smooth="yes"/>
			<point x="607" y="-3"/>
			<point x="686" y="-1"/>
			<point x="756" y="-3" type="curve" smooth="yes"/>
			<point x="768" y="-3"/>
			<point x="773" y="14"/>
		</contour>
	</outline>
</glyph>
<glyph name="J" format="2">
	<advance width="324"/>
	<unicode hex="004A"/>
	<outline>
		<contour>
			<point x="298" y="644" type="curve"/>
			<point x="295" y="651"/>
			<point x="290" y="650"/>
			<point x="284" y="650" type="curve" smooth="yes"/>
			<point x="224" y="648"/>
			<point x="100" y="646"/>
			<point x="35" y="650" type="curve"/>
			<point x="29" y="650"/>
			<point x="24" y="652"/>
			<point x="20" y="645" type="curve"/>
			<point x="16" y="637"/>
			<point x="16" y="619"/>
			<point x="27" y="618" type="curve"/>
			<point x="30" y="618"/>
			<point x="35" y="616"/>
			<point x="39" y="617" type="curve"/>
			<point x="97" y="617"/>
			<point x="114" y="604"/>
			<point x="116" y="549" type="curve" smooth="yes"/>
			<point x="117" y="507"/>
			<point x="117" y="609"/>
			<point x="117" y="7" type="curve" smooth="yes"/>
			<point x="117" y="-132"/>
			<point x="113" y="-170"/>
			<point x="91" y="-202" type="curve" smooth="yes"/>
			<point x="77" y="-221"/>
			<point x="45" y="-237"/>
			<point x="22" y="-224" type="curve" smooth="yes"/>
			<point x="13" y="-219"/>
			<point x="5" y="-212"/>
			<point x="-3" y="-206" type="curve" smooth="yes"/>
			<point x="-15" y="-197"/>
			<point x="-30" y="-180"/>
			<point x="-46" y="-180" type="curve" smooth="yes"/>
			<point x="-70" y="-180"/>
			<point x="-90" y="-202"/>
			<point x="-90" y="-227" type="curve" smooth="yes"/>
			<point x="-90" y="-263"/>
			<point x="-50" y="-289"/>
			<point x="7" y="-289" type="curve" smooth="yes"/>
			<point x="67" y="-289"/>
			<point x="112" y="-255"/>
			<point x="148" y="-200" type="curve" smooth="yes"/>
			<point x="172" y="-163"/>
			<point x="190" y="-108"/>
			<point x="200" y="-60" type="curve" smooth="yes"/>
			<point x="209" y="-20"/>
			<point x="214" y="32"/>
			<point x="214" y="73" type="curve" smooth="yes"/>
			<point x="214" y="549" type="line" smooth="yes"/>
			<point x="214" y="601"/>
			<point x="227" y="614"/>
			<point x="283" y="618" type="curve"/>
			<point x="287" y="618"/>
			<point x="290" y="617"/>
			<point x="294" y="619" type="curve"/>
			<point x="301" y="620"/>
			<point x="302" y="636"/>
		</contour>
	</outline>
</glyph>
<glyph name="K" format="2">
	<advance width="740"/>
	<unicode hex="004B"/>
	<outline>
		<contour>
			<point x="711" y="27" type="curve"/>
			<point x="708" y="34"/>
			<point x="703" y="33"/>
			<point x="697" y="33" type="curve" smooth="yes"/>
			<point x="635" y="33"/>
			<point x="613" y="42"/>
			<point x="569" y="95" type="curve" smooth="yes"/>
			<point x="513" y="163"/>
			<point x="462" y="236"/>
			<point x="397" y="298" type="curve" smooth="yes"/>
			<point x="368" y="326"/>
			<point x="354" y="337"/>
			<point x="340" y="343" type="curve"/>
			<point x="348" y="349"/>
			<point x="352" y="355"/>
			<point x="357" y="361" type="curve" smooth="yes"/>
			<point x="396" y="411"/>
			<point x="435" y="461"/>
			<point x="469" y="514" type="curve" smooth="yes"/>
			<point x="487" y="541"/>
			<point x="508" y="579"/>
			<point x="534" y="597" type="curve" smooth="yes"/>
			<point x="556" y="613"/>
			<point x="579" y="619"/>
			<point x="636" y="620" type="curve"/>
			<point x="650" y="617"/>
			<point x="655" y="651"/>
			<point x="636" y="650" type="curve" smooth="yes"/>
			<point x="588" y="648"/>
			<point x="484" y="647"/>
			<point x="385" y="650" type="curve"/>
			<point x="380" y="651"/>
			<point x="374" y="649"/>
			<point x="373" y="645" type="curve"/>
			<point x="370" y="639"/>
			<point x="368" y="625"/>
			<point x="376" y="619" type="curve"/>
			<point x="386" y="618" type="line" smooth="yes"/>
			<point x="435" y="613"/>
			<point x="443" y="610"/>
			<point x="443" y="593" type="curve" smooth="yes"/>
			<point x="443" y="536"/>
			<point x="329" y="399"/>
			<point x="279" y="355" type="curve" smooth="yes"/>
			<point x="267" y="344"/>
			<point x="256" y="337"/>
			<point x="243" y="332" type="curve"/>
			<point x="236" y="330"/>
			<point x="227" y="328"/>
			<point x="226" y="339" type="curve"/>
			<point x="226" y="549" type="line" smooth="yes"/>
			<point x="226" y="603"/>
			<point x="243" y="617"/>
			<point x="303" y="617" type="curve" smooth="yes"/>
			<point x="314" y="617"/>
			<point x="321" y="622"/>
			<point x="321" y="635" type="curve" smooth="yes"/>
			<point x="321" y="649"/>
			<point x="312" y="651"/>
			<point x="307" y="651" type="curve" smooth="yes"/>
			<point x="253" y="649"/>
			<point x="160" y="649"/>
			<point x="38" y="652" type="curve" smooth="yes"/>
			<point x="32" y="652"/>
			<point x="26" y="652"/>
			<point x="24" y="645" type="curve"/>
			<point x="19" y="637"/>
			<point x="23" y="618"/>
			<point x="32" y="617" type="curve"/>
			<point x="52" y="617" type="line" smooth="yes"/>
			<point x="111" y="617"/>
			<point x="129" y="603"/>
			<point x="129" y="549" type="curve" smooth="yes"/>
			<point x="129" y="99" type="line" smooth="yes"/>
			<point x="129" y="55"/>
			<point x="112" y="35"/>
			<point x="52" y="35" type="curve"/>
			<point x="46" y="36"/>
			<point x="39" y="37"/>
			<point x="33" y="35" type="curve" smooth="yes"/>
			<point x="17" y="29"/>
			<point x="18" y="9"/>
			<point x="24" y="0" type="curve"/>
			<point x="28" y="-5"/>
			<point x="38" y="-4"/>
			<point x="43" y="-4" type="curve" smooth="yes"/>
			<point x="100" y="-2"/>
			<point x="233" y="-1"/>
			<point x="308" y="-4" type="curve" smooth="yes"/>
			<point x="314" y="-4"/>
			<point x="320" y="-4"/>
			<point x="322" y="0" type="curve" smooth="yes"/>
			<point x="325" y="6"/>
			<point x="325" y="19"/>
			<point x="322" y="25" type="curve" smooth="yes"/>
			<point x="318" y="34"/>
			<point x="311" y="32"/>
			<point x="303" y="32" type="curve" smooth="yes"/>
			<point x="243" y="32"/>
			<point x="226" y="52"/>
			<point x="226" y="99" type="curve" smooth="yes"/>
			<point x="226" y="281" type="line" smooth="yes"/>
			<point x="226" y="294"/>
			<point x="229" y="298"/>
			<point x="242" y="297" type="curve"/>
			<point x="254" y="295"/>
			<point x="264" y="291"/>
			<point x="277" y="282" type="curve" smooth="yes"/>
			<point x="351" y="228"/>
			<point x="405" y="152"/>
			<point x="461" y="81" type="curve" smooth="yes"/>
			<point x="471" y="68"/>
			<point x="474" y="60"/>
			<point x="474" y="52" type="curve" smooth="yes"/>
			<point x="474" y="39"/>
			<point x="466" y="29"/>
			<point x="410" y="29" type="curve"/>
			<point x="399" y="27"/>
			<point x="400" y="10"/>
			<point x="403" y="2" type="curve"/>
			<point x="406" y="-3"/>
			<point x="411" y="-3"/>
			<point x="416" y="-4" type="curve"/>
			<point x="484" y="-3"/>
			<point x="622" y="2"/>
			<point x="703" y="-3" type="curve"/>
			<point x="718" y="0"/>
			<point x="716" y="17"/>
		</contour>
	</outline>
</glyph>
<glyph name="L" format="2">
  <advance width="595"/>
  <unicode hex="004C"/>
  <outline>
    <contour>
      <point x="572" y="148" type="curve"/>
      <point x="573" y="150"/>
      <point x="574" y="157"/>
      <point x="568" y="160" type="curve"/>
      <point x="563" y="164"/>
      <point x="555" y="163"/>
      <point x="547" y="160" type="curve"/>
      <point x="512" y="114" type="line" smooth="yes"/>
      <point x="463" y="49"/>
      <point x="447" y="47"/>
      <point x="372" y="47" type="curve" smooth="yes"/>
      <point x="278" y="47" type="line" smooth="yes"/>
      <point x="237" y="47"/>
      <point x="221" y="59"/>
      <point x="221" y="101" type="curve" smooth="yes"/>
      <point x="221" y="559" type="line" smooth="yes"/>
      <point x="221" y="611"/>
      <point x="225" y="612"/>
      <point x="300" y="614" type="curve" smooth="yes"/>
      <point x="311" y="614"/>
      <point x="322" y="615"/>
      <point x="332" y="616" type="curve" smooth="yes"/>
      <point x="346" y="617"/>
      <point x="349" y="628"/>
      <point x="345" y="643" type="curve" smooth="yes"/>
      <point x="343" y="651"/>
      <point x="337" y="652"/>
      <point x="331" y="652" type="curve" smooth="yes"/>
      <point x="215" y="650"/>
      <point x="145" y="649"/>
      <point x="45" y="651" type="curve"/>
      <point x="41" y="652"/>
      <point x="33" y="652"/>
      <point x="30" y="646" type="curve"/>
      <point x="25" y="639"/>
      <point x="25" y="619"/>
      <point x="35" y="618" type="curve"/>
      <point x="47" y="618" type="line" smooth="yes"/>
      <point x="106" y="618"/>
      <point x="124" y="603"/>
      <point x="124" y="549" type="curve" smooth="yes"/>
      <point x="124" y="138" type="line" smooth="yes"/>
      <point x="124" y="97"/>
      <point x="123" y="78"/>
      <point x="122" y="67" type="curve"/>
      <point x="115" y="32"/>
      <point x="64" y="34"/>
      <point x="38" y="34" type="curve"/>
      <point x="35" y="33"/>
      <point x="33" y="33"/>
      <point x="30" y="32" type="curve" smooth="yes"/>
      <point x="22" y="29"/>
      <point x="20" y="13"/>
      <point x="23" y="6" type="curve"/>
      <point x="24" y="1"/>
      <point x="30" y="-4"/>
      <point x="37" y="-3" type="curve"/>
      <point x="67" y="-2"/>
      <point x="295" y="-1"/>
      <point x="477" y="-4" type="curve" smooth="yes"/>
      <point x="493" y="-4"/>
      <point x="501" y="5"/>
      <point x="508" y="15" type="curve"/>
      <point x="521" y="36"/>
      <point x="548" y="91"/>
    </contour>
  </outline>
</glyph>
<glyph name="M" format="2">
	<advance width="942"/>
	<unicode hex="004D"/>
	<outline>
		<contour>
			<point x="913" y="5" type="curve"/>
			<point x="913" y="10"/>
			<point x="914" y="18"/>
			<point x="913" y="22" type="curve"/>
			<point x="911" y="34"/>
			<point x="904" y="33"/>
			<point x="895" y="33" type="curve" smooth="yes"/>
			<point x="832" y="33"/>
			<point x="826" y="40"/>
			<point x="819" y="136" type="curve" smooth="yes"/>
			<point x="792" y="532" type="line" smooth="yes"/>
			<point x="791" y="547"/>
			<point x="789" y="558"/>
			<point x="789" y="574" type="curve" smooth="yes"/>
			<point x="789" y="599"/>
			<point x="792" y="611"/>
			<point x="844" y="616" type="curve" smooth="yes"/>
			<point x="855" y="617" type="line"/>
			<point x="862" y="618"/>
			<point x="861" y="635"/>
			<point x="860" y="642" type="curve"/>
			<point x="858" y="652"/>
			<point x="854" y="650"/>
			<point x="845" y="650" type="curve" smooth="yes"/>
			<point x="808" y="649"/>
			<point x="756" y="649"/>
			<point x="714" y="650" type="curve" smooth="yes"/>
			<point x="708" y="650"/>
			<point x="694" y="647"/>
			<point x="689" y="638" type="curve"/>
			<point x="484" y="165" type="line"/>
			<point x="482" y="161"/>
			<point x="469" y="143"/>
			<point x="465" y="153" type="curve" smooth="yes"/>
			<point x="251" y="640" type="line" smooth="yes"/>
			<point x="246" y="651"/>
			<point x="236" y="650"/>
			<point x="227" y="650" type="curve" smooth="yes"/>
			<point x="195" y="649"/>
			<point x="131" y="649"/>
			<point x="96" y="651" type="curve"/>
			<point x="88" y="652"/>
			<point x="79" y="647"/>
			<point x="77" y="638" type="curve" smooth="yes"/>
			<point x="75" y="627"/>
			<point x="73" y="616"/>
			<point x="90" y="614" type="curve" smooth="yes"/>
			<point x="133" y="610"/>
			<point x="145" y="604"/>
			<point x="145" y="572" type="curve" smooth="yes"/>
			<point x="145" y="426"/>
			<point x="128" y="280"/>
			<point x="119" y="134" type="curve" smooth="yes"/>
			<point x="114" y="64"/>
			<point x="117" y="27"/>
			<point x="40" y="31" type="curve"/>
			<point x="33" y="32"/>
			<point x="31" y="31"/>
			<point x="28" y="24" type="curve" smooth="yes"/>
			<point x="24" y="15"/>
			<point x="23" y="0"/>
			<point x="33" y="-2" type="curve"/>
			<point x="115" y="-3"/>
			<point x="191" y="-3"/>
			<point x="241" y="-2" type="curve"/>
			<point x="245" y="-1"/>
			<point x="250" y="-1"/>
			<point x="253" y="2" type="curve" smooth="yes"/>
			<point x="257" y="6"/>
			<point x="257" y="14"/>
			<point x="255" y="22" type="curve" smooth="yes"/>
			<point x="253" y="30"/>
			<point x="249" y="31"/>
			<point x="242" y="31" type="curve"/>
			<point x="186" y="36"/>
			<point x="172" y="51"/>
			<point x="172" y="89" type="curve" smooth="yes"/>
			<point x="172" y="100"/>
			<point x="173" y="119"/>
			<point x="174" y="139" type="curve" smooth="yes"/>
			<point x="197" y="512" type="line"/>
			<point x="197" y="519"/>
			<point x="207" y="515"/>
			<point x="209" y="510" type="curve" smooth="yes"/>
			<point x="435" y="-1" type="line" smooth="yes"/>
			<point x="438" y="-7"/>
			<point x="465" y="-7"/>
			<point x="467" y="-1" type="curve"/>
			<point x="687" y="511" type="line" smooth="yes"/>
			<point x="690" y="519"/>
			<point x="699" y="526"/>
			<point x="699" y="519" type="curve"/>
			<point x="723" y="160"/>
			<point x="722" y="148"/>
			<point x="723" y="131" type="curve" smooth="yes"/>
			<point x="729" y="62"/>
			<point x="724" y="32"/>
			<point x="647" y="32" type="curve" smooth="yes"/>
			<point x="639" y="32"/>
			<point x="630" y="28"/>
			<point x="630" y="24" type="curve"/>
			<point x="629" y="18"/>
			<point x="629" y="10"/>
			<point x="630" y="5" type="curve" smooth="yes"/>
			<point x="631" y="1"/>
			<point x="636" y="-2"/>
			<point x="639" y="-2" type="curve" smooth="yes"/>
			<point x="692" y="-3"/>
			<point x="823" y="-5"/>
			<point x="898" y="-3" type="curve" smooth="yes"/>
			<point x="901" y="-3"/>
			<point x="912" y="-1"/>
		</contour>
	</outline>
</glyph>
<glyph name="N" format="2">
	<advance width="834"/>
	<unicode hex="004E"/>
	<outline>
		<contour>
			<point x="805" y="633" type="curve"/>
			<point x="805" y="637"/>
			<point x="805" y="652"/>
			<point x="799" y="652" type="curve" smooth="yes"/>
			<point x="708" y="650"/>
			<point x="631" y="648"/>
			<point x="553" y="651" type="curve" smooth="yes"/>
			<point x="538" y="652"/>
			<point x="541" y="618"/>
			<point x="553" y="617" type="curve" smooth="yes"/>
			<point x="576" y="616"/>
			<point x="594" y="615"/>
			<point x="608" y="613" type="curve" smooth="yes"/>
			<point x="621" y="611"/>
			<point x="630" y="607"/>
			<point x="636" y="601" type="curve" smooth="yes"/>
			<point x="649" y="589"/>
			<point x="649" y="565"/>
			<point x="649" y="515" type="curve" smooth="yes"/>
			<point x="649" y="185" type="line" smooth="yes"/>
			<point x="649" y="177"/>
			<point x="638" y="162"/>
			<point x="632" y="171" type="curve"/>
			<point x="223" y="639" type="line" smooth="yes"/>
			<point x="217" y="646"/>
			<point x="204" y="651"/>
			<point x="199" y="651" type="curve" smooth="yes"/>
			<point x="173" y="650"/>
			<point x="127" y="649"/>
			<point x="56" y="651" type="curve" smooth="yes"/>
			<point x="46" y="651"/>
			<point x="40" y="648"/>
			<point x="40" y="635" type="curve" smooth="yes"/>
			<point x="40" y="627"/>
			<point x="43" y="617"/>
			<point x="48" y="618" type="curve"/>
			<point x="85" y="617"/>
			<point x="110" y="611"/>
			<point x="129" y="597" type="curve"/>
			<point x="129" y="92" type="line" smooth="yes"/>
			<point x="129" y="45"/>
			<point x="96" y="34"/>
			<point x="52" y="34" type="curve" smooth="yes"/>
			<point x="46" y="34"/>
			<point x="41" y="33"/>
			<point x="37" y="27" type="curve" smooth="yes"/>
			<point x="32" y="20"/>
			<point x="32" y="-5"/>
			<point x="44" y="-4" type="curve" smooth="yes"/>
			<point x="105" y="-1"/>
			<point x="219" y="-2"/>
			<point x="281" y="-3" type="curve" smooth="yes"/>
			<point x="298" y="-3"/>
			<point x="298" y="17"/>
			<point x="293" y="29" type="curve"/>
			<point x="288" y="39"/>
			<point x="253" y="35"/>
			<point x="242" y="36" type="curve" smooth="yes"/>
			<point x="214" y="38"/>
			<point x="200" y="52"/>
			<point x="194" y="71" type="curve" smooth="yes"/>
			<point x="187" y="91"/>
			<point x="188" y="118"/>
			<point x="188" y="139" type="curve" smooth="yes"/>
			<point x="188" y="508" type="line" smooth="yes"/>
			<point x="188" y="524"/>
			<point x="193" y="532"/>
			<point x="199" y="529" type="curve"/>
			<point x="199" y="529"/>
			<point x="314" y="398"/>
			<point x="431" y="265" type="curve" smooth="yes"/>
			<point x="547" y="133"/>
			<point x="666" y="-1"/>
			<point x="670" y="-6" type="curve"/>
			<point x="674" y="-14"/>
			<point x="708" y="-15"/>
			<point x="708" y="4" type="curve" smooth="yes"/>
			<point x="708" y="532" type="line" smooth="yes"/>
			<point x="708" y="610"/>
			<point x="714" y="616"/>
			<point x="791" y="618" type="curve" smooth="yes"/>
			<point x="803" y="618"/>
			<point x="806" y="620"/>
		</contour>
	</outline>
</glyph>
<glyph name="O" format="2">
  <advance width="827"/>
  <unicode hex="004F"/>
  <outline>
    <contour>
      <point x="769" y="339" type="curve" smooth="yes"/>
      <point x="769" y="527"/>
      <point x="624" y="667"/>
      <point x="415" y="667" type="curve" smooth="yes"/>
      <point x="202" y="667"/>
      <point x="53" y="515"/>
      <point x="53" y="312" type="curve" smooth="yes"/>
      <point x="53" y="125"/>
      <point x="204" y="-19"/>
      <point x="413" y="-19" type="curve" smooth="yes"/>
      <point x="619" y="-19"/>
      <point x="769" y="138"/>
    </contour>
    <contour>
      <point x="661" y="309" type="curve" smooth="yes"/>
      <point x="661" y="157"/>
      <point x="606" y="18"/>
      <point x="430" y="18" type="curve" smooth="yes"/>
      <point x="272" y="18"/>
      <point x="161" y="157"/>
      <point x="161" y="338" type="curve" smooth="yes"/>
      <point x="161" y="510"/>
      <point x="249" y="631"/>
      <point x="387" y="631" type="curve" smooth="yes"/>
      <point x="552" y="631"/>
      <point x="661" y="496"/>
    </contour>
  </outline>
</glyph>
<glyph name="P" format="2">
	<advance width="577"/>
	<unicode hex="0050"/>
	<outline>
		<contour>
			<point x="537" y="472" type="curve" smooth="yes"/>
			<point x="537" y="555"/>
			<point x="483" y="623"/>
			<point x="396" y="646" type="curve" smooth="yes"/>
			<point x="357" y="656"/>
			<point x="333" y="659"/>
			<point x="263" y="659" type="curve" smooth="yes"/>
			<point x="185" y="659"/>
			<point x="113" y="660"/>
			<point x="33" y="650" type="curve"/>
			<point x="27" y="650"/>
			<point x="25" y="641"/>
			<point x="25" y="633" type="curve"/>
			<point x="26" y="626"/>
			<point x="29" y="618"/>
			<point x="33" y="619" type="curve"/>
			<point x="83" y="620" type="line" smooth="yes"/>
			<point x="123" y="621"/>
			<point x="131" y="603"/>
			<point x="131" y="539" type="curve" smooth="yes"/>
			<point x="131" y="78" type="line" smooth="yes"/>
			<point x="131" y="40"/>
			<point x="117" y="37"/>
			<point x="70" y="37" type="curve" smooth="yes"/>
			<point x="55" y="37"/>
			<point x="41" y="34"/>
			<point x="40" y="15" type="curve"/>
			<point x="40" y="10"/>
			<point x="41" y="6"/>
			<point x="43" y="2" type="curve"/>
			<point x="45" y="-1"/>
			<point x="47" y="-4"/>
			<point x="61" y="-4" type="curve" smooth="yes"/>
			<point x="132" y="-2"/>
			<point x="261" y="-2"/>
			<point x="339" y="-5" type="curve"/>
			<point x="353" y="-8"/>
			<point x="357" y="32"/>
			<point x="340" y="37" type="curve"/>
			<point x="327" y="40"/>
			<point x="318" y="37"/>
			<point x="305" y="37" type="curve" smooth="yes"/>
			<point x="245" y="36"/>
			<point x="228" y="45"/>
			<point x="228" y="99" type="curve" smooth="yes"/>
			<point x="228" y="252" type="line"/>
			<point x="229" y="261"/>
			<point x="232" y="275"/>
			<point x="238" y="274" type="curve" smooth="yes"/>
			<point x="257" y="271"/>
			<point x="264" y="269"/>
			<point x="288" y="269" type="curve" smooth="yes"/>
			<point x="445" y="269"/>
			<point x="537" y="347"/>
		</contour>
		<contour>
			<point x="431" y="475" type="curve" smooth="yes"/>
			<point x="431" y="371"/>
			<point x="384" y="301"/>
			<point x="281" y="301" type="curve" smooth="yes"/>
			<point x="264" y="301"/>
			<point x="258" y="302"/>
			<point x="242" y="305" type="curve"/>
			<point x="235" y="307"/>
			<point x="228" y="313"/>
			<point x="228" y="322" type="curve" smooth="yes"/>
			<point x="228" y="604" type="line" smooth="yes"/>
			<point x="228" y="612"/>
			<point x="230" y="626"/>
			<point x="238" y="627" type="curve" smooth="yes"/>
			<point x="282" y="633"/>
			<point x="323" y="632"/>
			<point x="363" y="610" type="curve" smooth="yes"/>
			<point x="405" y="588"/>
			<point x="431" y="539"/>
		</contour>
	</outline>
</glyph>
<glyph name="Q" format="2">
  <advance width="822"/>
  <unicode hex="0051"/>
  <outline>
    <contour>
      <point x="806" y="-172" type="curve"/>
      <point x="742" y="-169"/>
      <point x="708" y="-152"/>
      <point x="647" y="-100" type="curve" smooth="yes"/>
      <point x="606" y="-65"/>
      <point x="561" y="-29"/>
      <point x="510" y="-9" type="curve" smooth="yes"/>
      <point x="503" y="-6"/>
      <point x="508" y="-1"/>
      <point x="511" y="0" type="curve" smooth="yes"/>
      <point x="660" y="49"/>
      <point x="759" y="182"/>
      <point x="759" y="339" type="curve" smooth="yes"/>
      <point x="759" y="527"/>
      <point x="622" y="667"/>
      <point x="412" y="667" type="curve" smooth="yes"/>
      <point x="198" y="667"/>
      <point x="45" y="514"/>
      <point x="45" y="314" type="curve" smooth="yes"/>
      <point x="45" y="135"/>
      <point x="175" y="0"/>
      <point x="375" y="-18" type="curve"/>
      <point x="399" y="-27"/>
      <point x="411" y="-32"/>
      <point x="426" y="-43" type="curve" smooth="yes"/>
      <point x="441" y="-54"/>
      <point x="459" y="-70"/>
      <point x="496" y="-101" type="curve" smooth="yes"/>
      <point x="563" y="-158"/>
      <point x="641" y="-211"/>
      <point x="733" y="-211" type="curve" smooth="yes"/>
      <point x="752" y="-211"/>
      <point x="765" y="-209"/>
      <point x="784" y="-205" type="curve"/>
      <point x="795" y="-202"/>
      <point x="817" y="-175"/>
    </contour>
    <contour>
      <point x="651" y="309" type="curve" smooth="yes"/>
      <point x="651" y="176"/>
      <point x="577" y="17"/>
      <point x="426" y="17" type="curve" smooth="yes"/>
      <point x="267" y="17"/>
      <point x="153" y="156"/>
      <point x="153" y="338" type="curve" smooth="yes"/>
      <point x="153" y="510"/>
      <point x="244" y="631"/>
      <point x="384" y="631" type="curve" smooth="yes"/>
      <point x="549" y="631"/>
      <point x="651" y="497"/>
    </contour>
  </outline>
</glyph>
<glyph name="T" format="2">
  <advance width="681"/>
  <unicode hex="0054"/>
  <outline>
    <contour>
      <point x="652" y="494" type="curve" smooth="yes"/>
      <point x="636" y="667" type="line"/>
      <point x="631" y="670"/>
      <point x="609" y="674"/>
      <point x="606" y="667" type="curve" smooth="yes"/>
      <point x="599" y="651"/>
      <point x="598" y="649"/>
      <point x="548" y="650" type="curve" smooth="yes"/>
      <point x="449" y="651"/>
      <point x="243" y="652"/>
      <point x="136" y="650" type="curve" smooth="yes"/>
      <point x="119" y="650"/>
      <point x="88" y="649"/>
      <point x="80" y="667" type="curve" smooth="yes"/>
      <point x="78" y="672"/>
      <point x="60" y="678"/>
      <point x="50" y="667" type="curve"/>
      <point x="44" y="622"/>
      <point x="36" y="536"/>
      <point x="34" y="495" type="curve" smooth="yes"/>
      <point x="33" y="484"/>
      <point x="55" y="483"/>
      <point x="64" y="489" type="curve"/>
      <point x="82" y="582"/>
      <point x="98" y="602"/>
      <point x="135" y="602" type="curve" smooth="yes"/>
      <point x="156" y="602" type="line"/>
      <point x="271" y="602" type="line" smooth="yes"/>
      <point x="281" y="602"/>
      <point x="294" y="592"/>
      <point x="294" y="586" type="curve"/>
      <point x="293" y="462"/>
      <point x="294" y="258"/>
      <point x="294" y="134" type="curve" smooth="yes"/>
      <point x="294" y="106" type="line" smooth="yes"/>
      <point x="294" y="54"/>
      <point x="279" y="35"/>
      <point x="228" y="35" type="curve"/>
      <point x="216" y="37"/>
      <point x="202" y="36"/>
      <point x="190" y="36" type="curve"/>
      <point x="185" y="35"/>
      <point x="180" y="32"/>
      <point x="177" y="27" type="curve"/>
      <point x="175" y="21"/>
      <point x="175" y="9"/>
      <point x="177" y="3" type="curve" smooth="yes"/>
      <point x="178" y="0"/>
      <point x="180" y="-4"/>
      <point x="189" y="-4" type="curve" smooth="yes"/>
      <point x="264" y="-2"/>
      <point x="415" y="0"/>
      <point x="495" y="-3" type="curve" smooth="yes"/>
      <point x="503" y="-3"/>
      <point x="508" y="-3"/>
      <point x="511" y="5" type="curve" smooth="yes"/>
      <point x="513" y="11"/>
      <point x="513" y="19"/>
      <point x="511" y="24" type="curve" smooth="yes"/>
      <point x="508" y="32"/>
      <point x="504" y="37"/>
      <point x="497" y="37" type="curve" smooth="yes"/>
      <point x="468" y="37" type="line" smooth="yes"/>
      <point x="410" y="37"/>
      <point x="392" y="45"/>
      <point x="392" y="99" type="curve" smooth="yes"/>
      <point x="392" y="134" type="line" smooth="yes"/>
      <point x="392" y="246"/>
      <point x="391" y="471"/>
      <point x="392" y="584" type="curve" smooth="yes"/>
      <point x="392" y="590"/>
      <point x="399" y="602"/>
      <point x="406" y="602" type="curve" smooth="yes"/>
      <point x="552" y="602" type="line" smooth="yes"/>
      <point x="587" y="602"/>
      <point x="603" y="584"/>
      <point x="620" y="499" type="curve" smooth="yes"/>
      <point x="622" y="490"/>
      <point x="622" y="484"/>
      <point x="639" y="484" type="curve" smooth="yes"/>
      <point x="645" y="484"/>
      <point x="653" y="486"/>
    </contour>
  </outline>
</glyph>
<glyph name="V" format="2">
	<advance width="761"/>
	<unicode hex="0056"/>
	<outline>
		<contour>
			<point x="738" y="647" type="curve"/>
			<point x="736" y="650"/>
			<point x="733" y="650"/>
			<point x="729" y="650" type="curve" smooth="yes"/>
			<point x="671" y="648"/>
			<point x="554" y="648"/>
			<point x="496" y="650" type="curve" smooth="yes"/>
			<point x="491" y="650"/>
			<point x="485" y="652"/>
			<point x="482" y="646" type="curve" smooth="yes"/>
			<point x="478" y="638"/>
			<point x="480" y="622"/>
			<point x="489" y="619" type="curve"/>
			<point x="497" y="619" type="line" smooth="yes"/>
			<point x="563" y="619"/>
			<point x="578" y="605"/>
			<point x="578" y="580" type="curve" smooth="yes"/>
			<point x="578" y="566"/>
			<point x="577" y="554"/>
			<point x="564" y="520" type="curve" smooth="yes"/>
			<point x="418" y="141" type="line" smooth="yes"/>
			<point x="409" y="118"/>
			<point x="395" y="140"/>
			<point x="393" y="144" type="curve"/>
			<point x="238" y="529" type="line" smooth="yes"/>
			<point x="224" y="565"/>
			<point x="221" y="573"/>
			<point x="221" y="583" type="curve" smooth="yes"/>
			<point x="221" y="605"/>
			<point x="248" y="612"/>
			<point x="316" y="615" type="curve"/>
			<point x="322" y="618"/>
			<point x="326" y="618"/>
			<point x="328" y="625" type="curve"/>
			<point x="331" y="631"/>
			<point x="330" y="642"/>
			<point x="326" y="647" type="curve"/>
			<point x="323" y="652"/>
			<point x="310" y="650"/>
			<point x="304" y="650" type="curve" smooth="yes"/>
			<point x="240" y="648"/>
			<point x="110" y="648"/>
			<point x="42" y="650" type="curve" smooth="yes"/>
			<point x="36" y="650"/>
			<point x="27" y="650"/>
			<point x="25" y="642" type="curve"/>
			<point x="23" y="637"/>
			<point x="22" y="628"/>
			<point x="24" y="622" type="curve"/>
			<point x="26" y="618"/>
			<point x="32" y="615"/>
			<point x="36" y="614" type="curve"/>
			<point x="98" y="613"/>
			<point x="106" y="607"/>
			<point x="137" y="530" type="curve" smooth="yes"/>
			<point x="352" y="-7" type="line" smooth="yes"/>
			<point x="355" y="-15"/>
			<point x="363" y="-23"/>
			<point x="367" y="-23" type="curve"/>
			<point x="381" y="-26"/>
			<point x="398" y="-25"/>
			<point x="403" y="-24" type="curve"/>
			<point x="408" y="-24"/>
			<point x="420" y="-12"/>
			<point x="422" y="-5" type="curve"/>
			<point x="623" y="515" type="line" smooth="yes"/>
			<point x="656" y="601"/>
			<point x="675" y="619"/>
			<point x="732" y="620" type="curve"/>
			<point x="741" y="621"/>
			<point x="744" y="639"/>
		</contour>
	</outline>
</glyph>
<glyph name="W" format="2">
	<advance width="1086"/>
	<unicode hex="0057"/>
	<outline>
		<contour>
			<point x="1067" y="636" type="curve"/>
			<point x="1066" y="644"/>
			<point x="1062" y="652"/>
			<point x="1056" y="652" type="curve" smooth="yes"/>
			<point x="991" y="650"/>
			<point x="901" y="649"/>
			<point x="853" y="651" type="curve"/>
			<point x="842" y="653"/>
			<point x="836" y="623"/>
			<point x="849" y="621" type="curve"/>
			<point x="918" y="618"/>
			<point x="925" y="614"/>
			<point x="895" y="536" type="curve" smooth="yes"/>
			<point x="742" y="133" type="line" smooth="yes"/>
			<point x="735" y="115"/>
			<point x="724" y="114"/>
			<point x="721" y="122" type="curve"/>
			<point x="721" y="122"/>
			<point x="649" y="293"/>
			<point x="606" y="397" type="curve" smooth="yes"/>
			<point x="601" y="408"/>
			<point x="604" y="419"/>
			<point x="606" y="425" type="curve"/>
			<point x="656" y="547" type="line" smooth="yes"/>
			<point x="682" y="610"/>
			<point x="693" y="617"/>
			<point x="766" y="618" type="curve"/>
			<point x="773" y="620"/>
			<point x="780" y="651"/>
			<point x="764" y="651" type="curve" smooth="yes"/>
			<point x="612" y="652"/>
			<point x="448" y="654"/>
			<point x="340" y="651" type="curve" smooth="yes"/>
			<point x="326" y="651"/>
			<point x="331" y="621"/>
			<point x="339" y="619" type="curve"/>
			<point x="413" y="616"/>
			<point x="421" y="611"/>
			<point x="447" y="548" type="curve" smooth="yes"/>
			<point x="518" y="377" type="line" smooth="yes"/>
			<point x="521" y="369"/>
			<point x="523" y="363"/>
			<point x="519" y="354" type="curve" smooth="yes"/>
			<point x="430" y="135" type="line" smooth="yes"/>
			<point x="420" y="109"/>
			<point x="409" y="124"/>
			<point x="407" y="130" type="curve"/>
			<point x="249" y="527" type="line" smooth="yes"/>
			<point x="233" y="567"/>
			<point x="230" y="580"/>
			<point x="230" y="590" type="curve" smooth="yes"/>
			<point x="230" y="611"/>
			<point x="233" y="618"/>
			<point x="280" y="618" type="curve" smooth="yes"/>
			<point x="289" y="618" type="line"/>
			<point x="295" y="620"/>
			<point x="300" y="651"/>
			<point x="289" y="651" type="curve" smooth="yes"/>
			<point x="201" y="655"/>
			<point x="70" y="652"/>
			<point x="36" y="650" type="curve"/>
			<point x="29" y="650"/>
			<point x="18" y="648"/>
			<point x="17" y="643" type="curve"/>
			<point x="14" y="635"/>
			<point x="15" y="621"/>
			<point x="21" y="618" type="curve"/>
			<point x="26" y="615"/>
			<point x="32" y="615"/>
			<point x="36" y="615" type="curve" smooth="yes"/>
			<point x="113" y="613"/>
			<point x="122" y="610"/>
			<point x="159" y="515" type="curve" smooth="yes"/>
			<point x="363" y="-9" type="line" smooth="yes"/>
			<point x="368" y="-22"/>
			<point x="425" y="-24"/>
			<point x="430" y="-12" type="curve" smooth="yes"/>
			<point x="544" y="268" type="line" smooth="yes"/>
			<point x="552" y="287"/>
			<point x="559" y="279"/>
			<point x="561" y="273" type="curve"/>
			<point x="680" y="-12" type="line"/>
			<point x="685" y="-20"/>
			<point x="741" y="-21"/>
			<point x="745" y="-10" type="curve" smooth="yes"/>
			<point x="951" y="530" type="line" smooth="yes"/>
			<point x="981" y="609"/>
			<point x="997" y="620"/>
			<point x="1055" y="620" type="curve" smooth="yes"/>
			<point x="1064" y="620"/>
			<point x="1067" y="628"/>
		</contour>
		<contour>
			<point x="618" y="604" type="curve" smooth="yes"/>
			<point x="618" y="598"/>
			<point x="616" y="591"/>
			<point x="605" y="565" type="curve" smooth="yes"/>
			<point x="579" y="502" type="line"/>
			<point x="578" y="500"/>
			<point x="570" y="485"/>
			<point x="567" y="491" type="curve"/>
			<point x="536" y="563"/>
			<point x="533" y="571"/>
			<point x="529" y="578" type="curve"/>
			<point x="526" y="587"/>
			<point x="522" y="596"/>
			<point x="522" y="605" type="curve" smooth="yes"/>
			<point x="522" y="613"/>
			<point x="527" y="618"/>
			<point x="549" y="618" type="curve"/>
			<point x="562" y="616"/>
			<point x="582" y="617"/>
			<point x="591" y="618" type="curve"/>
			<point x="611" y="618"/>
			<point x="618" y="612"/>
		</contour>
	</outline>
</glyph>
<glyph name="X" format="2">
	<advance width="785"/>
	<unicode hex="0058"/>
	<outline>
		<contour>
			<point x="768" y="12" type="curve" smooth="yes"/>
			<point x="768" y="20"/>
			<point x="765" y="28"/>
			<point x="759" y="29" type="curve"/>
			<point x="714" y="34"/>
			<point x="691" y="41"/>
			<point x="672" y="55" type="curve" smooth="yes"/>
			<point x="650" y="71"/>
			<point x="632" y="99"/>
			<point x="615" y="121" type="curve" smooth="yes"/>
			<point x="439" y="351" type="line"/>
			<point x="438" y="353"/>
			<point x="434" y="359"/>
			<point x="438" y="365" type="curve"/>
			<point x="535" y="494" type="line" smooth="yes"/>
			<point x="585" y="561"/>
			<point x="628" y="613"/>
			<point x="716" y="618" type="curve"/>
			<point x="730" y="617"/>
			<point x="732" y="649"/>
			<point x="715" y="651" type="curve"/>
			<point x="654" y="648"/>
			<point x="539" y="648"/>
			<point x="483" y="650" type="curve" smooth="yes"/>
			<point x="477" y="650"/>
			<point x="471" y="651"/>
			<point x="466" y="644" type="curve"/>
			<point x="461" y="636"/>
			<point x="460" y="618"/>
			<point x="482" y="618" type="curve" smooth="yes"/>
			<point x="506" y="618" type="line" smooth="yes"/>
			<point x="539" y="618"/>
			<point x="550" y="603"/>
			<point x="529" y="572" type="curve" smooth="yes"/>
			<point x="494" y="520"/>
			<point x="450" y="465"/>
			<point x="413" y="416" type="curve" smooth="yes"/>
			<point x="408" y="409"/>
			<point x="399" y="402"/>
			<point x="393" y="410" type="curve" smooth="yes"/>
			<point x="290" y="548" type="line" smooth="yes"/>
			<point x="282" y="559"/>
			<point x="258" y="585"/>
			<point x="258" y="599" type="curve" smooth="yes"/>
			<point x="258" y="612"/>
			<point x="268" y="616"/>
			<point x="326" y="618" type="curve" smooth="yes"/>
			<point x="342" y="618"/>
			<point x="347" y="633"/>
			<point x="342" y="644" type="curve"/>
			<point x="339" y="652"/>
			<point x="332" y="652"/>
			<point x="325" y="652" type="curve"/>
			<point x="250" y="648"/>
			<point x="114" y="648"/>
			<point x="44" y="651" type="curve" smooth="yes"/>
			<point x="27" y="652"/>
			<point x="24" y="633"/>
			<point x="27" y="622" type="curve"/>
			<point x="28" y="617"/>
			<point x="38" y="613"/>
			<point x="42" y="613" type="curve" smooth="yes"/>
			<point x="122" y="611"/>
			<point x="131" y="604"/>
			<point x="193" y="524" type="curve" smooth="yes"/>
			<point x="339" y="336" type="line"/>
			<point x="341" y="333"/>
			<point x="340" y="324"/>
			<point x="337" y="321" type="curve"/>
			<point x="192" y="137" type="line" smooth="yes"/>
			<point x="174" y="114"/>
			<point x="162" y="98"/>
			<point x="152" y="85" type="curve" smooth="yes"/>
			<point x="121" y="44"/>
			<point x="89" y="36"/>
			<point x="37" y="32" type="curve"/>
			<point x="30" y="32"/>
			<point x="27" y="22"/>
			<point x="27" y="15" type="curve" smooth="yes"/>
			<point x="27" y="8"/>
			<point x="30" y="-2"/>
			<point x="36" y="-2" type="curve" smooth="yes"/>
			<point x="107" y="1"/>
			<point x="219" y="-2"/>
			<point x="272" y="-3" type="curve" smooth="yes"/>
			<point x="286" y="-3"/>
			<point x="285" y="29"/>
			<point x="270" y="29" type="curve" smooth="yes"/>
			<point x="261" y="29" type="line" smooth="yes"/>
			<point x="209" y="29"/>
			<point x="200" y="38"/>
			<point x="200" y="50" type="curve" smooth="yes"/>
			<point x="200" y="58"/>
			<point x="208" y="75"/>
			<point x="224" y="96" type="curve"/>
			<point x="224" y="96"/>
			<point x="364" y="270"/>
			<point x="364" y="271" type="curve"/>
			<point x="370" y="278"/>
			<point x="381" y="280"/>
			<point x="384" y="278" type="curve"/>
			<point x="511" y="105" type="line" smooth="yes"/>
			<point x="520" y="93"/>
			<point x="542" y="66"/>
			<point x="543" y="50" type="curve"/>
			<point x="543" y="37"/>
			<point x="530" y="29"/>
			<point x="490" y="29" type="curve" smooth="yes"/>
			<point x="480" y="29" type="line" smooth="yes"/>
			<point x="471" y="29"/>
			<point x="470" y="11"/>
			<point x="474" y="2" type="curve"/>
			<point x="478" y="-5"/>
			<point x="485" y="-3"/>
			<point x="491" y="-3" type="curve" smooth="yes"/>
			<point x="575" y="-1"/>
			<point x="713" y="0"/>
			<point x="758" y="-2" type="curve" smooth="yes"/>
			<point x="764" y="-2"/>
			<point x="768" y="5"/>
		</contour>
	</outline>
</glyph>
<glyph name="Z" format="2">
  <advance width="705"/>
  <unicode hex="005A"/>
  <outline>
    <contour>
      <point x="636" y="195" type="curve" smooth="yes"/>
      <point x="636" y="202"/>
      <point x="610" y="199"/>
      <point x="605" y="193" type="curve"/>
      <point x="604" y="183" type="line" smooth="yes"/>
      <point x="594" y="83"/>
      <point x="569" y="48"/>
      <point x="465" y="48" type="curve" smooth="yes"/>
      <point x="211" y="48" type="line" smooth="yes"/>
      <point x="172" y="48"/>
      <point x="181" y="65"/>
      <point x="187" y="71" type="curve"/>
      <point x="611" y="619" type="line"/>
      <point x="624" y="640"/>
      <point x="610" y="650"/>
      <point x="590" y="650" type="curve" smooth="yes"/>
      <point x="114" y="650" type="line"/>
      <point x="107" y="649"/>
      <point x="94" y="647"/>
      <point x="92" y="640" type="curve"/>
      <point x="88" y="606"/>
      <point x="87" y="536"/>
      <point x="87" y="500" type="curve"/>
      <point x="92" y="488"/>
      <point x="115" y="490"/>
      <point x="115" y="495" type="curve"/>
      <point x="127" y="595"/>
      <point x="141" y="602"/>
      <point x="240" y="602" type="curve" smooth="yes"/>
      <point x="454" y="602" type="line" smooth="yes"/>
      <point x="459" y="602"/>
      <point x="476" y="598"/>
      <point x="469" y="588" type="curve" smooth="yes"/>
      <point x="41" y="30" type="line"/>
      <point x="39" y="27"/>
      <point x="36" y="19"/>
      <point x="36" y="15" type="curve"/>
      <point x="34" y="1"/>
      <point x="47" y="-2"/>
      <point x="56" y="-2" type="curve"/>
      <point x="61" y="-3"/>
      <point x="160" y="-3"/>
      <point x="275" y="-3" type="curve" smooth="yes"/>
      <point x="389" y="-3"/>
      <point x="521" y="-2"/>
      <point x="593" y="-2" type="curve" smooth="yes"/>
      <point x="599" y="-2"/>
      <point x="621" y="0"/>
      <point x="623" y="10" type="curve"/>
      <point x="628" y="56"/>
      <point x="634" y="145"/>
    </contour>
  </outline>
</glyph>
<glyph name="backslash" format="2">
  <advance width="479"/>
  <unicode hex="005C"/>
  <outline>
    <contour>
      <point x="436" y="9" type="curve" smooth="yes"/>
      <point x="117" y="659" type="line" smooth="yes"/>
      <point x="108" y="677"/>
      <point x="107" y="674"/>
      <point x="90" y="674" type="curve" smooth="yes"/>
      <point x="69" y="674" type="line" smooth="yes"/>
      <point x="56" y="674"/>
      <point x="33" y="673"/>
      <point x="40" y="659" type="curve" smooth="yes"/>
      <point x="364" y="-3" type="line" smooth="yes"/>
      <point x="370" y="-14"/>
      <point x="372" y="-21"/>
      <point x="386" y="-19" type="curve" smooth="yes"/>
      <point x="428" y="-14" type="line" smooth="yes"/>
      <point x="446" y="-12"/>
      <point x="440" y="1"/>
    </contour>
  </outline>
</glyph>
<glyph name="bracketright" format="2">
	<advance width="343"/>
	<unicode hex="005D"/>
	<outline>
		<contour>
			<point x="200" y="-209" type="curve" smooth="yes"/>
			<point x="204" y="9"/>
			<point x="203" y="446"/>
			<point x="200" y="664" type="curve" smooth="yes"/>
			<point x="200" y="683"/>
			<point x="196" y="689"/>
			<point x="178" y="690" type="curve" smooth="yes"/>
			<point x="146" y="693"/>
			<point x="84" y="690"/>
			<point x="50" y="690" type="curve" smooth="yes"/>
			<point x="44" y="690" type="line" smooth="yes"/>
			<point x="39" y="690"/>
			<point x="32" y="689"/>
			<point x="32" y="683" type="curve" smooth="yes"/>
			<point x="32" y="668" type="line" smooth="yes"/>
			<point x="32" y="662"/>
			<point x="35" y="660"/>
			<point x="40" y="660" type="curve"/>
			<point x="67" y="658" type="line" smooth="yes"/>
			<point x="78" y="657"/>
			<point x="98" y="657"/>
			<point x="108" y="652" type="curve" smooth="yes"/>
			<point x="116" y="648"/>
			<point x="120" y="640"/>
			<point x="120" y="623" type="curve" smooth="yes"/>
			<point x="122" y="410"/>
			<point x="122" y="36"/>
			<point x="120" y="-161" type="curve"/>
			<point x="120" y="-188"/>
			<point x="116" y="-192"/>
			<point x="67" y="-196" type="curve" smooth="yes"/>
			<point x="55" y="-197"/>
			<point x="32" y="-191"/>
			<point x="32" y="-209" type="curve" smooth="yes"/>
			<point x="32" y="-220" type="line" smooth="yes"/>
			<point x="32" y="-228"/>
			<point x="45" y="-229"/>
			<point x="51" y="-229" type="curve"/>
			<point x="84" y="-231"/>
			<point x="144" y="-230"/>
			<point x="177" y="-229" type="curve" smooth="yes"/>
			<point x="192" y="-228"/>
			<point x="200" y="-223"/>
		</contour>
	</outline>
</glyph>
<glyph name="asciicircum" format="2">
	<advance width="491"/>
	<unicode hex="005E"/>
	<outline>
		<contour>
			<point x="468" y="356" type="curve" smooth="yes"/>
			<point x="416" y="449"/>
			<point x="328" y="598"/>
			<point x="259" y="711" type="curve"/>
			<point x="237" y="711" type="line"/>
			<point x="179" y="621"/>
			<point x="76" y="446"/>
			<point x="28" y="360" type="curve" smooth="yes"/>
			<point x="12" y="332"/>
			<point x="38" y="336"/>
			<point x="55" y="334" type="curve"/>
			<point x="65" y="334"/>
			<point x="73" y="333"/>
			<point x="81" y="347" type="curve" smooth="yes"/>
			<point x="119" y="414"/>
			<point x="196" y="547"/>
			<point x="238" y="612" type="curve" smooth="yes"/>
			<point x="244" y="622"/>
			<point x="253" y="617"/>
			<point x="258" y="609" type="curve" smooth="yes"/>
			<point x="300" y="542"/>
			<point x="374" y="417"/>
			<point x="411" y="351" type="curve" smooth="yes"/>
			<point x="418" y="338"/>
			<point x="422" y="332"/>
			<point x="438" y="334" type="curve" smooth="yes"/>
			<point x="458" y="336" type="line" smooth="yes"/>
			<point x="469" y="337"/>
			<point x="477" y="341"/>
		</contour>
	</outline>
</glyph>
<glyph name="underscore" format="2">
  <advance width="523"/>
  <unicode hex="005F"/>
  <outline>
    <contour>
      <point x="536" y="-220" type="curve" smooth="yes"/>
      <point x="536" y="-191" type="line" smooth="yes"/>
      <point x="536" y="-182"/>
      <point x="527" y="-179"/>
      <point x="516" y="-179" type="curve"/>
      <point x="505" y="-178"/>
      <point x="461" y="-180"/>
      <point x="454" y="-180" type="curve" smooth="yes"/>
      <point x="61" y="-180" type="line" smooth="yes"/>
      <point x="21" y="-180"/>
      <point x="-10" y="-173"/>
      <point x="-10" y="-187" type="curve" smooth="yes"/>
      <point x="-10" y="-214" type="line" smooth="yes"/>
      <point x="-10" y="-230"/>
      <point x="8" y="-232"/>
      <point x="28" y="-232" type="curve" smooth="yes"/>
      <point x="505" y="-232" type="line" smooth="yes"/>
      <point x="512" y="-232"/>
      <point x="519" y="-233"/>
      <point x="526" y="-232" type="curve" smooth="yes"/>
      <point x="532" y="-231"/>
      <point x="536" y="-228"/>
    </contour>
  </outline>
</glyph>
<glyph name="grave" format="2">
	<advance width="348"/>
	<unicode hex="0060"/>
	<outline>
		<contour>
			<point x="229" y="487" type="curve"/>
			<point x="219" y="530"/>
			<point x="197" y="605"/>
			<point x="180" y="650" type="curve"/>
			<point x="175" y="658"/>
			<point x="170" y="658"/>
			<point x="161" y="658" type="curve" smooth="yes"/>
			<point x="84" y="657" type="line" smooth="yes"/>
			<point x="72" y="657"/>
			<point x="64" y="644"/>
			<point x="70" y="638" type="curve" smooth="yes"/>
			<point x="113" y="591"/>
			<point x="172" y="522"/>
			<point x="204" y="480" type="curve"/>
			<point x="212" y="473"/>
			<point x="230" y="474"/>
		</contour>
	</outline>
</glyph>
<glyph name="c" format="2">
	<advance width="422"/>
	<unicode hex="0063"/>
	<outline>
		<contour>
			<point x="386" y="112" type="curve"/>
			<point x="382" y="117"/>
			<point x="384" y="118"/>
			<point x="378" y="121" type="curve"/>
			<point x="371" y="123"/>
			<point x="363" y="115"/>
			<point x="361" y="109" type="curve"/>
			<point x="333" y="68"/>
			<point x="294" y="42"/>
			<point x="243" y="42" type="curve" smooth="yes"/>
			<point x="164" y="42"/>
			<point x="105" y="113"/>
			<point x="105" y="216" type="curve" smooth="yes"/>
			<point x="105" y="313"/>
			<point x="165" y="394"/>
			<point x="231" y="394" type="curve" smooth="yes"/>
			<point x="251" y="394"/>
			<point x="266" y="388"/>
			<point x="288" y="366" type="curve" smooth="yes"/>
			<point x="314" y="341"/>
			<point x="329" y="331"/>
			<point x="350" y="331" type="curve" smooth="yes"/>
			<point x="370" y="331"/>
			<point x="386" y="347"/>
			<point x="386" y="368" type="curve" smooth="yes"/>
			<point x="386" y="407"/>
			<point x="330" y="432"/>
			<point x="267" y="432" type="curve" smooth="yes"/>
			<point x="133" y="432"/>
			<point x="25" y="326"/>
			<point x="25" y="193" type="curve" smooth="yes"/>
			<point x="25" y="75"/>
			<point x="102" y="-12"/>
			<point x="208" y="-12" type="curve" smooth="yes"/>
			<point x="280" y="-12"/>
			<point x="341" y="24"/>
			<point x="385" y="93" type="curve" smooth="yes"/>
			<point x="387" y="96"/>
			<point x="393" y="107"/>
		</contour>
	</outline>
</glyph>
<glyph name="d" format="2">
	<advance width="513"/>
	<unicode hex="0064"/>
	<outline>
		<contour>
			<point x="498" y="62" type="curve" smooth="yes"/>
			<point x="494" y="75"/>
			<point x="479" y="68"/>
			<point x="470" y="66" type="curve"/>
			<point x="464" y="64"/>
			<point x="454" y="60"/>
			<point x="448" y="60" type="curve" smooth="yes"/>
			<point x="427" y="60"/>
			<point x="421" y="61"/>
			<point x="421" y="117" type="curve" smooth="yes"/>
			<point x="421" y="716" type="line" smooth="yes"/>
			<point x="421" y="730"/>
			<point x="416" y="739"/>
			<point x="404" y="734" type="curve" smooth="yes"/>
			<point x="364" y="719"/>
			<point x="313" y="702"/>
			<point x="278" y="691" type="curve"/>
			<point x="272" y="690"/>
			<point x="269" y="687"/>
			<point x="268" y="682" type="curve" smooth="yes"/>
			<point x="267" y="677"/>
			<point x="268" y="673"/>
			<point x="269" y="668" type="curve"/>
			<point x="270" y="661"/>
			<point x="274" y="662"/>
			<point x="280" y="661" type="curve" smooth="yes"/>
			<point x="296" y="659"/>
			<point x="321" y="661"/>
			<point x="334" y="653" type="curve" smooth="yes"/>
			<point x="341" y="649"/>
			<point x="340" y="643"/>
			<point x="342" y="637" type="curve"/>
			<point x="343" y="586"/>
			<point x="345" y="510"/>
			<point x="342" y="436" type="curve"/>
			<point x="342" y="422"/>
			<point x="336" y="410"/>
			<point x="331" y="411" type="curve"/>
			<point x="304" y="420"/>
			<point x="273" y="427"/>
			<point x="248" y="427" type="curve" smooth="yes"/>
			<point x="120" y="427"/>
			<point x="23" y="324"/>
			<point x="23" y="191" type="curve" smooth="yes"/>
			<point x="23" y="78"/>
			<point x="96" y="-15"/>
			<point x="190" y="-15" type="curve" smooth="yes"/>
			<point x="229" y="-15"/>
			<point x="270" y="5"/>
			<point x="331" y="47" type="curve" smooth="yes"/>
			<point x="338" y="52"/>
			<point x="342" y="39"/>
			<point x="342" y="32" type="curve" smooth="yes"/>
			<point x="342" y="25"/>
			<point x="335" y="-20"/>
			<point x="360" y="-11" type="curve"/>
			<point x="395" y="-2"/>
			<point x="462" y="23"/>
			<point x="495" y="39" type="curve"/>
			<point x="500" y="41"/>
			<point x="501" y="53"/>
		</contour>
		<contour>
			<point x="341" y="106" type="line"/>
			<point x="340" y="95"/>
			<point x="335" y="85"/>
			<point x="331" y="83" type="curve"/>
			<point x="291" y="56"/>
			<point x="254" y="42"/>
			<point x="227" y="42" type="curve" smooth="yes"/>
			<point x="157" y="42"/>
			<point x="103" y="119"/>
			<point x="103" y="222" type="curve" smooth="yes"/>
			<point x="103" y="320"/>
			<point x="152" y="387"/>
			<point x="226" y="387" type="curve" smooth="yes"/>
			<point x="271" y="387"/>
			<point x="304" y="364"/>
			<point x="341" y="311" type="curve"/>
		</contour>
	</outline>
</glyph>
<glyph name="e" format="2">
	<advance width="428"/>
	<unicode hex="0065"/>
	<outline>
		<contour>
			<point x="404" y="276" type="curve" smooth="yes"/>
			<point x="405" y="283"/>
			<point x="405" y="286"/>
			<point x="403" y="292" type="curve"/>
			<point x="394" y="303"/>
			<point x="388" y="312"/>
			<point x="383" y="324" type="curve" smooth="yes"/>
			<point x="375" y="341" type="line" smooth="yes"/>
			<point x="346" y="401"/>
			<point x="301" y="429"/>
			<point x="231" y="429" type="curve" smooth="yes"/>
			<point x="113" y="429"/>
			<point x="26" y="332"/>
			<point x="26" y="202" type="curve" smooth="yes"/>
			<point x="26" y="81"/>
			<point x="105" y="-15"/>
			<point x="211" y="-15" type="curve" smooth="yes"/>
			<point x="251" y="-15"/>
			<point x="295" y="2"/>
			<point x="329" y="28" type="curve" smooth="yes"/>
			<point x="355" y="49"/>
			<point x="381" y="75"/>
			<point x="400" y="97" type="curve"/>
			<point x="404" y="104"/>
			<point x="398" y="116"/>
			<point x="390" y="118" type="curve" smooth="yes"/>
			<point x="385" y="119"/>
			<point x="378" y="117"/>
			<point x="375" y="113" type="curve"/>
			<point x="336" y="67"/>
			<point x="299" y="49"/>
			<point x="251" y="49" type="curve" smooth="yes"/>
			<point x="166" y="49"/>
			<point x="101" y="124"/>
			<point x="101" y="227" type="curve" smooth="yes"/>
			<point x="101" y="240"/>
			<point x="101" y="246"/>
			<point x="103" y="257" type="curve" smooth="yes"/>
			<point x="104" y="264"/>
			<point x="114" y="267"/>
			<point x="122" y="267" type="curve" smooth="yes"/>
			<point x="186" y="266"/>
			<point x="313" y="264"/>
			<point x="390" y="267" type="curve" smooth="yes"/>
			<point x="396" y="267"/>
			<point x="403" y="269"/>
		</contour>
		<contour>
			<point x="302" y="311" type="curve" smooth="yes"/>
			<point x="304" y="302"/>
			<point x="286" y="299"/>
			<point x="278" y="299" type="curve" smooth="yes"/>
			<point x="128" y="299" type="line" smooth="yes"/>
			<point x="124" y="299"/>
			<point x="110" y="302"/>
			<point x="112" y="307" type="curve"/>
			<point x="131" y="367"/>
			<point x="166" y="398"/>
			<point x="209" y="398" type="curve" smooth="yes"/>
			<point x="252" y="398"/>
			<point x="287" y="366"/>
		</contour>
	</outline>
</glyph>
<glyph name="e.sc" format="2">
  <advance width="457"/>
  <unicode hex="0065"/>
  <outline>
    <contour>
      <point x="411" y="113" type="line"/>
      <point x="412" y="120"/>
      <point x="412" y="123"/>
      <point x="405" y="126" type="curve" smooth="yes"/>
      <point x="400" y="128"/>
      <point x="395" y="128"/>
      <point x="389" y="127" type="curve"/>
      <point x="380" y="125"/>
      <point x="382" y="126"/>
      <point x="379" y="115" type="curve" smooth="yes"/>
      <point x="365" y="52"/>
      <point x="349" y="45"/>
      <point x="287" y="45" type="curve" smooth="yes"/>
      <point x="225" y="45" type="line" smooth="yes"/>
      <point x="184" y="45"/>
      <point x="187" y="65"/>
      <point x="187" y="98" type="curve" smooth="yes"/>
      <point x="187" y="211" type="line" smooth="yes"/>
      <point x="187" y="221"/>
      <point x="199" y="223"/>
      <point x="205" y="223" type="curve" smooth="yes"/>
      <point x="218" y="223"/>
      <point x="269" y="225"/>
      <point x="294" y="223" type="curve" smooth="yes"/>
      <point x="320" y="221"/>
      <point x="322" y="213"/>
      <point x="328" y="176" type="curve" smooth="yes"/>
      <point x="330" y="162"/>
      <point x="355" y="169"/>
      <point x="359" y="175" type="curve"/>
      <point x="359" y="199"/>
      <point x="357" y="276"/>
      <point x="359" y="311" type="curve"/>
      <point x="360" y="318"/>
      <point x="346" y="321"/>
      <point x="336" y="319" type="curve"/>
      <point x="328" y="319"/>
      <point x="328" y="318"/>
      <point x="327" y="311" type="curve" smooth="yes"/>
      <point x="323" y="279"/>
      <point x="321" y="273"/>
      <point x="300" y="271" type="curve" smooth="yes"/>
      <point x="270" y="268"/>
      <point x="225" y="270"/>
      <point x="202" y="270" type="curve" smooth="yes"/>
      <point x="195" y="270"/>
      <point x="187" y="272"/>
      <point x="187" y="281" type="curve" smooth="yes"/>
      <point x="187" y="417" type="line" smooth="yes"/>
      <point x="187" y="432"/>
      <point x="199" y="434"/>
      <point x="204" y="434" type="curve" smooth="yes"/>
      <point x="285" y="434" type="line" smooth="yes"/>
      <point x="337" y="433"/>
      <point x="345" y="429"/>
      <point x="353" y="372" type="curve" smooth="yes"/>
      <point x="354" y="366"/>
      <point x="355" y="361"/>
      <point x="361" y="360" type="curve" smooth="yes"/>
      <point x="371" y="358"/>
      <point x="385" y="360"/>
      <point x="385" y="367" type="curve"/>
      <point x="387" y="400"/>
      <point x="383" y="445"/>
      <point x="379" y="467" type="curve"/>
      <point x="376" y="475"/>
      <point x="372" y="476"/>
      <point x="365" y="478" type="curve"/>
      <point x="301" y="479"/>
      <point x="140" y="479"/>
      <point x="47" y="478" type="curve"/>
      <point x="34" y="476"/>
      <point x="34" y="455"/>
      <point x="40" y="446" type="curve"/>
      <point x="45" y="437"/>
      <point x="54" y="441"/>
      <point x="63" y="441" type="curve" smooth="yes"/>
      <point x="105" y="441"/>
      <point x="110" y="440"/>
      <point x="110" y="375" type="curve" smooth="yes"/>
      <point x="110" y="104" type="line" smooth="yes"/>
      <point x="110" y="39"/>
      <point x="105" y="37"/>
      <point x="51" y="37" type="curve" smooth="yes"/>
      <point x="46" y="37"/>
      <point x="30" y="38"/>
      <point x="26" y="29" type="curve" smooth="yes"/>
      <point x="23" y="22"/>
      <point x="24" y="11"/>
      <point x="26" y="4" type="curve"/>
      <point x="29" y="-3"/>
      <point x="36" y="-3"/>
      <point x="42" y="-2" type="curve"/>
      <point x="137" y="-1"/>
      <point x="290" y="-2"/>
      <point x="384" y="-3" type="curve"/>
      <point x="392" y="-1"/>
      <point x="399" y="3"/>
      <point x="403" y="18" type="curve"/>
    </contour>
  </outline>
</glyph>
<glyph name="f" format="2">
  <advance width="321"/>
  <unicode hex="0066"/>
  <outline>
    <contour>
      <point x="439" y="671" type="curve" smooth="yes"/>
      <point x="439" y="675"/>
      <point x="438" y="679"/>
      <point x="436" y="682" type="curve" smooth="yes"/>
      <point x="415" y="713"/>
      <point x="359" y="727"/>
      <point x="327" y="727" type="curve" smooth="yes"/>
      <point x="273" y="727"/>
      <point x="219" y="701"/>
      <point x="170" y="647" type="curve" smooth="yes"/>
      <point x="115" y="588"/>
      <point x="103" y="543"/>
      <point x="99" y="467" type="curve" smooth="yes"/>
      <point x="98" y="442"/>
      <point x="97" y="436"/>
      <point x="97" y="413" type="curve"/>
      <point x="76" y="401"/>
      <point x="53" y="393"/>
      <point x="22" y="386" type="curve"/>
      <point x="16" y="382"/>
      <point x="15" y="356"/>
      <point x="22" y="356" type="curve" smooth="yes"/>
      <point x="85" y="356" type="line"/>
      <point x="91" y="355"/>
      <point x="95" y="351"/>
      <point x="97" y="340" type="curve"/>
      <point x="97" y="132" type="line" smooth="yes"/>
      <point x="97" y="51"/>
      <point x="93" y="31"/>
      <point x="44" y="31" type="curve" smooth="yes"/>
      <point x="37" y="31"/>
      <point x="29" y="32"/>
      <point x="26" y="24" type="curve"/>
      <point x="24" y="21"/>
      <point x="24" y="16"/>
      <point x="24" y="13" type="curve" smooth="yes"/>
      <point x="24" y="6"/>
      <point x="26" y="-3"/>
      <point x="32" y="-3" type="curve" smooth="yes"/>
      <point x="94" y="0"/>
      <point x="220" y="-1"/>
      <point x="284" y="-3" type="curve" smooth="yes"/>
      <point x="289" y="-3"/>
      <point x="293" y="5"/>
      <point x="293" y="13" type="curve"/>
      <point x="292" y="24"/>
      <point x="291" y="33"/>
      <point x="280" y="34" type="curve" smooth="yes"/>
      <point x="270" y="35"/>
      <point x="258" y="34"/>
      <point x="246" y="34" type="curve" smooth="yes"/>
      <point x="181" y="33"/>
      <point x="177" y="33"/>
      <point x="177" y="128" type="curve" smooth="yes"/>
      <point x="177" y="341" type="line" smooth="yes"/>
      <point x="177" y="345"/>
      <point x="182" y="354"/>
      <point x="190" y="354" type="curve" smooth="yes"/>
      <point x="275" y="353" type="line" smooth="yes"/>
      <point x="283" y="353"/>
      <point x="286" y="356"/>
      <point x="287" y="361" type="curve"/>
      <point x="287" y="361"/>
      <point x="281" y="405"/>
      <point x="280" y="406" type="curve"/>
      <point x="279" y="411"/>
      <point x="271" y="415"/>
      <point x="266" y="415" type="curve" smooth="yes"/>
      <point x="192" y="415" type="line" smooth="yes"/>
      <point x="178" y="415"/>
      <point x="177" y="424"/>
      <point x="177" y="435" type="curve" smooth="yes"/>
      <point x="176" y="504" type="line" smooth="yes"/>
      <point x="175" y="550"/>
      <point x="180" y="576"/>
      <point x="190" y="603" type="curve" smooth="yes"/>
      <point x="204" y="643"/>
      <point x="241" y="669"/>
      <point x="282" y="669" type="curve" smooth="yes"/>
      <point x="312" y="669"/>
      <point x="351" y="652"/>
      <point x="378" y="630" type="curve" smooth="yes"/>
      <point x="392" y="619"/>
      <point x="405" y="607"/>
      <point x="419" y="629" type="curve" smooth="yes"/>
      <point x="429" y="645"/>
      <point x="439" y="662"/>
    </contour>
  </outline>
</glyph>
<glyph name="f.sc" format="2">
  <advance width="410"/>
  <unicode hex="0066"/>
  <outline>
    <contour>
      <point x="325" y="377" type="curve"/>
      <point x="328" y="368"/>
      <point x="355" y="366"/>
      <point x="356" y="378" type="curve" smooth="yes"/>
      <point x="359" y="404"/>
      <point x="357" y="439"/>
      <point x="355" y="459" type="curve"/>
      <point x="355" y="474"/>
      <point x="341" y="478"/>
      <point x="329" y="478" type="curve" smooth="yes"/>
      <point x="241" y="476"/>
      <point x="111" y="476"/>
      <point x="51" y="478" type="curve" smooth="yes"/>
      <point x="34" y="478"/>
      <point x="34" y="448"/>
      <point x="45" y="445" type="curve"/>
      <point x="79" y="443"/>
      <point x="91" y="435"/>
      <point x="91" y="400" type="curve" smooth="yes"/>
      <point x="91" y="76" type="line" smooth="yes"/>
      <point x="91" y="42"/>
      <point x="83" y="37"/>
      <point x="47" y="34" type="curve"/>
      <point x="30" y="34"/>
      <point x="30" y="-3"/>
      <point x="48" y="-2" type="curve" smooth="yes"/>
      <point x="100" y="-1"/>
      <point x="170" y="-1"/>
      <point x="220" y="-2" type="curve"/>
      <point x="234" y="-4"/>
      <point x="238" y="34"/>
      <point x="222" y="34" type="curve" smooth="yes"/>
      <point x="215" y="34" type="line" smooth="yes"/>
      <point x="178" y="34"/>
      <point x="168" y="41"/>
      <point x="168" y="76" type="curve" smooth="yes"/>
      <point x="168" y="106"/>
      <point x="168" y="81"/>
      <point x="168" y="210" type="curve" smooth="yes"/>
      <point x="168" y="220"/>
      <point x="173" y="232"/>
      <point x="184" y="232" type="curve" smooth="yes"/>
      <point x="210" y="232"/>
      <point x="244" y="233"/>
      <point x="274" y="231" type="curve" smooth="yes"/>
      <point x="304" y="229"/>
      <point x="308" y="220"/>
      <point x="311" y="184" type="curve"/>
      <point x="313" y="173"/>
      <point x="339" y="171"/>
      <point x="341" y="185" type="curve"/>
      <point x="340" y="225"/>
      <point x="340" y="284"/>
      <point x="342" y="311" type="curve"/>
      <point x="340" y="326"/>
      <point x="312" y="330"/>
      <point x="310" y="310" type="curve" smooth="yes"/>
      <point x="308" y="285"/>
      <point x="303" y="279"/>
      <point x="274" y="278" type="curve" smooth="yes"/>
      <point x="242" y="277"/>
      <point x="212" y="277"/>
      <point x="181" y="278" type="curve"/>
      <point x="172" y="279"/>
      <point x="168" y="286"/>
      <point x="168" y="293" type="curve" smooth="yes"/>
      <point x="167" y="324"/>
      <point x="166" y="386"/>
      <point x="168" y="417" type="curve"/>
      <point x="169" y="425"/>
      <point x="177" y="432"/>
      <point x="184" y="432" type="curve" smooth="yes"/>
      <point x="256" y="432" type="line" smooth="yes"/>
      <point x="318" y="432"/>
      <point x="323" y="425"/>
    </contour>
  </outline>
</glyph>
<glyph name="g.sc" format="2">
  <advance width="546"/>
  <unicode hex="0067"/>
  <outline>
    <contour>
      <point x="470" y="134" type="curve"/>
      <point x="470" y="168"/>
      <point x="479" y="178"/>
      <point x="508" y="179" type="curve" smooth="yes"/>
      <point x="521" y="179"/>
      <point x="524" y="213"/>
      <point x="504" y="212" type="curve" smooth="yes"/>
      <point x="449" y="208"/>
      <point x="363" y="210"/>
      <point x="323" y="212" type="curve"/>
      <point x="307" y="209"/>
      <point x="306" y="192"/>
      <point x="311" y="183" type="curve" smooth="yes"/>
      <point x="318" y="170"/>
      <point x="334" y="176"/>
      <point x="346" y="176" type="curve" smooth="yes"/>
      <point x="383" y="176"/>
      <point x="393" y="163"/>
      <point x="393" y="127" type="curve" smooth="yes"/>
      <point x="393" y="74" type="line" smooth="yes"/>
      <point x="393" y="64"/>
      <point x="385" y="47"/>
      <point x="380" y="45" type="curve"/>
      <point x="354" y="33"/>
      <point x="328" y="27"/>
      <point x="302" y="27" type="curve" smooth="yes"/>
      <point x="201" y="27"/>
      <point x="137" y="109"/>
      <point x="137" y="235" type="curve" smooth="yes"/>
      <point x="137" y="371"/>
      <point x="200" y="453"/>
      <point x="310" y="453" type="curve" smooth="yes"/>
      <point x="380" y="453"/>
      <point x="420" y="415"/>
      <point x="435" y="337" type="curve" smooth="yes"/>
      <point x="437" y="326"/>
      <point x="467" y="323"/>
      <point x="468" y="340" type="curve" smooth="yes"/>
      <point x="469" y="366"/>
      <point x="470" y="417"/>
      <point x="468" y="449" type="curve"/>
      <point x="468" y="462"/>
      <point x="464" y="469"/>
      <point x="462" y="470" type="curve"/>
      <point x="455" y="471"/>
      <point x="450" y="471"/>
      <point x="444" y="469" type="curve"/>
      <point x="435" y="461"/>
      <point x="423" y="466"/>
      <point x="413" y="469" type="curve" smooth="yes"/>
      <point x="362" y="484"/>
      <point x="337" y="490"/>
      <point x="299" y="490" type="curve" smooth="yes"/>
      <point x="154" y="490"/>
      <point x="52" y="371"/>
      <point x="52" y="230" type="curve" smooth="yes"/>
      <point x="52" y="90"/>
      <point x="143" y="-14"/>
      <point x="280" y="-14" type="curve" smooth="yes"/>
      <point x="335" y="-14"/>
      <point x="406" y="4"/>
      <point x="456" y="29" type="curve" smooth="yes"/>
      <point x="462" y="32"/>
      <point x="468" y="39"/>
      <point x="470" y="54" type="curve"/>
      <point x="469" y="73"/>
      <point x="468" y="108"/>
    </contour>
  </outline>
</glyph>
<glyph name="h.sc" format="2">
  <advance width="603"/>
  <unicode hex="0068"/>
  <outline>
    <contour>
      <point x="550" y="-3" type="curve" smooth="yes"/>
      <point x="565" y="-3"/>
      <point x="569" y="17"/>
      <point x="562" y="27" type="curve"/>
      <point x="559" y="33"/>
      <point x="554" y="35"/>
      <point x="548" y="35" type="curve" smooth="yes"/>
      <point x="515" y="35"/>
      <point x="497" y="41"/>
      <point x="497" y="81" type="curve" smooth="yes"/>
      <point x="497" y="200"/>
      <point x="496" y="293"/>
      <point x="496" y="400" type="curve" smooth="yes"/>
      <point x="496" y="428"/>
      <point x="500" y="441"/>
      <point x="542" y="444" type="curve"/>
      <point x="551" y="447"/>
      <point x="559" y="478"/>
      <point x="537" y="478" type="curve" smooth="yes"/>
      <point x="486" y="477"/>
      <point x="403" y="477"/>
      <point x="358" y="478" type="curve"/>
      <point x="346" y="479"/>
      <point x="339" y="447"/>
      <point x="357" y="443" type="curve"/>
      <point x="372" y="443" type="line" smooth="yes"/>
      <point x="410" y="443"/>
      <point x="419" y="435"/>
      <point x="419" y="400" type="curve" smooth="yes"/>
      <point x="419" y="358"/>
      <point x="419" y="317"/>
      <point x="419" y="275" type="curve" smooth="yes"/>
      <point x="419" y="266"/>
      <point x="407" y="263"/>
      <point x="397" y="263" type="curve" smooth="yes"/>
      <point x="328" y="262"/>
      <point x="261" y="262"/>
      <point x="209" y="263" type="curve" smooth="yes"/>
      <point x="196" y="263"/>
      <point x="185" y="263"/>
      <point x="185" y="274" type="curve" smooth="yes"/>
      <point x="185" y="316"/>
      <point x="185" y="358"/>
      <point x="185" y="400" type="curve" smooth="yes"/>
      <point x="185" y="435"/>
      <point x="193" y="443"/>
      <point x="231" y="443" type="curve"/>
      <point x="238" y="444"/>
      <point x="243" y="445"/>
      <point x="245" y="452" type="curve"/>
      <point x="246" y="458"/>
      <point x="248" y="467"/>
      <point x="242" y="473" type="curve"/>
      <point x="240" y="476"/>
      <point x="236" y="478"/>
      <point x="232" y="478" type="curve" smooth="yes"/>
      <point x="183" y="476"/>
      <point x="123" y="476"/>
      <point x="73" y="478" type="curve" smooth="yes"/>
      <point x="70" y="478"/>
      <point x="67" y="477"/>
      <point x="64" y="478" type="curve"/>
      <point x="53" y="479"/>
      <point x="50" y="445"/>
      <point x="64" y="444" type="curve" smooth="yes"/>
      <point x="98" y="441"/>
      <point x="106" y="435"/>
      <point x="106" y="400" type="curve" smooth="yes"/>
      <point x="106" y="375" type="line"/>
      <point x="106" y="76" type="line" smooth="yes"/>
      <point x="106" y="41"/>
      <point x="97" y="34"/>
      <point x="60" y="34" type="curve" smooth="yes"/>
      <point x="53" y="34" type="line" smooth="yes"/>
      <point x="38" y="34"/>
      <point x="34" y="-3"/>
      <point x="53" y="-3" type="curve"/>
      <point x="67" y="-1"/>
      <point x="189" y="-2"/>
      <point x="234" y="-3" type="curve" smooth="yes"/>
      <point x="249" y="-3"/>
      <point x="252" y="19"/>
      <point x="245" y="29" type="curve" smooth="yes"/>
      <point x="242" y="33"/>
      <point x="236" y="34"/>
      <point x="231" y="34" type="curve" smooth="yes"/>
      <point x="197" y="34"/>
      <point x="185" y="44"/>
      <point x="185" y="76" type="curve" smooth="yes"/>
      <point x="185" y="203" type="line" smooth="yes"/>
      <point x="185" y="211"/>
      <point x="189" y="218"/>
      <point x="194" y="218" type="curve" smooth="yes"/>
      <point x="264" y="219"/>
      <point x="350" y="219"/>
      <point x="404" y="218" type="curve" smooth="yes"/>
      <point x="417" y="218"/>
      <point x="419" y="206"/>
      <point x="419" y="199" type="curve" smooth="yes"/>
      <point x="419" y="83"/>
      <point x="419" y="106"/>
      <point x="419" y="76" type="curve" smooth="yes"/>
      <point x="419" y="50"/>
      <point x="406" y="35"/>
      <point x="372" y="35" type="curve" smooth="yes"/>
      <point x="365" y="35"/>
      <point x="358" y="36"/>
      <point x="351" y="35" type="curve"/>
      <point x="338" y="31"/>
      <point x="338" y="13"/>
      <point x="344" y="3" type="curve" smooth="yes"/>
      <point x="348" y="-4"/>
      <point x="356" y="-2"/>
      <point x="366" y="-2" type="curve" smooth="yes"/>
      <point x="398" y="-1"/>
      <point x="472" y="0"/>
    </contour>
  </outline>
</glyph>
<glyph name="i" format="2">
	<advance width="266"/>
	<unicode hex="0069"/>
	<outline>
		<contour>
			<point x="180" y="613" type="curve" smooth="yes"/>
			<point x="180" y="644"/>
			<point x="158" y="665"/>
			<point x="126" y="665" type="curve" smooth="yes"/>
			<point x="96" y="665"/>
			<point x="74" y="642"/>
			<point x="74" y="613" type="curve" smooth="yes"/>
			<point x="74" y="584"/>
			<point x="93" y="562"/>
			<point x="125" y="562" type="curve" smooth="yes"/>
			<point x="156" y="562"/>
			<point x="180" y="584"/>
		</contour>
		<contour>
			<point x="247" y="23" type="curve"/>
			<point x="246" y="30"/>
			<point x="236" y="37"/>
			<point x="229" y="34" type="curve"/>
			<point x="188" y="34"/>
			<point x="181" y="35"/>
			<point x="179" y="73" type="curve" smooth="yes"/>
			<point x="178" y="87"/>
			<point x="178" y="104"/>
			<point x="178" y="125" type="curve" smooth="yes"/>
			<point x="178" y="413" type="line" smooth="yes"/>
			<point x="178" y="429"/>
			<point x="176" y="447"/>
			<point x="153" y="439" type="curve"/>
			<point x="124" y="433"/>
			<point x="61" y="406"/>
			<point x="31" y="395" type="curve"/>
			<point x="25" y="391"/>
			<point x="25" y="372"/>
			<point x="32" y="370" type="curve"/>
			<point x="46" y="365"/>
			<point x="58" y="362"/>
			<point x="73" y="359" type="curve" smooth="yes"/>
			<point x="98" y="354"/>
			<point x="100" y="354"/>
			<point x="100" y="304" type="curve" smooth="yes"/>
			<point x="100" y="125" type="line" smooth="yes"/>
			<point x="100" y="48"/>
			<point x="99" y="38"/>
			<point x="56" y="33" type="curve" smooth="yes"/>
			<point x="47" y="32"/>
			<point x="44" y="34"/>
			<point x="35" y="33" type="curve" smooth="yes"/>
			<point x="28" y="32"/>
			<point x="19" y="26"/>
			<point x="20" y="18" type="curve"/>
			<point x="20" y="16"/>
			<point x="20" y="4"/>
			<point x="21" y="5" type="curve"/>
			<point x="22" y="0"/>
			<point x="25" y="-3"/>
			<point x="32" y="-3" type="curve" smooth="yes"/>
			<point x="83" y="-1"/>
			<point x="181" y="-2"/>
			<point x="232" y="-3" type="curve" smooth="yes"/>
			<point x="243" y="-3"/>
			<point x="246" y="3"/>
			<point x="246" y="13" type="curve" smooth="yes"/>
			<point x="246" y="16"/>
			<point x="247" y="20"/>
		</contour>
	</outline>
</glyph>
<glyph name="j" format="2">
	<advance width="247"/>
	<unicode hex="006A"/>
	<outline>
		<contour>
			<point x="171" y="603" type="curve" smooth="yes"/>
			<point x="171" y="632"/>
			<point x="149" y="654"/>
			<point x="117" y="654" type="curve" smooth="yes"/>
			<point x="86" y="654"/>
			<point x="62" y="632"/>
			<point x="62" y="603" type="curve" smooth="yes"/>
			<point x="62" y="574"/>
			<point x="85" y="551"/>
			<point x="117" y="551" type="curve" smooth="yes"/>
			<point x="148" y="551"/>
			<point x="171" y="574"/>
		</contour>
		<contour>
			<point x="170" y="25" type="curve" smooth="yes"/>
			<point x="170" y="425" type="line" smooth="yes"/>
			<point x="170" y="435"/>
			<point x="165" y="451"/>
			<point x="148" y="445" type="curve" smooth="yes"/>
			<point x="80" y="423"/>
			<point x="31" y="402"/>
			<point x="24" y="399" type="curve"/>
			<point x="18" y="396"/>
			<point x="18" y="376"/>
			<point x="24" y="374" type="curve"/>
			<point x="32" y="372"/>
			<point x="44" y="370"/>
			<point x="55" y="367" type="curve"/>
			<point x="66" y="365"/>
			<point x="77" y="362"/>
			<point x="83" y="359" type="curve"/>
			<point x="91" y="354"/>
			<point x="93" y="353"/>
			<point x="93" y="308" type="curve" smooth="yes"/>
			<point x="93" y="-13" type="line"/>
			<point x="93" y="-75" type="line" smooth="yes"/>
			<point x="93" y="-162"/>
			<point x="72" y="-195"/>
			<point x="29" y="-195" type="curve" smooth="yes"/>
			<point x="6" y="-195"/>
			<point x="-16" y="-179"/>
			<point x="-30" y="-163" type="curve" smooth="yes"/>
			<point x="-40" y="-151"/>
			<point x="-55" y="-133"/>
			<point x="-71" y="-133" type="curve" smooth="yes"/>
			<point x="-92" y="-133"/>
			<point x="-107" y="-159"/>
			<point x="-107" y="-186" type="curve" smooth="yes"/>
			<point x="-107" y="-220"/>
			<point x="-66" y="-244"/>
			<point x="-9" y="-244" type="curve" smooth="yes"/>
			<point x="39" y="-244"/>
			<point x="78" y="-230"/>
			<point x="109" y="-196" type="curve" smooth="yes"/>
			<point x="126" y="-178"/>
			<point x="140" y="-157"/>
			<point x="150" y="-133" type="curve" smooth="yes"/>
			<point x="167" y="-91"/>
			<point x="170" y="-62"/>
		</contour>
	</outline>
</glyph>
<glyph name="j.sc" format="2">
  <advance width="313"/>
  <unicode hex="006A"/>
  <outline>
    <contour>
      <point x="241" y="442" type="curve"/>
      <point x="245" y="442"/>
      <point x="258" y="441"/>
      <point x="260" y="446" type="curve" smooth="yes"/>
      <point x="264" y="455"/>
      <point x="264" y="477"/>
      <point x="250" y="479" type="curve"/>
      <point x="206" y="476"/>
      <point x="119" y="475"/>
      <point x="78" y="478" type="curve"/>
      <point x="72" y="478"/>
      <point x="65" y="480"/>
      <point x="62" y="473" type="curve"/>
      <point x="57" y="465"/>
      <point x="56" y="444"/>
      <point x="71" y="442" type="curve"/>
      <point x="79" y="442" type="line" smooth="yes"/>
      <point x="114" y="442"/>
      <point x="125" y="431"/>
      <point x="126" y="399" type="curve" smooth="yes"/>
      <point x="126" y="374" type="line"/>
      <point x="126" y="7" type="line" smooth="yes"/>
      <point x="126" y="-94"/>
      <point x="124" y="-120"/>
      <point x="110" y="-141" type="curve" smooth="yes"/>
      <point x="102" y="-154"/>
      <point x="82" y="-162"/>
      <point x="71" y="-155" type="curve" smooth="yes"/>
      <point x="58" y="-146"/>
      <point x="40" y="-120"/>
      <point x="25" y="-120" type="curve" smooth="yes"/>
      <point x="5" y="-120"/>
      <point x="-17" y="-145"/>
      <point x="-17" y="-165" type="curve" smooth="yes"/>
      <point x="-17" y="-198"/>
      <point x="20" y="-212"/>
      <point x="58" y="-212" type="curve" smooth="yes"/>
      <point x="101" y="-212"/>
      <point x="133" y="-186"/>
      <point x="158" y="-146" type="curve" smooth="yes"/>
      <point x="175" y="-117"/>
      <point x="186" y="-77"/>
      <point x="193" y="-42" type="curve" smooth="yes"/>
      <point x="199" y="-13"/>
      <point x="203" y="25"/>
      <point x="203" y="55" type="curve" smooth="yes"/>
      <point x="203" y="374" type="line"/>
      <point x="203" y="399" type="line" smooth="yes"/>
      <point x="203" y="434"/>
      <point x="215" y="440"/>
    </contour>
  </outline>
</glyph>
<glyph name="k" format="2">
  <advance width="518"/>
  <unicode hex="006B"/>
  <outline>
    <contour>
      <point x="496" y="-3" type="curve"/>
      <point x="504" y="-4"/>
      <point x="506" y="25"/>
      <point x="496" y="29" type="curve"/>
      <point x="486" y="29" type="line" smooth="yes"/>
      <point x="452" y="29"/>
      <point x="440" y="40"/>
      <point x="417" y="63" type="curve" smooth="yes"/>
      <point x="354" y="126"/>
      <point x="296" y="186"/>
      <point x="236" y="248" type="curve" smooth="yes"/>
      <point x="231" y="253"/>
      <point x="229" y="263"/>
      <point x="232" y="266" type="curve"/>
      <point x="268" y="291"/>
      <point x="303" y="317"/>
      <point x="338" y="343" type="curve" smooth="yes"/>
      <point x="373" y="370"/>
      <point x="417" y="388"/>
      <point x="461" y="389" type="curve" smooth="yes"/>
      <point x="464" y="389"/>
      <point x="467" y="399"/>
      <point x="467" y="406" type="curve" smooth="yes"/>
      <point x="467" y="413"/>
      <point x="465" y="422"/>
      <point x="457" y="422" type="curve" smooth="yes"/>
      <point x="410" y="421"/>
      <point x="333" y="420"/>
      <point x="271" y="421" type="curve" smooth="yes"/>
      <point x="260" y="421"/>
      <point x="258" y="418"/>
      <point x="257" y="407" type="curve" smooth="yes"/>
      <point x="256" y="397"/>
      <point x="260" y="393"/>
      <point x="268" y="389" type="curve"/>
      <point x="276" y="389"/>
      <point x="313" y="389"/>
      <point x="313" y="377" type="curve" smooth="yes"/>
      <point x="313" y="374"/>
      <point x="309" y="369"/>
      <point x="287" y="353" type="curve" smooth="yes"/>
      <point x="181" y="276" type="line"/>
      <point x="176" y="273"/>
      <point x="161" y="267"/>
      <point x="161" y="279" type="curve" smooth="yes"/>
      <point x="160" y="705" type="line" smooth="yes"/>
      <point x="160" y="721"/>
      <point x="153" y="726"/>
      <point x="138" y="722" type="curve" smooth="yes"/>
      <point x="99" y="712"/>
      <point x="75" y="695"/>
      <point x="21" y="681" type="curve" smooth="yes"/>
      <point x="14" y="679"/>
      <point x="12" y="656"/>
      <point x="21" y="654" type="curve"/>
      <point x="22" y="654"/>
      <point x="34" y="651"/>
      <point x="47" y="648" type="curve" smooth="yes"/>
      <point x="56" y="646"/>
      <point x="80" y="639"/>
      <point x="81" y="626" type="curve" smooth="yes"/>
      <point x="82" y="607"/>
      <point x="82" y="593"/>
      <point x="82" y="573" type="curve" smooth="yes"/>
      <point x="82" y="132" type="line" smooth="yes"/>
      <point x="82" y="41"/>
      <point x="80" y="31"/>
      <point x="31" y="31" type="curve" smooth="yes"/>
      <point x="15" y="31"/>
      <point x="15" y="27"/>
      <point x="16" y="13" type="curve"/>
      <point x="16" y="6"/>
      <point x="18" y="-3"/>
      <point x="23" y="-3" type="curve" smooth="yes"/>
      <point x="75" y="-2"/>
      <point x="169" y="-2"/>
      <point x="227" y="-3" type="curve"/>
      <point x="232" y="-4"/>
      <point x="235" y="5"/>
      <point x="235" y="13" type="curve" smooth="yes"/>
      <point x="235" y="21"/>
      <point x="232" y="30"/>
      <point x="227" y="30" type="curve" smooth="yes"/>
      <point x="215" y="30" type="line" smooth="yes"/>
      <point x="163" y="30"/>
      <point x="161" y="29"/>
      <point x="161" y="124" type="curve" smooth="yes"/>
      <point x="161" y="195" type="line" smooth="yes"/>
      <point x="161" y="199"/>
      <point x="161" y="217"/>
      <point x="169" y="211" type="curve"/>
      <point x="298" y="74" type="line" smooth="yes"/>
      <point x="318" y="52"/>
      <point x="321" y="48"/>
      <point x="321" y="43" type="curve" smooth="yes"/>
      <point x="321" y="37"/>
      <point x="312" y="29"/>
      <point x="286" y="29" type="curve" smooth="yes"/>
      <point x="273" y="29"/>
      <point x="271" y="27"/>
      <point x="271" y="14" type="curve" smooth="yes"/>
      <point x="271" y="6"/>
      <point x="275" y="-3"/>
      <point x="279" y="-3" type="curve" smooth="yes"/>
      <point x="332" y="-1"/>
      <point x="440" y="0"/>
    </contour>
  </outline>
</glyph>
<glyph name="l" format="2">
	<advance width="262"/>
	<unicode hex="006C"/>
	<outline>
		<contour>
			<point x="247" y="13" type="curve" smooth="yes"/>
			<point x="247" y="16"/>
			<point x="248" y="22"/>
			<point x="247" y="25" type="curve"/>
			<point x="246" y="33"/>
			<point x="233" y="31"/>
			<point x="228" y="31" type="curve" smooth="yes"/>
			<point x="179" y="31"/>
			<point x="176" y="39"/>
			<point x="176" y="98" type="curve" smooth="yes"/>
			<point x="176" y="699" type="line" smooth="yes"/>
			<point x="176" y="707"/>
			<point x="171" y="721"/>
			<point x="162" y="720" type="curve"/>
			<point x="104" y="698"/>
			<point x="57" y="685"/>
			<point x="30" y="678" type="curve"/>
			<point x="19" y="674"/>
			<point x="22" y="652"/>
			<point x="30" y="650" type="curve"/>
			<point x="47" y="647"/>
			<point x="63" y="644"/>
			<point x="80" y="641" type="curve" smooth="yes"/>
			<point x="90" y="639"/>
			<point x="96" y="635"/>
			<point x="96" y="623" type="curve" smooth="yes"/>
			<point x="96" y="97" type="line" smooth="yes"/>
			<point x="96" y="44"/>
			<point x="88" y="31"/>
			<point x="35" y="31" type="curve" smooth="yes"/>
			<point x="24" y="31" type="line"/>
			<point x="16" y="27"/>
			<point x="16" y="13"/>
			<point x="18" y="6" type="curve" smooth="yes"/>
			<point x="19" y="2"/>
			<point x="28" y="-2"/>
			<point x="30" y="-2" type="curve" smooth="yes"/>
			<point x="101" y="0"/>
			<point x="133" y="-6"/>
			<point x="235" y="-3" type="curve" smooth="yes"/>
			<point x="244" y="-3"/>
			<point x="247" y="4"/>
		</contour>
	</outline>
</glyph>
<glyph name="n" format="2">
  <advance width="516"/>
  <unicode hex="006E"/>
  <outline>
    <contour>
      <point x="501" y="7" type="curve"/>
      <point x="503" y="14"/>
      <point x="502" y="23"/>
      <point x="499" y="28" type="curve"/>
      <point x="495" y="33"/>
      <point x="488" y="34"/>
      <point x="483" y="31" type="curve"/>
      <point x="436" y="31"/>
      <point x="433" y="38"/>
      <point x="433" y="67" type="curve" smooth="yes"/>
      <point x="433" y="128"/>
      <point x="441" y="188"/>
      <point x="441" y="248" type="curve" smooth="yes"/>
      <point x="441" y="321"/>
      <point x="430" y="428"/>
      <point x="330" y="428" type="curve" smooth="yes"/>
      <point x="309" y="428"/>
      <point x="287" y="421"/>
      <point x="260" y="408" type="curve" smooth="yes"/>
      <point x="228" y="392"/>
      <point x="207" y="378"/>
      <point x="177" y="357" type="curve" smooth="yes"/>
      <point x="171" y="353"/>
      <point x="166" y="367"/>
      <point x="166" y="369" type="curve" smooth="yes"/>
      <point x="166" y="424" type="line" smooth="yes"/>
      <point x="166" y="436"/>
      <point x="159" y="445"/>
      <point x="143" y="441" type="curve" smooth="yes"/>
      <point x="106" y="433"/>
      <point x="57" y="403"/>
      <point x="25" y="398" type="curve"/>
      <point x="18" y="395"/>
      <point x="18" y="372"/>
      <point x="25" y="371" type="curve"/>
      <point x="45" y="367" type="line" smooth="yes"/>
      <point x="76" y="361"/>
      <point x="81" y="358"/>
      <point x="84" y="351" type="curve"/>
      <point x="87" y="345"/>
      <point x="88" y="328"/>
      <point x="88" y="270" type="curve" smooth="yes"/>
      <point x="88" y="133" type="line" smooth="yes"/>
      <point x="88" y="43"/>
      <point x="77" y="29"/>
      <point x="31" y="29" type="curve" smooth="yes"/>
      <point x="25" y="29" type="line" smooth="yes"/>
      <point x="15" y="29"/>
      <point x="14" y="12"/>
      <point x="17" y="3" type="curve"/>
      <point x="19" y="-2"/>
      <point x="27" y="-2"/>
      <point x="31" y="-2" type="curve"/>
      <point x="84" y="-5"/>
      <point x="171" y="-1"/>
      <point x="222" y="-3" type="curve"/>
      <point x="233" y="-2"/>
      <point x="236" y="2"/>
      <point x="236" y="14" type="curve"/>
      <point x="235" y="21"/>
      <point x="232" y="31"/>
      <point x="227" y="31" type="curve" smooth="yes"/>
      <point x="177" y="31"/>
      <point x="166" y="37"/>
      <point x="166" y="89" type="curve" smooth="yes"/>
      <point x="166" y="315" type="line"/>
      <point x="210" y="349"/>
      <point x="261" y="374"/>
      <point x="289" y="374" type="curve" smooth="yes"/>
      <point x="337" y="374"/>
      <point x="362" y="340"/>
      <point x="362" y="263" type="curve" smooth="yes"/>
      <point x="362" y="204"/>
      <point x="362" y="145"/>
      <point x="356" y="87" type="curve" smooth="yes"/>
      <point x="352" y="46"/>
      <point x="339" y="35"/>
      <point x="295" y="31" type="curve"/>
      <point x="288" y="31" type="line" smooth="yes"/>
      <point x="282" y="31"/>
      <point x="280" y="21"/>
      <point x="280" y="14" type="curve"/>
      <point x="281" y="1"/>
      <point x="283" y="-2"/>
      <point x="296" y="-2" type="curve" smooth="yes"/>
      <point x="348" y="0"/>
      <point x="436" y="-3"/>
      <point x="486" y="-2" type="curve" smooth="yes"/>
      <point x="497" y="-2"/>
      <point x="499" y="-3"/>
    </contour>
  </outline>
</glyph>
<glyph name="o" format="2">
  <advance width="503"/>
  <unicode hex="006F"/>
  <outline>
    <contour>
      <point x="478" y="206" type="curve" smooth="yes"/>
      <point x="479" y="333"/>
      <point x="379" y="430"/>
      <point x="250" y="430" type="curve" smooth="yes"/>
      <point x="122" y="430"/>
      <point x="25" y="335"/>
      <point x="25" y="207" type="curve" smooth="yes"/>
      <point x="25" y="81"/>
      <point x="123" y="-15"/>
      <point x="253" y="-15" type="curve" smooth="yes"/>
      <point x="379" y="-15"/>
      <point x="478" y="82"/>
    </contour>
    <contour>
      <point x="389" y="182" type="curve" smooth="yes"/>
      <point x="389" y="88"/>
      <point x="335" y="22"/>
      <point x="265" y="22" type="curve" smooth="yes"/>
      <point x="182" y="22"/>
      <point x="112" y="117"/>
      <point x="112" y="239" type="curve" smooth="yes"/>
      <point x="112" y="329"/>
      <point x="166" y="394"/>
      <point x="236" y="394" type="curve" smooth="yes"/>
      <point x="318" y="394"/>
      <point x="389" y="298"/>
    </contour>
  </outline>
</glyph>
<glyph name="o.sc" format="2">
  <advance width="577"/>
  <unicode hex="006F"/>
  <outline>
    <contour>
      <point x="289" y="-14" type="curve" smooth="yes"/>
      <point x="432" y="-14"/>
      <point x="536" y="97"/>
      <point x="536" y="245" type="curve" smooth="yes"/>
      <point x="536" y="383"/>
      <point x="435" y="490"/>
      <point x="290" y="490" type="curve" smooth="yes"/>
      <point x="143" y="490"/>
      <point x="40" y="380"/>
      <point x="40" y="232" type="curve" smooth="yes"/>
      <point x="40" y="94"/>
      <point x="145" y="-14"/>
    </contour>
    <contour>
      <point x="282" y="450" type="curve" smooth="yes"/>
      <point x="390" y="449"/>
      <point x="451" y="362"/>
      <point x="451" y="229" type="curve" smooth="yes"/>
      <point x="451" y="134"/>
      <point x="414" y="24"/>
      <point x="299" y="24" type="curve" smooth="yes"/>
      <point x="196" y="24"/>
      <point x="125" y="118"/>
      <point x="125" y="246" type="curve" smooth="yes"/>
      <point x="125" y="348"/>
      <point x="186" y="452"/>
    </contour>
  </outline>
</glyph>
